G04 #@! TF.GenerationSoftware,KiCad,Pcbnew,(5.1.5)-3*
G04 #@! TF.CreationDate,2020-07-27T13:18:42+03:00*
G04 #@! TF.ProjectId,BurtleinaBoard,42757274-6c65-4696-9e61-426f6172642e,0.1*
G04 #@! TF.SameCoordinates,Original*
G04 #@! TF.FileFunction,Copper,L1,Top*
G04 #@! TF.FilePolarity,Positive*
%FSLAX46Y46*%
G04 Gerber Fmt 4.6, Leading zero omitted, Abs format (unit mm)*
G04 Created by KiCad (PCBNEW (5.1.5)-3) date 2020-07-27 13:18:42*
%MOMM*%
%LPD*%
G04 APERTURE LIST*
%ADD10O,1.700000X1.700000*%
%ADD11R,1.700000X1.700000*%
%ADD12C,4.400000*%
%ADD13C,0.700000*%
%ADD14O,1.600000X1.600000*%
%ADD15R,1.600000X1.600000*%
%ADD16O,2.400000X1.600000*%
%ADD17R,2.400000X1.600000*%
%ADD18R,2.000000X2.000000*%
%ADD19C,2.000000*%
%ADD20C,0.100000*%
%ADD21C,0.800000*%
%ADD22C,0.250000*%
%ADD23C,0.500000*%
G04 APERTURE END LIST*
D10*
X104910000Y-65090000D03*
X104910000Y-62550000D03*
X107450000Y-65090000D03*
X107450000Y-62550000D03*
X109990000Y-65090000D03*
X109990000Y-62550000D03*
X112530000Y-65090000D03*
X112530000Y-62550000D03*
X115070000Y-65090000D03*
D11*
X115070000Y-62550000D03*
D10*
X115290000Y-42450000D03*
X115290000Y-44990000D03*
X112750000Y-42450000D03*
X112750000Y-44990000D03*
X110210000Y-42450000D03*
X110210000Y-44990000D03*
X107670000Y-42450000D03*
X107670000Y-44990000D03*
X105130000Y-42450000D03*
D11*
X105130000Y-44990000D03*
D12*
X97300000Y-124700000D03*
D13*
X97300000Y-123050000D03*
X98466726Y-123533274D03*
X98950000Y-124700000D03*
X98466726Y-125866726D03*
X97300000Y-126350000D03*
X96133274Y-125866726D03*
X95650000Y-124700000D03*
X96133274Y-123533274D03*
D12*
X188700000Y-124700000D03*
D13*
X187050000Y-124700000D03*
X187533274Y-123533274D03*
X188700000Y-123050000D03*
X189866726Y-123533274D03*
X190350000Y-124700000D03*
X189866726Y-125866726D03*
X188700000Y-126350000D03*
X187533274Y-125866726D03*
D12*
X188700000Y-33300000D03*
D13*
X188700000Y-34950000D03*
X187533274Y-34466726D03*
X187050000Y-33300000D03*
X187533274Y-32133274D03*
X188700000Y-31650000D03*
X189866726Y-32133274D03*
X190350000Y-33300000D03*
X189866726Y-34466726D03*
X98466726Y-32133274D03*
X97300000Y-31650000D03*
X96133274Y-32133274D03*
X95650000Y-33300000D03*
X96133274Y-34466726D03*
X97300000Y-34950000D03*
X98466726Y-34466726D03*
X98950000Y-33300000D03*
D12*
X97300000Y-33300000D03*
D14*
X144630000Y-87710000D03*
D15*
X152250000Y-87710000D03*
D14*
X132060000Y-108110000D03*
X139680000Y-105570000D03*
X132060000Y-105570000D03*
D15*
X139680000Y-108110000D03*
D14*
X165160000Y-108110000D03*
X172780000Y-105570000D03*
X165160000Y-105570000D03*
D15*
X172780000Y-108110000D03*
D14*
X179880000Y-46600000D03*
X187500000Y-44060000D03*
X179880000Y-44060000D03*
D15*
X187500000Y-46600000D03*
D11*
X136060000Y-90090000D03*
D10*
X136060000Y-87550000D03*
X136060000Y-85010000D03*
D11*
X172040000Y-43460000D03*
D10*
X169500000Y-43460000D03*
X172040000Y-46000000D03*
X169500000Y-46000000D03*
X172040000Y-48540000D03*
X169500000Y-48540000D03*
X172040000Y-51080000D03*
X169500000Y-51080000D03*
X172040000Y-53620000D03*
X169500000Y-53620000D03*
D16*
X179500000Y-116210000D03*
X171880000Y-123830000D03*
X179500000Y-118750000D03*
X171880000Y-121290000D03*
X179500000Y-121290000D03*
X171880000Y-118750000D03*
X179500000Y-123830000D03*
D17*
X171880000Y-116210000D03*
D10*
X100170000Y-102400000D03*
X102710000Y-102400000D03*
X105250000Y-102400000D03*
X107790000Y-102400000D03*
X110330000Y-102400000D03*
X112870000Y-102400000D03*
X115410000Y-102400000D03*
X117950000Y-102400000D03*
X120490000Y-102400000D03*
D11*
X123030000Y-102400000D03*
D10*
X123030000Y-110800000D03*
X123030000Y-113340000D03*
X120490000Y-110800000D03*
X120490000Y-113340000D03*
X117950000Y-110800000D03*
X117950000Y-113340000D03*
X115410000Y-110800000D03*
X115410000Y-113340000D03*
X112870000Y-110800000D03*
X112870000Y-113340000D03*
X110330000Y-110800000D03*
X110330000Y-113340000D03*
X107790000Y-110800000D03*
X107790000Y-113340000D03*
X105250000Y-110800000D03*
X105250000Y-113340000D03*
X102710000Y-110800000D03*
X102710000Y-113340000D03*
X100170000Y-110800000D03*
D11*
X100170000Y-113340000D03*
D10*
X123030000Y-95500000D03*
X120490000Y-95500000D03*
X117950000Y-95500000D03*
X115410000Y-95500000D03*
X112870000Y-95500000D03*
X110330000Y-95500000D03*
X107790000Y-95500000D03*
X105250000Y-95500000D03*
X102710000Y-95500000D03*
D11*
X100170000Y-95500000D03*
D16*
X146380000Y-116230000D03*
X138760000Y-123850000D03*
X146380000Y-118770000D03*
X138760000Y-121310000D03*
X146380000Y-121310000D03*
X138760000Y-118770000D03*
X146380000Y-123850000D03*
D17*
X138760000Y-116230000D03*
D10*
X154860000Y-71160000D03*
X154860000Y-68620000D03*
X154860000Y-66080000D03*
X154860000Y-63540000D03*
X154860000Y-61000000D03*
X154860000Y-58460000D03*
X154860000Y-55920000D03*
X154860000Y-53380000D03*
X154860000Y-50840000D03*
X154860000Y-48300000D03*
X154860000Y-45760000D03*
X154860000Y-43220000D03*
X154860000Y-40680000D03*
X154860000Y-38140000D03*
D11*
X154860000Y-35600000D03*
X131880000Y-35610000D03*
D10*
X131880000Y-38150000D03*
X131880000Y-40690000D03*
X131880000Y-43230000D03*
X131880000Y-45770000D03*
X131880000Y-48310000D03*
X131880000Y-50850000D03*
X131880000Y-53390000D03*
X131880000Y-55930000D03*
X131880000Y-58470000D03*
X131880000Y-61010000D03*
X131880000Y-63550000D03*
X131880000Y-66090000D03*
X131880000Y-68630000D03*
X131880000Y-71170000D03*
D18*
X100170000Y-121700000D03*
D19*
X102710000Y-121700000D03*
X105250000Y-121700000D03*
X107790000Y-121700000D03*
X110330000Y-121700000D03*
X112870000Y-121700000D03*
X115410000Y-121700000D03*
X117950000Y-121700000D03*
X120490000Y-121700000D03*
X123030000Y-121700000D03*
G04 #@! TA.AperFunction,SMDPad,CuDef*
D20*
G36*
X187179504Y-52616204D02*
G01*
X187203773Y-52619804D01*
X187227571Y-52625765D01*
X187250671Y-52634030D01*
X187272849Y-52644520D01*
X187293893Y-52657133D01*
X187313598Y-52671747D01*
X187331777Y-52688223D01*
X187348253Y-52706402D01*
X187362867Y-52726107D01*
X187375480Y-52747151D01*
X187385970Y-52769329D01*
X187394235Y-52792429D01*
X187400196Y-52816227D01*
X187403796Y-52840496D01*
X187405000Y-52865000D01*
X187405000Y-54115000D01*
X187403796Y-54139504D01*
X187400196Y-54163773D01*
X187394235Y-54187571D01*
X187385970Y-54210671D01*
X187375480Y-54232849D01*
X187362867Y-54253893D01*
X187348253Y-54273598D01*
X187331777Y-54291777D01*
X187313598Y-54308253D01*
X187293893Y-54322867D01*
X187272849Y-54335480D01*
X187250671Y-54345970D01*
X187227571Y-54354235D01*
X187203773Y-54360196D01*
X187179504Y-54363796D01*
X187155000Y-54365000D01*
X186405000Y-54365000D01*
X186380496Y-54363796D01*
X186356227Y-54360196D01*
X186332429Y-54354235D01*
X186309329Y-54345970D01*
X186287151Y-54335480D01*
X186266107Y-54322867D01*
X186246402Y-54308253D01*
X186228223Y-54291777D01*
X186211747Y-54273598D01*
X186197133Y-54253893D01*
X186184520Y-54232849D01*
X186174030Y-54210671D01*
X186165765Y-54187571D01*
X186159804Y-54163773D01*
X186156204Y-54139504D01*
X186155000Y-54115000D01*
X186155000Y-52865000D01*
X186156204Y-52840496D01*
X186159804Y-52816227D01*
X186165765Y-52792429D01*
X186174030Y-52769329D01*
X186184520Y-52747151D01*
X186197133Y-52726107D01*
X186211747Y-52706402D01*
X186228223Y-52688223D01*
X186246402Y-52671747D01*
X186266107Y-52657133D01*
X186287151Y-52644520D01*
X186309329Y-52634030D01*
X186332429Y-52625765D01*
X186356227Y-52619804D01*
X186380496Y-52616204D01*
X186405000Y-52615000D01*
X187155000Y-52615000D01*
X187179504Y-52616204D01*
G37*
G04 #@! TD.AperFunction*
G04 #@! TA.AperFunction,SMDPad,CuDef*
G36*
X189979504Y-52616204D02*
G01*
X190003773Y-52619804D01*
X190027571Y-52625765D01*
X190050671Y-52634030D01*
X190072849Y-52644520D01*
X190093893Y-52657133D01*
X190113598Y-52671747D01*
X190131777Y-52688223D01*
X190148253Y-52706402D01*
X190162867Y-52726107D01*
X190175480Y-52747151D01*
X190185970Y-52769329D01*
X190194235Y-52792429D01*
X190200196Y-52816227D01*
X190203796Y-52840496D01*
X190205000Y-52865000D01*
X190205000Y-54115000D01*
X190203796Y-54139504D01*
X190200196Y-54163773D01*
X190194235Y-54187571D01*
X190185970Y-54210671D01*
X190175480Y-54232849D01*
X190162867Y-54253893D01*
X190148253Y-54273598D01*
X190131777Y-54291777D01*
X190113598Y-54308253D01*
X190093893Y-54322867D01*
X190072849Y-54335480D01*
X190050671Y-54345970D01*
X190027571Y-54354235D01*
X190003773Y-54360196D01*
X189979504Y-54363796D01*
X189955000Y-54365000D01*
X189205000Y-54365000D01*
X189180496Y-54363796D01*
X189156227Y-54360196D01*
X189132429Y-54354235D01*
X189109329Y-54345970D01*
X189087151Y-54335480D01*
X189066107Y-54322867D01*
X189046402Y-54308253D01*
X189028223Y-54291777D01*
X189011747Y-54273598D01*
X188997133Y-54253893D01*
X188984520Y-54232849D01*
X188974030Y-54210671D01*
X188965765Y-54187571D01*
X188959804Y-54163773D01*
X188956204Y-54139504D01*
X188955000Y-54115000D01*
X188955000Y-52865000D01*
X188956204Y-52840496D01*
X188959804Y-52816227D01*
X188965765Y-52792429D01*
X188974030Y-52769329D01*
X188984520Y-52747151D01*
X188997133Y-52726107D01*
X189011747Y-52706402D01*
X189028223Y-52688223D01*
X189046402Y-52671747D01*
X189066107Y-52657133D01*
X189087151Y-52644520D01*
X189109329Y-52634030D01*
X189132429Y-52625765D01*
X189156227Y-52619804D01*
X189180496Y-52616204D01*
X189205000Y-52615000D01*
X189955000Y-52615000D01*
X189979504Y-52616204D01*
G37*
G04 #@! TD.AperFunction*
G04 #@! TA.AperFunction,SMDPad,CuDef*
G36*
X179147004Y-52236204D02*
G01*
X179171273Y-52239804D01*
X179195071Y-52245765D01*
X179218171Y-52254030D01*
X179240349Y-52264520D01*
X179261393Y-52277133D01*
X179281098Y-52291747D01*
X179299277Y-52308223D01*
X179315753Y-52326402D01*
X179330367Y-52346107D01*
X179342980Y-52367151D01*
X179353470Y-52389329D01*
X179361735Y-52412429D01*
X179367696Y-52436227D01*
X179371296Y-52460496D01*
X179372500Y-52485000D01*
X179372500Y-54335000D01*
X179371296Y-54359504D01*
X179367696Y-54383773D01*
X179361735Y-54407571D01*
X179353470Y-54430671D01*
X179342980Y-54452849D01*
X179330367Y-54473893D01*
X179315753Y-54493598D01*
X179299277Y-54511777D01*
X179281098Y-54528253D01*
X179261393Y-54542867D01*
X179240349Y-54555480D01*
X179218171Y-54565970D01*
X179195071Y-54574235D01*
X179171273Y-54580196D01*
X179147004Y-54583796D01*
X179122500Y-54585000D01*
X177547500Y-54585000D01*
X177522996Y-54583796D01*
X177498727Y-54580196D01*
X177474929Y-54574235D01*
X177451829Y-54565970D01*
X177429651Y-54555480D01*
X177408607Y-54542867D01*
X177388902Y-54528253D01*
X177370723Y-54511777D01*
X177354247Y-54493598D01*
X177339633Y-54473893D01*
X177327020Y-54452849D01*
X177316530Y-54430671D01*
X177308265Y-54407571D01*
X177302304Y-54383773D01*
X177298704Y-54359504D01*
X177297500Y-54335000D01*
X177297500Y-52485000D01*
X177298704Y-52460496D01*
X177302304Y-52436227D01*
X177308265Y-52412429D01*
X177316530Y-52389329D01*
X177327020Y-52367151D01*
X177339633Y-52346107D01*
X177354247Y-52326402D01*
X177370723Y-52308223D01*
X177388902Y-52291747D01*
X177408607Y-52277133D01*
X177429651Y-52264520D01*
X177451829Y-52254030D01*
X177474929Y-52245765D01*
X177498727Y-52239804D01*
X177522996Y-52236204D01*
X177547500Y-52235000D01*
X179122500Y-52235000D01*
X179147004Y-52236204D01*
G37*
G04 #@! TD.AperFunction*
G04 #@! TA.AperFunction,SMDPad,CuDef*
G36*
X184072004Y-52236204D02*
G01*
X184096273Y-52239804D01*
X184120071Y-52245765D01*
X184143171Y-52254030D01*
X184165349Y-52264520D01*
X184186393Y-52277133D01*
X184206098Y-52291747D01*
X184224277Y-52308223D01*
X184240753Y-52326402D01*
X184255367Y-52346107D01*
X184267980Y-52367151D01*
X184278470Y-52389329D01*
X184286735Y-52412429D01*
X184292696Y-52436227D01*
X184296296Y-52460496D01*
X184297500Y-52485000D01*
X184297500Y-54335000D01*
X184296296Y-54359504D01*
X184292696Y-54383773D01*
X184286735Y-54407571D01*
X184278470Y-54430671D01*
X184267980Y-54452849D01*
X184255367Y-54473893D01*
X184240753Y-54493598D01*
X184224277Y-54511777D01*
X184206098Y-54528253D01*
X184186393Y-54542867D01*
X184165349Y-54555480D01*
X184143171Y-54565970D01*
X184120071Y-54574235D01*
X184096273Y-54580196D01*
X184072004Y-54583796D01*
X184047500Y-54585000D01*
X182472500Y-54585000D01*
X182447996Y-54583796D01*
X182423727Y-54580196D01*
X182399929Y-54574235D01*
X182376829Y-54565970D01*
X182354651Y-54555480D01*
X182333607Y-54542867D01*
X182313902Y-54528253D01*
X182295723Y-54511777D01*
X182279247Y-54493598D01*
X182264633Y-54473893D01*
X182252020Y-54452849D01*
X182241530Y-54430671D01*
X182233265Y-54407571D01*
X182227304Y-54383773D01*
X182223704Y-54359504D01*
X182222500Y-54335000D01*
X182222500Y-52485000D01*
X182223704Y-52460496D01*
X182227304Y-52436227D01*
X182233265Y-52412429D01*
X182241530Y-52389329D01*
X182252020Y-52367151D01*
X182264633Y-52346107D01*
X182279247Y-52326402D01*
X182295723Y-52308223D01*
X182313902Y-52291747D01*
X182333607Y-52277133D01*
X182354651Y-52264520D01*
X182376829Y-52254030D01*
X182399929Y-52245765D01*
X182423727Y-52239804D01*
X182447996Y-52236204D01*
X182472500Y-52235000D01*
X184047500Y-52235000D01*
X184072004Y-52236204D01*
G37*
G04 #@! TD.AperFunction*
G04 #@! TA.AperFunction,SMDPad,CuDef*
G36*
X182179504Y-102336204D02*
G01*
X182203773Y-102339804D01*
X182227571Y-102345765D01*
X182250671Y-102354030D01*
X182272849Y-102364520D01*
X182293893Y-102377133D01*
X182313598Y-102391747D01*
X182331777Y-102408223D01*
X182348253Y-102426402D01*
X182362867Y-102446107D01*
X182375480Y-102467151D01*
X182385970Y-102489329D01*
X182394235Y-102512429D01*
X182400196Y-102536227D01*
X182403796Y-102560496D01*
X182405000Y-102585000D01*
X182405000Y-103835000D01*
X182403796Y-103859504D01*
X182400196Y-103883773D01*
X182394235Y-103907571D01*
X182385970Y-103930671D01*
X182375480Y-103952849D01*
X182362867Y-103973893D01*
X182348253Y-103993598D01*
X182331777Y-104011777D01*
X182313598Y-104028253D01*
X182293893Y-104042867D01*
X182272849Y-104055480D01*
X182250671Y-104065970D01*
X182227571Y-104074235D01*
X182203773Y-104080196D01*
X182179504Y-104083796D01*
X182155000Y-104085000D01*
X181405000Y-104085000D01*
X181380496Y-104083796D01*
X181356227Y-104080196D01*
X181332429Y-104074235D01*
X181309329Y-104065970D01*
X181287151Y-104055480D01*
X181266107Y-104042867D01*
X181246402Y-104028253D01*
X181228223Y-104011777D01*
X181211747Y-103993598D01*
X181197133Y-103973893D01*
X181184520Y-103952849D01*
X181174030Y-103930671D01*
X181165765Y-103907571D01*
X181159804Y-103883773D01*
X181156204Y-103859504D01*
X181155000Y-103835000D01*
X181155000Y-102585000D01*
X181156204Y-102560496D01*
X181159804Y-102536227D01*
X181165765Y-102512429D01*
X181174030Y-102489329D01*
X181184520Y-102467151D01*
X181197133Y-102446107D01*
X181211747Y-102426402D01*
X181228223Y-102408223D01*
X181246402Y-102391747D01*
X181266107Y-102377133D01*
X181287151Y-102364520D01*
X181309329Y-102354030D01*
X181332429Y-102345765D01*
X181356227Y-102339804D01*
X181380496Y-102336204D01*
X181405000Y-102335000D01*
X182155000Y-102335000D01*
X182179504Y-102336204D01*
G37*
G04 #@! TD.AperFunction*
G04 #@! TA.AperFunction,SMDPad,CuDef*
G36*
X179379504Y-102336204D02*
G01*
X179403773Y-102339804D01*
X179427571Y-102345765D01*
X179450671Y-102354030D01*
X179472849Y-102364520D01*
X179493893Y-102377133D01*
X179513598Y-102391747D01*
X179531777Y-102408223D01*
X179548253Y-102426402D01*
X179562867Y-102446107D01*
X179575480Y-102467151D01*
X179585970Y-102489329D01*
X179594235Y-102512429D01*
X179600196Y-102536227D01*
X179603796Y-102560496D01*
X179605000Y-102585000D01*
X179605000Y-103835000D01*
X179603796Y-103859504D01*
X179600196Y-103883773D01*
X179594235Y-103907571D01*
X179585970Y-103930671D01*
X179575480Y-103952849D01*
X179562867Y-103973893D01*
X179548253Y-103993598D01*
X179531777Y-104011777D01*
X179513598Y-104028253D01*
X179493893Y-104042867D01*
X179472849Y-104055480D01*
X179450671Y-104065970D01*
X179427571Y-104074235D01*
X179403773Y-104080196D01*
X179379504Y-104083796D01*
X179355000Y-104085000D01*
X178605000Y-104085000D01*
X178580496Y-104083796D01*
X178556227Y-104080196D01*
X178532429Y-104074235D01*
X178509329Y-104065970D01*
X178487151Y-104055480D01*
X178466107Y-104042867D01*
X178446402Y-104028253D01*
X178428223Y-104011777D01*
X178411747Y-103993598D01*
X178397133Y-103973893D01*
X178384520Y-103952849D01*
X178374030Y-103930671D01*
X178365765Y-103907571D01*
X178359804Y-103883773D01*
X178356204Y-103859504D01*
X178355000Y-103835000D01*
X178355000Y-102585000D01*
X178356204Y-102560496D01*
X178359804Y-102536227D01*
X178365765Y-102512429D01*
X178374030Y-102489329D01*
X178384520Y-102467151D01*
X178397133Y-102446107D01*
X178411747Y-102426402D01*
X178428223Y-102408223D01*
X178446402Y-102391747D01*
X178466107Y-102377133D01*
X178487151Y-102364520D01*
X178509329Y-102354030D01*
X178532429Y-102345765D01*
X178556227Y-102339804D01*
X178580496Y-102336204D01*
X178605000Y-102335000D01*
X179355000Y-102335000D01*
X179379504Y-102336204D01*
G37*
G04 #@! TD.AperFunction*
G04 #@! TA.AperFunction,SMDPad,CuDef*
G36*
X183854504Y-108336204D02*
G01*
X183878773Y-108339804D01*
X183902571Y-108345765D01*
X183925671Y-108354030D01*
X183947849Y-108364520D01*
X183968893Y-108377133D01*
X183988598Y-108391747D01*
X184006777Y-108408223D01*
X184023253Y-108426402D01*
X184037867Y-108446107D01*
X184050480Y-108467151D01*
X184060970Y-108489329D01*
X184069235Y-108512429D01*
X184075196Y-108536227D01*
X184078796Y-108560496D01*
X184080000Y-108585000D01*
X184080000Y-110435000D01*
X184078796Y-110459504D01*
X184075196Y-110483773D01*
X184069235Y-110507571D01*
X184060970Y-110530671D01*
X184050480Y-110552849D01*
X184037867Y-110573893D01*
X184023253Y-110593598D01*
X184006777Y-110611777D01*
X183988598Y-110628253D01*
X183968893Y-110642867D01*
X183947849Y-110655480D01*
X183925671Y-110665970D01*
X183902571Y-110674235D01*
X183878773Y-110680196D01*
X183854504Y-110683796D01*
X183830000Y-110685000D01*
X182255000Y-110685000D01*
X182230496Y-110683796D01*
X182206227Y-110680196D01*
X182182429Y-110674235D01*
X182159329Y-110665970D01*
X182137151Y-110655480D01*
X182116107Y-110642867D01*
X182096402Y-110628253D01*
X182078223Y-110611777D01*
X182061747Y-110593598D01*
X182047133Y-110573893D01*
X182034520Y-110552849D01*
X182024030Y-110530671D01*
X182015765Y-110507571D01*
X182009804Y-110483773D01*
X182006204Y-110459504D01*
X182005000Y-110435000D01*
X182005000Y-108585000D01*
X182006204Y-108560496D01*
X182009804Y-108536227D01*
X182015765Y-108512429D01*
X182024030Y-108489329D01*
X182034520Y-108467151D01*
X182047133Y-108446107D01*
X182061747Y-108426402D01*
X182078223Y-108408223D01*
X182096402Y-108391747D01*
X182116107Y-108377133D01*
X182137151Y-108364520D01*
X182159329Y-108354030D01*
X182182429Y-108345765D01*
X182206227Y-108339804D01*
X182230496Y-108336204D01*
X182255000Y-108335000D01*
X183830000Y-108335000D01*
X183854504Y-108336204D01*
G37*
G04 #@! TD.AperFunction*
G04 #@! TA.AperFunction,SMDPad,CuDef*
G36*
X178929504Y-108336204D02*
G01*
X178953773Y-108339804D01*
X178977571Y-108345765D01*
X179000671Y-108354030D01*
X179022849Y-108364520D01*
X179043893Y-108377133D01*
X179063598Y-108391747D01*
X179081777Y-108408223D01*
X179098253Y-108426402D01*
X179112867Y-108446107D01*
X179125480Y-108467151D01*
X179135970Y-108489329D01*
X179144235Y-108512429D01*
X179150196Y-108536227D01*
X179153796Y-108560496D01*
X179155000Y-108585000D01*
X179155000Y-110435000D01*
X179153796Y-110459504D01*
X179150196Y-110483773D01*
X179144235Y-110507571D01*
X179135970Y-110530671D01*
X179125480Y-110552849D01*
X179112867Y-110573893D01*
X179098253Y-110593598D01*
X179081777Y-110611777D01*
X179063598Y-110628253D01*
X179043893Y-110642867D01*
X179022849Y-110655480D01*
X179000671Y-110665970D01*
X178977571Y-110674235D01*
X178953773Y-110680196D01*
X178929504Y-110683796D01*
X178905000Y-110685000D01*
X177330000Y-110685000D01*
X177305496Y-110683796D01*
X177281227Y-110680196D01*
X177257429Y-110674235D01*
X177234329Y-110665970D01*
X177212151Y-110655480D01*
X177191107Y-110642867D01*
X177171402Y-110628253D01*
X177153223Y-110611777D01*
X177136747Y-110593598D01*
X177122133Y-110573893D01*
X177109520Y-110552849D01*
X177099030Y-110530671D01*
X177090765Y-110507571D01*
X177084804Y-110483773D01*
X177081204Y-110459504D01*
X177080000Y-110435000D01*
X177080000Y-108585000D01*
X177081204Y-108560496D01*
X177084804Y-108536227D01*
X177090765Y-108512429D01*
X177099030Y-108489329D01*
X177109520Y-108467151D01*
X177122133Y-108446107D01*
X177136747Y-108426402D01*
X177153223Y-108408223D01*
X177171402Y-108391747D01*
X177191107Y-108377133D01*
X177212151Y-108364520D01*
X177234329Y-108354030D01*
X177257429Y-108345765D01*
X177281227Y-108339804D01*
X177305496Y-108336204D01*
X177330000Y-108335000D01*
X178905000Y-108335000D01*
X178929504Y-108336204D01*
G37*
G04 #@! TD.AperFunction*
G04 #@! TA.AperFunction,SMDPad,CuDef*
G36*
X146679504Y-102436204D02*
G01*
X146703773Y-102439804D01*
X146727571Y-102445765D01*
X146750671Y-102454030D01*
X146772849Y-102464520D01*
X146793893Y-102477133D01*
X146813598Y-102491747D01*
X146831777Y-102508223D01*
X146848253Y-102526402D01*
X146862867Y-102546107D01*
X146875480Y-102567151D01*
X146885970Y-102589329D01*
X146894235Y-102612429D01*
X146900196Y-102636227D01*
X146903796Y-102660496D01*
X146905000Y-102685000D01*
X146905000Y-103935000D01*
X146903796Y-103959504D01*
X146900196Y-103983773D01*
X146894235Y-104007571D01*
X146885970Y-104030671D01*
X146875480Y-104052849D01*
X146862867Y-104073893D01*
X146848253Y-104093598D01*
X146831777Y-104111777D01*
X146813598Y-104128253D01*
X146793893Y-104142867D01*
X146772849Y-104155480D01*
X146750671Y-104165970D01*
X146727571Y-104174235D01*
X146703773Y-104180196D01*
X146679504Y-104183796D01*
X146655000Y-104185000D01*
X145905000Y-104185000D01*
X145880496Y-104183796D01*
X145856227Y-104180196D01*
X145832429Y-104174235D01*
X145809329Y-104165970D01*
X145787151Y-104155480D01*
X145766107Y-104142867D01*
X145746402Y-104128253D01*
X145728223Y-104111777D01*
X145711747Y-104093598D01*
X145697133Y-104073893D01*
X145684520Y-104052849D01*
X145674030Y-104030671D01*
X145665765Y-104007571D01*
X145659804Y-103983773D01*
X145656204Y-103959504D01*
X145655000Y-103935000D01*
X145655000Y-102685000D01*
X145656204Y-102660496D01*
X145659804Y-102636227D01*
X145665765Y-102612429D01*
X145674030Y-102589329D01*
X145684520Y-102567151D01*
X145697133Y-102546107D01*
X145711747Y-102526402D01*
X145728223Y-102508223D01*
X145746402Y-102491747D01*
X145766107Y-102477133D01*
X145787151Y-102464520D01*
X145809329Y-102454030D01*
X145832429Y-102445765D01*
X145856227Y-102439804D01*
X145880496Y-102436204D01*
X145905000Y-102435000D01*
X146655000Y-102435000D01*
X146679504Y-102436204D01*
G37*
G04 #@! TD.AperFunction*
G04 #@! TA.AperFunction,SMDPad,CuDef*
G36*
X149479504Y-102436204D02*
G01*
X149503773Y-102439804D01*
X149527571Y-102445765D01*
X149550671Y-102454030D01*
X149572849Y-102464520D01*
X149593893Y-102477133D01*
X149613598Y-102491747D01*
X149631777Y-102508223D01*
X149648253Y-102526402D01*
X149662867Y-102546107D01*
X149675480Y-102567151D01*
X149685970Y-102589329D01*
X149694235Y-102612429D01*
X149700196Y-102636227D01*
X149703796Y-102660496D01*
X149705000Y-102685000D01*
X149705000Y-103935000D01*
X149703796Y-103959504D01*
X149700196Y-103983773D01*
X149694235Y-104007571D01*
X149685970Y-104030671D01*
X149675480Y-104052849D01*
X149662867Y-104073893D01*
X149648253Y-104093598D01*
X149631777Y-104111777D01*
X149613598Y-104128253D01*
X149593893Y-104142867D01*
X149572849Y-104155480D01*
X149550671Y-104165970D01*
X149527571Y-104174235D01*
X149503773Y-104180196D01*
X149479504Y-104183796D01*
X149455000Y-104185000D01*
X148705000Y-104185000D01*
X148680496Y-104183796D01*
X148656227Y-104180196D01*
X148632429Y-104174235D01*
X148609329Y-104165970D01*
X148587151Y-104155480D01*
X148566107Y-104142867D01*
X148546402Y-104128253D01*
X148528223Y-104111777D01*
X148511747Y-104093598D01*
X148497133Y-104073893D01*
X148484520Y-104052849D01*
X148474030Y-104030671D01*
X148465765Y-104007571D01*
X148459804Y-103983773D01*
X148456204Y-103959504D01*
X148455000Y-103935000D01*
X148455000Y-102685000D01*
X148456204Y-102660496D01*
X148459804Y-102636227D01*
X148465765Y-102612429D01*
X148474030Y-102589329D01*
X148484520Y-102567151D01*
X148497133Y-102546107D01*
X148511747Y-102526402D01*
X148528223Y-102508223D01*
X148546402Y-102491747D01*
X148566107Y-102477133D01*
X148587151Y-102464520D01*
X148609329Y-102454030D01*
X148632429Y-102445765D01*
X148656227Y-102439804D01*
X148680496Y-102436204D01*
X148705000Y-102435000D01*
X149455000Y-102435000D01*
X149479504Y-102436204D01*
G37*
G04 #@! TD.AperFunction*
G04 #@! TA.AperFunction,SMDPad,CuDef*
G36*
X150654504Y-107836204D02*
G01*
X150678773Y-107839804D01*
X150702571Y-107845765D01*
X150725671Y-107854030D01*
X150747849Y-107864520D01*
X150768893Y-107877133D01*
X150788598Y-107891747D01*
X150806777Y-107908223D01*
X150823253Y-107926402D01*
X150837867Y-107946107D01*
X150850480Y-107967151D01*
X150860970Y-107989329D01*
X150869235Y-108012429D01*
X150875196Y-108036227D01*
X150878796Y-108060496D01*
X150880000Y-108085000D01*
X150880000Y-109935000D01*
X150878796Y-109959504D01*
X150875196Y-109983773D01*
X150869235Y-110007571D01*
X150860970Y-110030671D01*
X150850480Y-110052849D01*
X150837867Y-110073893D01*
X150823253Y-110093598D01*
X150806777Y-110111777D01*
X150788598Y-110128253D01*
X150768893Y-110142867D01*
X150747849Y-110155480D01*
X150725671Y-110165970D01*
X150702571Y-110174235D01*
X150678773Y-110180196D01*
X150654504Y-110183796D01*
X150630000Y-110185000D01*
X149055000Y-110185000D01*
X149030496Y-110183796D01*
X149006227Y-110180196D01*
X148982429Y-110174235D01*
X148959329Y-110165970D01*
X148937151Y-110155480D01*
X148916107Y-110142867D01*
X148896402Y-110128253D01*
X148878223Y-110111777D01*
X148861747Y-110093598D01*
X148847133Y-110073893D01*
X148834520Y-110052849D01*
X148824030Y-110030671D01*
X148815765Y-110007571D01*
X148809804Y-109983773D01*
X148806204Y-109959504D01*
X148805000Y-109935000D01*
X148805000Y-108085000D01*
X148806204Y-108060496D01*
X148809804Y-108036227D01*
X148815765Y-108012429D01*
X148824030Y-107989329D01*
X148834520Y-107967151D01*
X148847133Y-107946107D01*
X148861747Y-107926402D01*
X148878223Y-107908223D01*
X148896402Y-107891747D01*
X148916107Y-107877133D01*
X148937151Y-107864520D01*
X148959329Y-107854030D01*
X148982429Y-107845765D01*
X149006227Y-107839804D01*
X149030496Y-107836204D01*
X149055000Y-107835000D01*
X150630000Y-107835000D01*
X150654504Y-107836204D01*
G37*
G04 #@! TD.AperFunction*
G04 #@! TA.AperFunction,SMDPad,CuDef*
G36*
X145729504Y-107836204D02*
G01*
X145753773Y-107839804D01*
X145777571Y-107845765D01*
X145800671Y-107854030D01*
X145822849Y-107864520D01*
X145843893Y-107877133D01*
X145863598Y-107891747D01*
X145881777Y-107908223D01*
X145898253Y-107926402D01*
X145912867Y-107946107D01*
X145925480Y-107967151D01*
X145935970Y-107989329D01*
X145944235Y-108012429D01*
X145950196Y-108036227D01*
X145953796Y-108060496D01*
X145955000Y-108085000D01*
X145955000Y-109935000D01*
X145953796Y-109959504D01*
X145950196Y-109983773D01*
X145944235Y-110007571D01*
X145935970Y-110030671D01*
X145925480Y-110052849D01*
X145912867Y-110073893D01*
X145898253Y-110093598D01*
X145881777Y-110111777D01*
X145863598Y-110128253D01*
X145843893Y-110142867D01*
X145822849Y-110155480D01*
X145800671Y-110165970D01*
X145777571Y-110174235D01*
X145753773Y-110180196D01*
X145729504Y-110183796D01*
X145705000Y-110185000D01*
X144130000Y-110185000D01*
X144105496Y-110183796D01*
X144081227Y-110180196D01*
X144057429Y-110174235D01*
X144034329Y-110165970D01*
X144012151Y-110155480D01*
X143991107Y-110142867D01*
X143971402Y-110128253D01*
X143953223Y-110111777D01*
X143936747Y-110093598D01*
X143922133Y-110073893D01*
X143909520Y-110052849D01*
X143899030Y-110030671D01*
X143890765Y-110007571D01*
X143884804Y-109983773D01*
X143881204Y-109959504D01*
X143880000Y-109935000D01*
X143880000Y-108085000D01*
X143881204Y-108060496D01*
X143884804Y-108036227D01*
X143890765Y-108012429D01*
X143899030Y-107989329D01*
X143909520Y-107967151D01*
X143922133Y-107946107D01*
X143936747Y-107926402D01*
X143953223Y-107908223D01*
X143971402Y-107891747D01*
X143991107Y-107877133D01*
X144012151Y-107864520D01*
X144034329Y-107854030D01*
X144057429Y-107845765D01*
X144081227Y-107839804D01*
X144105496Y-107836204D01*
X144130000Y-107835000D01*
X145705000Y-107835000D01*
X145729504Y-107836204D01*
G37*
G04 #@! TD.AperFunction*
D21*
X142830000Y-122390000D03*
X153750000Y-120380000D03*
X152010000Y-118680000D03*
X160140000Y-41460000D03*
X160110000Y-45970000D03*
X114100000Y-59620000D03*
X119860000Y-64370000D03*
X136600000Y-67210000D03*
X134340000Y-68670000D03*
X135060000Y-66030000D03*
X114443601Y-73300000D03*
X114443601Y-68940000D03*
X114100000Y-60850000D03*
X117620000Y-62620000D03*
X123520000Y-59550000D03*
X125780000Y-58090000D03*
X128450000Y-60160000D03*
X127280000Y-61010000D03*
X125262347Y-61067653D03*
X118610000Y-63500000D03*
X112350000Y-57520000D03*
X110500000Y-57520000D03*
X158080000Y-44290000D03*
X115070000Y-54930000D03*
D22*
X183042500Y-108335000D02*
X183042500Y-109510000D01*
X183042500Y-103847500D02*
X183042500Y-108335000D01*
X182405000Y-103210000D02*
X183042500Y-103847500D01*
X181780000Y-103210000D02*
X182405000Y-103210000D01*
X173405010Y-123754990D02*
X173330000Y-123830000D01*
X173405010Y-118109990D02*
X173405010Y-123754990D01*
X173330000Y-123830000D02*
X171880000Y-123830000D01*
X182005000Y-109510000D02*
X173405010Y-118109990D01*
X183042500Y-109510000D02*
X182005000Y-109510000D01*
D23*
X149080000Y-108247500D02*
X149842500Y-109010000D01*
X149080000Y-103310000D02*
X149080000Y-108247500D01*
D22*
X172250000Y-53410000D02*
X172040000Y-53620000D01*
X178335000Y-53410000D02*
X172250000Y-53410000D01*
X178335000Y-52235000D02*
X178335000Y-53410000D01*
X178660010Y-51909990D02*
X178335000Y-52235000D01*
X186155000Y-53490000D02*
X184574990Y-51909990D01*
X184574990Y-51909990D02*
X178660010Y-51909990D01*
X186780000Y-53490000D02*
X186155000Y-53490000D01*
X123030000Y-95500000D02*
X123030000Y-102400000D01*
X123030000Y-109597919D02*
X123030000Y-102400000D01*
X123030000Y-110800000D02*
X123030000Y-109597919D01*
X145324990Y-119895010D02*
X142830000Y-122390000D01*
X147245994Y-119895010D02*
X145324990Y-119895010D01*
X149842500Y-117298504D02*
X147245994Y-119895010D01*
X171880000Y-123830000D02*
X157200000Y-123830000D01*
X157200000Y-123830000D02*
X153750000Y-120380000D01*
X151610001Y-118280001D02*
X150990001Y-118280001D01*
X152010000Y-118680000D02*
X151610001Y-118280001D01*
X150990001Y-118280001D02*
X149800000Y-117090000D01*
X149842500Y-109010000D02*
X149800000Y-117090000D01*
X149800000Y-117090000D02*
X149842500Y-117298504D01*
X131890000Y-38140000D02*
X131880000Y-38150000D01*
X154860000Y-38140000D02*
X131890000Y-38140000D01*
X160140000Y-41460000D02*
X160140000Y-45940000D01*
X160140000Y-45940000D02*
X160110000Y-45970000D01*
D23*
X144017500Y-108110000D02*
X144917500Y-109010000D01*
X139680000Y-108110000D02*
X144017500Y-108110000D01*
X141940000Y-103310000D02*
X146280000Y-103310000D01*
X139680000Y-105570000D02*
X141940000Y-103310000D01*
X177080000Y-109510000D02*
X178117500Y-109510000D01*
X172880000Y-109510000D02*
X177080000Y-109510000D01*
X172780000Y-109410000D02*
X172880000Y-109510000D01*
X172780000Y-108110000D02*
X172780000Y-109410000D01*
X175140000Y-103210000D02*
X178980000Y-103210000D01*
X172780000Y-105570000D02*
X175140000Y-103210000D01*
D22*
X183365010Y-54690010D02*
X183260000Y-54585000D01*
X187730010Y-47880010D02*
X187730010Y-54353180D01*
X183260000Y-54585000D02*
X183260000Y-53410000D01*
X187730010Y-54353180D02*
X187393180Y-54690010D01*
X187500000Y-47650000D02*
X187730010Y-47880010D01*
X187393180Y-54690010D02*
X183365010Y-54690010D01*
X187500000Y-46600000D02*
X187500000Y-47650000D01*
X189580000Y-46140000D02*
X187500000Y-44060000D01*
X189580000Y-53490000D02*
X189580000Y-46140000D01*
X123030000Y-120144366D02*
X123030000Y-113340000D01*
X123030000Y-121700000D02*
X123030000Y-120144366D01*
X120490000Y-113340000D02*
X120490000Y-121700000D01*
X117950000Y-113340000D02*
X117950000Y-121700000D01*
X115410000Y-113340000D02*
X115410000Y-121700000D01*
X112870000Y-113340000D02*
X112870000Y-121700000D01*
X110330000Y-113340000D02*
X110330000Y-121700000D01*
X107790000Y-114542081D02*
X107790000Y-121700000D01*
X107790000Y-113340000D02*
X107790000Y-114542081D01*
X105250000Y-113340000D02*
X105250000Y-121700000D01*
X102710000Y-113340000D02*
X102710000Y-121700000D01*
X100170000Y-113340000D02*
X100170000Y-121700000D01*
X100170000Y-110800000D02*
X100170000Y-102400000D01*
X100170000Y-102400000D02*
X100170000Y-95500000D01*
X100170000Y-67290000D02*
X100170000Y-95500000D01*
X104910000Y-62550000D02*
X100170000Y-67290000D01*
X104910000Y-62550000D02*
X107840000Y-59620000D01*
X107840000Y-59620000D02*
X114100000Y-59620000D01*
X126660000Y-71170000D02*
X131880000Y-71170000D01*
X119860000Y-64370000D02*
X126660000Y-71170000D01*
X102710000Y-95500000D02*
X102710000Y-102400000D01*
X102710000Y-110800000D02*
X102710000Y-102400000D01*
X102710000Y-69830000D02*
X102710000Y-95740000D01*
X107450000Y-65090000D02*
X102710000Y-69830000D01*
X170864999Y-52255001D02*
X168935999Y-52255001D01*
X172040000Y-51080000D02*
X170864999Y-52255001D01*
X168935999Y-52255001D02*
X161555999Y-59635001D01*
X161555999Y-59635001D02*
X144174999Y-59635001D01*
X144174999Y-59635001D02*
X136600000Y-67210000D01*
X131920000Y-68670000D02*
X131880000Y-68630000D01*
X134340000Y-68670000D02*
X131920000Y-68670000D01*
X105250000Y-95500000D02*
X105250000Y-102400000D01*
X105250000Y-102400000D02*
X105250000Y-110800000D01*
X161391411Y-57284999D02*
X140845001Y-57284999D01*
X168771411Y-49904999D02*
X161391411Y-57284999D01*
X171475999Y-49904999D02*
X168771411Y-49904999D01*
X172040000Y-48540000D02*
X172040000Y-49340998D01*
X172040000Y-49340998D02*
X171475999Y-49904999D01*
X140845001Y-57284999D02*
X135060000Y-63070000D01*
X135060000Y-63070000D02*
X135060000Y-66030000D01*
X114443601Y-73300000D02*
X114443601Y-68940000D01*
X107790000Y-110800000D02*
X107790000Y-102400000D01*
X107790000Y-101197919D02*
X107790000Y-95500000D01*
X107790000Y-102400000D02*
X107790000Y-101197919D01*
X107790000Y-67290000D02*
X107790000Y-95500000D01*
X109990000Y-65090000D02*
X107790000Y-67290000D01*
X108801399Y-61979471D02*
X109930870Y-60850000D01*
X109990000Y-65090000D02*
X108801399Y-63901399D01*
X109930870Y-60850000D02*
X114100000Y-60850000D01*
X108801399Y-63901399D02*
X108801399Y-61979471D01*
X117620000Y-62620000D02*
X120690000Y-59550000D01*
X120690000Y-59550000D02*
X123520000Y-59550000D01*
X125780000Y-58090000D02*
X127850000Y-60160000D01*
X127850000Y-60160000D02*
X128450000Y-60160000D01*
X110330000Y-95500000D02*
X110330000Y-102400000D01*
X110330000Y-103602081D02*
X110330000Y-110800000D01*
X110330000Y-102400000D02*
X110330000Y-103602081D01*
X111179999Y-94650001D02*
X110330000Y-95500000D01*
X111179999Y-64520869D02*
X111179999Y-94650001D01*
X109990000Y-62550000D02*
X109990000Y-63330870D01*
X109990000Y-63330870D02*
X111179999Y-64520869D01*
X131880000Y-61010000D02*
X127280000Y-61010000D01*
X125262347Y-61067653D02*
X122830000Y-63500000D01*
X122830000Y-63500000D02*
X118610000Y-63500000D01*
D23*
X165160000Y-105570000D02*
X165160000Y-108110000D01*
X146380000Y-118770000D02*
X146380000Y-116230000D01*
X132060000Y-92740000D02*
X132060000Y-104438630D01*
X132060000Y-104438630D02*
X132060000Y-105570000D01*
X134710000Y-90090000D02*
X132060000Y-92740000D01*
X136060000Y-90090000D02*
X134710000Y-90090000D01*
X136060000Y-90090000D02*
X136060000Y-87550000D01*
X136060000Y-87550000D02*
X136060000Y-85010000D01*
D22*
X132729999Y-52540001D02*
X131880000Y-53390000D01*
X133065001Y-52204999D02*
X132729999Y-52540001D01*
X163931411Y-52204999D02*
X133065001Y-52204999D01*
X168961409Y-47175001D02*
X163931411Y-52204999D01*
X170864999Y-47175001D02*
X168961409Y-47175001D01*
X172040000Y-46000000D02*
X170864999Y-47175001D01*
X112870000Y-110800000D02*
X112870000Y-102400000D01*
X112870000Y-95500000D02*
X112870000Y-102400000D01*
X112530000Y-95160000D02*
X112870000Y-95500000D01*
X112530000Y-65090000D02*
X112530000Y-95160000D01*
X115410000Y-102400000D02*
X115410000Y-95500000D01*
X115410000Y-102400000D02*
X115410000Y-110800000D01*
X114560001Y-94650001D02*
X115410000Y-95500000D01*
X113718601Y-93808601D02*
X114560001Y-94650001D01*
X113718601Y-63738601D02*
X113718601Y-93808601D01*
X112530000Y-62550000D02*
X113718601Y-63738601D01*
X112350000Y-57520000D02*
X110500000Y-57520000D01*
X130704999Y-52025001D02*
X131030001Y-51699999D01*
X130704999Y-53954001D02*
X130704999Y-52025001D01*
X131030001Y-51699999D02*
X131880000Y-50850000D01*
X131315999Y-54565001D02*
X130704999Y-53954001D01*
X163474999Y-54565001D02*
X131315999Y-54565001D01*
X169500000Y-48540000D02*
X163474999Y-54565001D01*
X132729999Y-47460001D02*
X131880000Y-48310000D01*
X133254999Y-46935001D02*
X132729999Y-47460001D01*
X168564999Y-46935001D02*
X133254999Y-46935001D01*
X169500000Y-46000000D02*
X168564999Y-46935001D01*
X113613599Y-43313599D02*
X112750000Y-42450000D01*
X130677919Y-48310000D02*
X126006520Y-43638601D01*
X113938601Y-43638601D02*
X113613599Y-43313599D01*
X126006520Y-43638601D02*
X113938601Y-43638601D01*
X131880000Y-48310000D02*
X130677919Y-48310000D01*
X117950000Y-95500000D02*
X117950000Y-102400000D01*
X117950000Y-110800000D02*
X117950000Y-102400000D01*
X115070000Y-65090000D02*
X116920000Y-66940000D01*
X116920000Y-94470000D02*
X117950000Y-95500000D01*
X116920000Y-66940000D02*
X116920000Y-94470000D01*
X132729999Y-44920001D02*
X131880000Y-45770000D01*
X133065001Y-44584999D02*
X132729999Y-44920001D01*
X155446003Y-44584999D02*
X133065001Y-44584999D01*
X156141001Y-43890001D02*
X155446003Y-44584999D01*
X157680001Y-43890001D02*
X156141001Y-43890001D01*
X158080000Y-44290000D02*
X157680001Y-43890001D01*
X115070000Y-54930000D02*
X105130000Y-44990000D01*
X115070000Y-62550000D02*
X115070000Y-54930000D01*
X120490000Y-110800000D02*
X120490000Y-102400000D01*
X120490000Y-102400000D02*
X120490000Y-95500000D01*
X116183600Y-62550000D02*
X115070000Y-62550000D01*
X120490000Y-66856400D02*
X116183600Y-62550000D01*
X120490000Y-95500000D02*
X120490000Y-66856400D01*
X138429006Y-125510010D02*
X133530000Y-120611004D01*
X179500000Y-123830000D02*
X179500000Y-124880000D01*
X178869990Y-125510010D02*
X138429006Y-125510010D01*
X179500000Y-124880000D02*
X178869990Y-125510010D01*
X137310000Y-116230000D02*
X138760000Y-116230000D01*
X133530000Y-120010000D02*
X137310000Y-116230000D01*
X133530000Y-120611004D02*
X133530000Y-120010000D01*
X121740000Y-112050000D02*
X121339999Y-111649999D01*
X123479002Y-112050000D02*
X121740000Y-112050000D01*
X131439002Y-120010000D02*
X123479002Y-112050000D01*
X121339999Y-111649999D02*
X120490000Y-110800000D01*
X133530000Y-120010000D02*
X131439002Y-120010000D01*
D23*
X149348012Y-122599990D02*
X154900000Y-117048002D01*
X140460000Y-121310000D02*
X142482229Y-123332229D01*
X138760000Y-121310000D02*
X140460000Y-121310000D01*
X142482229Y-123332229D02*
X144729990Y-123332229D01*
X144729990Y-123332229D02*
X145462229Y-122599990D01*
X145462229Y-122599990D02*
X149348012Y-122599990D01*
D22*
X152250000Y-86660000D02*
X152250000Y-87710000D01*
X152250000Y-84720998D02*
X152250000Y-86660000D01*
X132254003Y-64725001D02*
X152250000Y-84720998D01*
X129945001Y-64725001D02*
X132254003Y-64725001D01*
D23*
X154900000Y-117048002D02*
X154900000Y-93500000D01*
D22*
X110210000Y-44990000D02*
X129945001Y-64725001D01*
D23*
X152250000Y-90850000D02*
X152250000Y-87710000D01*
X154900000Y-93500000D02*
X152250000Y-90850000D01*
M02*
