G04 #@! TF.GenerationSoftware,KiCad,Pcbnew,(5.1.5)-3*
G04 #@! TF.CreationDate,2020-07-27T13:18:42+03:00*
G04 #@! TF.ProjectId,BurtleinaBoard,42757274-6c65-4696-9e61-426f6172642e,0.1*
G04 #@! TF.SameCoordinates,Original*
G04 #@! TF.FileFunction,Soldermask,Bot*
G04 #@! TF.FilePolarity,Negative*
%FSLAX46Y46*%
G04 Gerber Fmt 4.6, Leading zero omitted, Abs format (unit mm)*
G04 Created by KiCad (PCBNEW (5.1.5)-3) date 2020-07-27 13:18:42*
%MOMM*%
%LPD*%
G04 APERTURE LIST*
%ADD10C,0.100000*%
G04 APERTURE END LIST*
D10*
G36*
X188975880Y-122459776D02*
G01*
X189356593Y-122535504D01*
X189766249Y-122705189D01*
X190134929Y-122951534D01*
X190448466Y-123265071D01*
X190694811Y-123633751D01*
X190864496Y-124043407D01*
X190951000Y-124478296D01*
X190951000Y-124921704D01*
X190864496Y-125356593D01*
X190694811Y-125766249D01*
X190448466Y-126134929D01*
X190134929Y-126448466D01*
X189766249Y-126694811D01*
X189356593Y-126864496D01*
X188975880Y-126940224D01*
X188921705Y-126951000D01*
X188478295Y-126951000D01*
X188424120Y-126940224D01*
X188043407Y-126864496D01*
X187633751Y-126694811D01*
X187265071Y-126448466D01*
X186951534Y-126134929D01*
X186705189Y-125766249D01*
X186535504Y-125356593D01*
X186449000Y-124921704D01*
X186449000Y-124478296D01*
X186535504Y-124043407D01*
X186705189Y-123633751D01*
X186951534Y-123265071D01*
X187265071Y-122951534D01*
X187633751Y-122705189D01*
X188043407Y-122535504D01*
X188424120Y-122459776D01*
X188478295Y-122449000D01*
X188921705Y-122449000D01*
X188975880Y-122459776D01*
G37*
G36*
X97575880Y-122459776D02*
G01*
X97956593Y-122535504D01*
X98366249Y-122705189D01*
X98734929Y-122951534D01*
X99048466Y-123265071D01*
X99294811Y-123633751D01*
X99464496Y-124043407D01*
X99551000Y-124478296D01*
X99551000Y-124921704D01*
X99464496Y-125356593D01*
X99294811Y-125766249D01*
X99048466Y-126134929D01*
X98734929Y-126448466D01*
X98366249Y-126694811D01*
X97956593Y-126864496D01*
X97575880Y-126940224D01*
X97521705Y-126951000D01*
X97078295Y-126951000D01*
X97024120Y-126940224D01*
X96643407Y-126864496D01*
X96233751Y-126694811D01*
X95865071Y-126448466D01*
X95551534Y-126134929D01*
X95305189Y-125766249D01*
X95135504Y-125356593D01*
X95049000Y-124921704D01*
X95049000Y-124478296D01*
X95135504Y-124043407D01*
X95305189Y-123633751D01*
X95551534Y-123265071D01*
X95865071Y-122951534D01*
X96233751Y-122705189D01*
X96643407Y-122535504D01*
X97024120Y-122459776D01*
X97078295Y-122449000D01*
X97521705Y-122449000D01*
X97575880Y-122459776D01*
G37*
G36*
X139326823Y-123011313D02*
G01*
X139487242Y-123059976D01*
X139619906Y-123130886D01*
X139635078Y-123138996D01*
X139764659Y-123245341D01*
X139871004Y-123374922D01*
X139871005Y-123374924D01*
X139950024Y-123522758D01*
X139998687Y-123683177D01*
X140015117Y-123850000D01*
X139998687Y-124016823D01*
X139950024Y-124177242D01*
X139884943Y-124299000D01*
X139871004Y-124325078D01*
X139764659Y-124454659D01*
X139635078Y-124561004D01*
X139635076Y-124561005D01*
X139487242Y-124640024D01*
X139326823Y-124688687D01*
X139201804Y-124701000D01*
X138318196Y-124701000D01*
X138193177Y-124688687D01*
X138032758Y-124640024D01*
X137884924Y-124561005D01*
X137884922Y-124561004D01*
X137755341Y-124454659D01*
X137648996Y-124325078D01*
X137635057Y-124299000D01*
X137569976Y-124177242D01*
X137521313Y-124016823D01*
X137504883Y-123850000D01*
X137521313Y-123683177D01*
X137569976Y-123522758D01*
X137648995Y-123374924D01*
X137648996Y-123374922D01*
X137755341Y-123245341D01*
X137884922Y-123138996D01*
X137900094Y-123130886D01*
X138032758Y-123059976D01*
X138193177Y-123011313D01*
X138318196Y-122999000D01*
X139201804Y-122999000D01*
X139326823Y-123011313D01*
G37*
G36*
X146946823Y-123011313D02*
G01*
X147107242Y-123059976D01*
X147239906Y-123130886D01*
X147255078Y-123138996D01*
X147384659Y-123245341D01*
X147491004Y-123374922D01*
X147491005Y-123374924D01*
X147570024Y-123522758D01*
X147618687Y-123683177D01*
X147635117Y-123850000D01*
X147618687Y-124016823D01*
X147570024Y-124177242D01*
X147504943Y-124299000D01*
X147491004Y-124325078D01*
X147384659Y-124454659D01*
X147255078Y-124561004D01*
X147255076Y-124561005D01*
X147107242Y-124640024D01*
X146946823Y-124688687D01*
X146821804Y-124701000D01*
X145938196Y-124701000D01*
X145813177Y-124688687D01*
X145652758Y-124640024D01*
X145504924Y-124561005D01*
X145504922Y-124561004D01*
X145375341Y-124454659D01*
X145268996Y-124325078D01*
X145255057Y-124299000D01*
X145189976Y-124177242D01*
X145141313Y-124016823D01*
X145124883Y-123850000D01*
X145141313Y-123683177D01*
X145189976Y-123522758D01*
X145268995Y-123374924D01*
X145268996Y-123374922D01*
X145375341Y-123245341D01*
X145504922Y-123138996D01*
X145520094Y-123130886D01*
X145652758Y-123059976D01*
X145813177Y-123011313D01*
X145938196Y-122999000D01*
X146821804Y-122999000D01*
X146946823Y-123011313D01*
G37*
G36*
X172446823Y-122991313D02*
G01*
X172607242Y-123039976D01*
X172644657Y-123059975D01*
X172755078Y-123118996D01*
X172884659Y-123225341D01*
X172991004Y-123354922D01*
X172991005Y-123354924D01*
X173070024Y-123502758D01*
X173118687Y-123663177D01*
X173135117Y-123830000D01*
X173118687Y-123996823D01*
X173070024Y-124157242D01*
X172999114Y-124289906D01*
X172991004Y-124305078D01*
X172884659Y-124434659D01*
X172755078Y-124541004D01*
X172755076Y-124541005D01*
X172607242Y-124620024D01*
X172446823Y-124668687D01*
X172321804Y-124681000D01*
X171438196Y-124681000D01*
X171313177Y-124668687D01*
X171152758Y-124620024D01*
X171004924Y-124541005D01*
X171004922Y-124541004D01*
X170875341Y-124434659D01*
X170768996Y-124305078D01*
X170760886Y-124289906D01*
X170689976Y-124157242D01*
X170641313Y-123996823D01*
X170624883Y-123830000D01*
X170641313Y-123663177D01*
X170689976Y-123502758D01*
X170768995Y-123354924D01*
X170768996Y-123354922D01*
X170875341Y-123225341D01*
X171004922Y-123118996D01*
X171115343Y-123059975D01*
X171152758Y-123039976D01*
X171313177Y-122991313D01*
X171438196Y-122979000D01*
X172321804Y-122979000D01*
X172446823Y-122991313D01*
G37*
G36*
X180066823Y-122991313D02*
G01*
X180227242Y-123039976D01*
X180264657Y-123059975D01*
X180375078Y-123118996D01*
X180504659Y-123225341D01*
X180611004Y-123354922D01*
X180611005Y-123354924D01*
X180690024Y-123502758D01*
X180738687Y-123663177D01*
X180755117Y-123830000D01*
X180738687Y-123996823D01*
X180690024Y-124157242D01*
X180619114Y-124289906D01*
X180611004Y-124305078D01*
X180504659Y-124434659D01*
X180375078Y-124541004D01*
X180375076Y-124541005D01*
X180227242Y-124620024D01*
X180066823Y-124668687D01*
X179941804Y-124681000D01*
X179058196Y-124681000D01*
X178933177Y-124668687D01*
X178772758Y-124620024D01*
X178624924Y-124541005D01*
X178624922Y-124541004D01*
X178495341Y-124434659D01*
X178388996Y-124305078D01*
X178380886Y-124289906D01*
X178309976Y-124157242D01*
X178261313Y-123996823D01*
X178244883Y-123830000D01*
X178261313Y-123663177D01*
X178309976Y-123502758D01*
X178388995Y-123354924D01*
X178388996Y-123354922D01*
X178495341Y-123225341D01*
X178624922Y-123118996D01*
X178735343Y-123059975D01*
X178772758Y-123039976D01*
X178933177Y-122991313D01*
X179058196Y-122979000D01*
X179941804Y-122979000D01*
X180066823Y-122991313D01*
G37*
G36*
X123336564Y-120689389D02*
G01*
X123527833Y-120768615D01*
X123527835Y-120768616D01*
X123699973Y-120883635D01*
X123846365Y-121030027D01*
X123908605Y-121123175D01*
X123961385Y-121202167D01*
X124040611Y-121393436D01*
X124081000Y-121596484D01*
X124081000Y-121803516D01*
X124040611Y-122006564D01*
X123961385Y-122197833D01*
X123961384Y-122197835D01*
X123846365Y-122369973D01*
X123699973Y-122516365D01*
X123527835Y-122631384D01*
X123527834Y-122631385D01*
X123527833Y-122631385D01*
X123336564Y-122710611D01*
X123133516Y-122751000D01*
X122926484Y-122751000D01*
X122723436Y-122710611D01*
X122532167Y-122631385D01*
X122532166Y-122631385D01*
X122532165Y-122631384D01*
X122360027Y-122516365D01*
X122213635Y-122369973D01*
X122098616Y-122197835D01*
X122098615Y-122197833D01*
X122019389Y-122006564D01*
X121979000Y-121803516D01*
X121979000Y-121596484D01*
X122019389Y-121393436D01*
X122098615Y-121202167D01*
X122151396Y-121123175D01*
X122213635Y-121030027D01*
X122360027Y-120883635D01*
X122532165Y-120768616D01*
X122532167Y-120768615D01*
X122723436Y-120689389D01*
X122926484Y-120649000D01*
X123133516Y-120649000D01*
X123336564Y-120689389D01*
G37*
G36*
X120796564Y-120689389D02*
G01*
X120987833Y-120768615D01*
X120987835Y-120768616D01*
X121159973Y-120883635D01*
X121306365Y-121030027D01*
X121368605Y-121123175D01*
X121421385Y-121202167D01*
X121500611Y-121393436D01*
X121541000Y-121596484D01*
X121541000Y-121803516D01*
X121500611Y-122006564D01*
X121421385Y-122197833D01*
X121421384Y-122197835D01*
X121306365Y-122369973D01*
X121159973Y-122516365D01*
X120987835Y-122631384D01*
X120987834Y-122631385D01*
X120987833Y-122631385D01*
X120796564Y-122710611D01*
X120593516Y-122751000D01*
X120386484Y-122751000D01*
X120183436Y-122710611D01*
X119992167Y-122631385D01*
X119992166Y-122631385D01*
X119992165Y-122631384D01*
X119820027Y-122516365D01*
X119673635Y-122369973D01*
X119558616Y-122197835D01*
X119558615Y-122197833D01*
X119479389Y-122006564D01*
X119439000Y-121803516D01*
X119439000Y-121596484D01*
X119479389Y-121393436D01*
X119558615Y-121202167D01*
X119611396Y-121123175D01*
X119673635Y-121030027D01*
X119820027Y-120883635D01*
X119992165Y-120768616D01*
X119992167Y-120768615D01*
X120183436Y-120689389D01*
X120386484Y-120649000D01*
X120593516Y-120649000D01*
X120796564Y-120689389D01*
G37*
G36*
X118256564Y-120689389D02*
G01*
X118447833Y-120768615D01*
X118447835Y-120768616D01*
X118619973Y-120883635D01*
X118766365Y-121030027D01*
X118828605Y-121123175D01*
X118881385Y-121202167D01*
X118960611Y-121393436D01*
X119001000Y-121596484D01*
X119001000Y-121803516D01*
X118960611Y-122006564D01*
X118881385Y-122197833D01*
X118881384Y-122197835D01*
X118766365Y-122369973D01*
X118619973Y-122516365D01*
X118447835Y-122631384D01*
X118447834Y-122631385D01*
X118447833Y-122631385D01*
X118256564Y-122710611D01*
X118053516Y-122751000D01*
X117846484Y-122751000D01*
X117643436Y-122710611D01*
X117452167Y-122631385D01*
X117452166Y-122631385D01*
X117452165Y-122631384D01*
X117280027Y-122516365D01*
X117133635Y-122369973D01*
X117018616Y-122197835D01*
X117018615Y-122197833D01*
X116939389Y-122006564D01*
X116899000Y-121803516D01*
X116899000Y-121596484D01*
X116939389Y-121393436D01*
X117018615Y-121202167D01*
X117071396Y-121123175D01*
X117133635Y-121030027D01*
X117280027Y-120883635D01*
X117452165Y-120768616D01*
X117452167Y-120768615D01*
X117643436Y-120689389D01*
X117846484Y-120649000D01*
X118053516Y-120649000D01*
X118256564Y-120689389D01*
G37*
G36*
X115716564Y-120689389D02*
G01*
X115907833Y-120768615D01*
X115907835Y-120768616D01*
X116079973Y-120883635D01*
X116226365Y-121030027D01*
X116288605Y-121123175D01*
X116341385Y-121202167D01*
X116420611Y-121393436D01*
X116461000Y-121596484D01*
X116461000Y-121803516D01*
X116420611Y-122006564D01*
X116341385Y-122197833D01*
X116341384Y-122197835D01*
X116226365Y-122369973D01*
X116079973Y-122516365D01*
X115907835Y-122631384D01*
X115907834Y-122631385D01*
X115907833Y-122631385D01*
X115716564Y-122710611D01*
X115513516Y-122751000D01*
X115306484Y-122751000D01*
X115103436Y-122710611D01*
X114912167Y-122631385D01*
X114912166Y-122631385D01*
X114912165Y-122631384D01*
X114740027Y-122516365D01*
X114593635Y-122369973D01*
X114478616Y-122197835D01*
X114478615Y-122197833D01*
X114399389Y-122006564D01*
X114359000Y-121803516D01*
X114359000Y-121596484D01*
X114399389Y-121393436D01*
X114478615Y-121202167D01*
X114531396Y-121123175D01*
X114593635Y-121030027D01*
X114740027Y-120883635D01*
X114912165Y-120768616D01*
X114912167Y-120768615D01*
X115103436Y-120689389D01*
X115306484Y-120649000D01*
X115513516Y-120649000D01*
X115716564Y-120689389D01*
G37*
G36*
X113176564Y-120689389D02*
G01*
X113367833Y-120768615D01*
X113367835Y-120768616D01*
X113539973Y-120883635D01*
X113686365Y-121030027D01*
X113748605Y-121123175D01*
X113801385Y-121202167D01*
X113880611Y-121393436D01*
X113921000Y-121596484D01*
X113921000Y-121803516D01*
X113880611Y-122006564D01*
X113801385Y-122197833D01*
X113801384Y-122197835D01*
X113686365Y-122369973D01*
X113539973Y-122516365D01*
X113367835Y-122631384D01*
X113367834Y-122631385D01*
X113367833Y-122631385D01*
X113176564Y-122710611D01*
X112973516Y-122751000D01*
X112766484Y-122751000D01*
X112563436Y-122710611D01*
X112372167Y-122631385D01*
X112372166Y-122631385D01*
X112372165Y-122631384D01*
X112200027Y-122516365D01*
X112053635Y-122369973D01*
X111938616Y-122197835D01*
X111938615Y-122197833D01*
X111859389Y-122006564D01*
X111819000Y-121803516D01*
X111819000Y-121596484D01*
X111859389Y-121393436D01*
X111938615Y-121202167D01*
X111991396Y-121123175D01*
X112053635Y-121030027D01*
X112200027Y-120883635D01*
X112372165Y-120768616D01*
X112372167Y-120768615D01*
X112563436Y-120689389D01*
X112766484Y-120649000D01*
X112973516Y-120649000D01*
X113176564Y-120689389D01*
G37*
G36*
X110636564Y-120689389D02*
G01*
X110827833Y-120768615D01*
X110827835Y-120768616D01*
X110999973Y-120883635D01*
X111146365Y-121030027D01*
X111208605Y-121123175D01*
X111261385Y-121202167D01*
X111340611Y-121393436D01*
X111381000Y-121596484D01*
X111381000Y-121803516D01*
X111340611Y-122006564D01*
X111261385Y-122197833D01*
X111261384Y-122197835D01*
X111146365Y-122369973D01*
X110999973Y-122516365D01*
X110827835Y-122631384D01*
X110827834Y-122631385D01*
X110827833Y-122631385D01*
X110636564Y-122710611D01*
X110433516Y-122751000D01*
X110226484Y-122751000D01*
X110023436Y-122710611D01*
X109832167Y-122631385D01*
X109832166Y-122631385D01*
X109832165Y-122631384D01*
X109660027Y-122516365D01*
X109513635Y-122369973D01*
X109398616Y-122197835D01*
X109398615Y-122197833D01*
X109319389Y-122006564D01*
X109279000Y-121803516D01*
X109279000Y-121596484D01*
X109319389Y-121393436D01*
X109398615Y-121202167D01*
X109451396Y-121123175D01*
X109513635Y-121030027D01*
X109660027Y-120883635D01*
X109832165Y-120768616D01*
X109832167Y-120768615D01*
X110023436Y-120689389D01*
X110226484Y-120649000D01*
X110433516Y-120649000D01*
X110636564Y-120689389D01*
G37*
G36*
X108096564Y-120689389D02*
G01*
X108287833Y-120768615D01*
X108287835Y-120768616D01*
X108459973Y-120883635D01*
X108606365Y-121030027D01*
X108668605Y-121123175D01*
X108721385Y-121202167D01*
X108800611Y-121393436D01*
X108841000Y-121596484D01*
X108841000Y-121803516D01*
X108800611Y-122006564D01*
X108721385Y-122197833D01*
X108721384Y-122197835D01*
X108606365Y-122369973D01*
X108459973Y-122516365D01*
X108287835Y-122631384D01*
X108287834Y-122631385D01*
X108287833Y-122631385D01*
X108096564Y-122710611D01*
X107893516Y-122751000D01*
X107686484Y-122751000D01*
X107483436Y-122710611D01*
X107292167Y-122631385D01*
X107292166Y-122631385D01*
X107292165Y-122631384D01*
X107120027Y-122516365D01*
X106973635Y-122369973D01*
X106858616Y-122197835D01*
X106858615Y-122197833D01*
X106779389Y-122006564D01*
X106739000Y-121803516D01*
X106739000Y-121596484D01*
X106779389Y-121393436D01*
X106858615Y-121202167D01*
X106911396Y-121123175D01*
X106973635Y-121030027D01*
X107120027Y-120883635D01*
X107292165Y-120768616D01*
X107292167Y-120768615D01*
X107483436Y-120689389D01*
X107686484Y-120649000D01*
X107893516Y-120649000D01*
X108096564Y-120689389D01*
G37*
G36*
X105556564Y-120689389D02*
G01*
X105747833Y-120768615D01*
X105747835Y-120768616D01*
X105919973Y-120883635D01*
X106066365Y-121030027D01*
X106128605Y-121123175D01*
X106181385Y-121202167D01*
X106260611Y-121393436D01*
X106301000Y-121596484D01*
X106301000Y-121803516D01*
X106260611Y-122006564D01*
X106181385Y-122197833D01*
X106181384Y-122197835D01*
X106066365Y-122369973D01*
X105919973Y-122516365D01*
X105747835Y-122631384D01*
X105747834Y-122631385D01*
X105747833Y-122631385D01*
X105556564Y-122710611D01*
X105353516Y-122751000D01*
X105146484Y-122751000D01*
X104943436Y-122710611D01*
X104752167Y-122631385D01*
X104752166Y-122631385D01*
X104752165Y-122631384D01*
X104580027Y-122516365D01*
X104433635Y-122369973D01*
X104318616Y-122197835D01*
X104318615Y-122197833D01*
X104239389Y-122006564D01*
X104199000Y-121803516D01*
X104199000Y-121596484D01*
X104239389Y-121393436D01*
X104318615Y-121202167D01*
X104371396Y-121123175D01*
X104433635Y-121030027D01*
X104580027Y-120883635D01*
X104752165Y-120768616D01*
X104752167Y-120768615D01*
X104943436Y-120689389D01*
X105146484Y-120649000D01*
X105353516Y-120649000D01*
X105556564Y-120689389D01*
G37*
G36*
X103016564Y-120689389D02*
G01*
X103207833Y-120768615D01*
X103207835Y-120768616D01*
X103379973Y-120883635D01*
X103526365Y-121030027D01*
X103588605Y-121123175D01*
X103641385Y-121202167D01*
X103720611Y-121393436D01*
X103761000Y-121596484D01*
X103761000Y-121803516D01*
X103720611Y-122006564D01*
X103641385Y-122197833D01*
X103641384Y-122197835D01*
X103526365Y-122369973D01*
X103379973Y-122516365D01*
X103207835Y-122631384D01*
X103207834Y-122631385D01*
X103207833Y-122631385D01*
X103016564Y-122710611D01*
X102813516Y-122751000D01*
X102606484Y-122751000D01*
X102403436Y-122710611D01*
X102212167Y-122631385D01*
X102212166Y-122631385D01*
X102212165Y-122631384D01*
X102040027Y-122516365D01*
X101893635Y-122369973D01*
X101778616Y-122197835D01*
X101778615Y-122197833D01*
X101699389Y-122006564D01*
X101659000Y-121803516D01*
X101659000Y-121596484D01*
X101699389Y-121393436D01*
X101778615Y-121202167D01*
X101831396Y-121123175D01*
X101893635Y-121030027D01*
X102040027Y-120883635D01*
X102212165Y-120768616D01*
X102212167Y-120768615D01*
X102403436Y-120689389D01*
X102606484Y-120649000D01*
X102813516Y-120649000D01*
X103016564Y-120689389D01*
G37*
G36*
X101221000Y-122751000D02*
G01*
X99119000Y-122751000D01*
X99119000Y-120649000D01*
X101221000Y-120649000D01*
X101221000Y-122751000D01*
G37*
G36*
X146946823Y-120471313D02*
G01*
X147107242Y-120519976D01*
X147239906Y-120590886D01*
X147255078Y-120598996D01*
X147384659Y-120705341D01*
X147491004Y-120834922D01*
X147491005Y-120834924D01*
X147570024Y-120982758D01*
X147618687Y-121143177D01*
X147635117Y-121310000D01*
X147618687Y-121476823D01*
X147570024Y-121637242D01*
X147501695Y-121765076D01*
X147491004Y-121785078D01*
X147384659Y-121914659D01*
X147255078Y-122021004D01*
X147255076Y-122021005D01*
X147107242Y-122100024D01*
X146946823Y-122148687D01*
X146821804Y-122161000D01*
X145938196Y-122161000D01*
X145813177Y-122148687D01*
X145652758Y-122100024D01*
X145504924Y-122021005D01*
X145504922Y-122021004D01*
X145375341Y-121914659D01*
X145268996Y-121785078D01*
X145258305Y-121765076D01*
X145189976Y-121637242D01*
X145141313Y-121476823D01*
X145124883Y-121310000D01*
X145141313Y-121143177D01*
X145189976Y-120982758D01*
X145268995Y-120834924D01*
X145268996Y-120834922D01*
X145375341Y-120705341D01*
X145504922Y-120598996D01*
X145520094Y-120590886D01*
X145652758Y-120519976D01*
X145813177Y-120471313D01*
X145938196Y-120459000D01*
X146821804Y-120459000D01*
X146946823Y-120471313D01*
G37*
G36*
X139326823Y-120471313D02*
G01*
X139487242Y-120519976D01*
X139619906Y-120590886D01*
X139635078Y-120598996D01*
X139764659Y-120705341D01*
X139871004Y-120834922D01*
X139871005Y-120834924D01*
X139950024Y-120982758D01*
X139998687Y-121143177D01*
X140015117Y-121310000D01*
X139998687Y-121476823D01*
X139950024Y-121637242D01*
X139881695Y-121765076D01*
X139871004Y-121785078D01*
X139764659Y-121914659D01*
X139635078Y-122021004D01*
X139635076Y-122021005D01*
X139487242Y-122100024D01*
X139326823Y-122148687D01*
X139201804Y-122161000D01*
X138318196Y-122161000D01*
X138193177Y-122148687D01*
X138032758Y-122100024D01*
X137884924Y-122021005D01*
X137884922Y-122021004D01*
X137755341Y-121914659D01*
X137648996Y-121785078D01*
X137638305Y-121765076D01*
X137569976Y-121637242D01*
X137521313Y-121476823D01*
X137504883Y-121310000D01*
X137521313Y-121143177D01*
X137569976Y-120982758D01*
X137648995Y-120834924D01*
X137648996Y-120834922D01*
X137755341Y-120705341D01*
X137884922Y-120598996D01*
X137900094Y-120590886D01*
X138032758Y-120519976D01*
X138193177Y-120471313D01*
X138318196Y-120459000D01*
X139201804Y-120459000D01*
X139326823Y-120471313D01*
G37*
G36*
X180066823Y-120451313D02*
G01*
X180227242Y-120499976D01*
X180264657Y-120519975D01*
X180375078Y-120578996D01*
X180504659Y-120685341D01*
X180611004Y-120814922D01*
X180611005Y-120814924D01*
X180690024Y-120962758D01*
X180738687Y-121123177D01*
X180755117Y-121290000D01*
X180738687Y-121456823D01*
X180690024Y-121617242D01*
X180619114Y-121749906D01*
X180611004Y-121765078D01*
X180504659Y-121894659D01*
X180375078Y-122001004D01*
X180375076Y-122001005D01*
X180227242Y-122080024D01*
X180066823Y-122128687D01*
X179941804Y-122141000D01*
X179058196Y-122141000D01*
X178933177Y-122128687D01*
X178772758Y-122080024D01*
X178624924Y-122001005D01*
X178624922Y-122001004D01*
X178495341Y-121894659D01*
X178388996Y-121765078D01*
X178380886Y-121749906D01*
X178309976Y-121617242D01*
X178261313Y-121456823D01*
X178244883Y-121290000D01*
X178261313Y-121123177D01*
X178309976Y-120962758D01*
X178388995Y-120814924D01*
X178388996Y-120814922D01*
X178495341Y-120685341D01*
X178624922Y-120578996D01*
X178735343Y-120519975D01*
X178772758Y-120499976D01*
X178933177Y-120451313D01*
X179058196Y-120439000D01*
X179941804Y-120439000D01*
X180066823Y-120451313D01*
G37*
G36*
X172446823Y-120451313D02*
G01*
X172607242Y-120499976D01*
X172644657Y-120519975D01*
X172755078Y-120578996D01*
X172884659Y-120685341D01*
X172991004Y-120814922D01*
X172991005Y-120814924D01*
X173070024Y-120962758D01*
X173118687Y-121123177D01*
X173135117Y-121290000D01*
X173118687Y-121456823D01*
X173070024Y-121617242D01*
X172999114Y-121749906D01*
X172991004Y-121765078D01*
X172884659Y-121894659D01*
X172755078Y-122001004D01*
X172755076Y-122001005D01*
X172607242Y-122080024D01*
X172446823Y-122128687D01*
X172321804Y-122141000D01*
X171438196Y-122141000D01*
X171313177Y-122128687D01*
X171152758Y-122080024D01*
X171004924Y-122001005D01*
X171004922Y-122001004D01*
X170875341Y-121894659D01*
X170768996Y-121765078D01*
X170760886Y-121749906D01*
X170689976Y-121617242D01*
X170641313Y-121456823D01*
X170624883Y-121290000D01*
X170641313Y-121123177D01*
X170689976Y-120962758D01*
X170768995Y-120814924D01*
X170768996Y-120814922D01*
X170875341Y-120685341D01*
X171004922Y-120578996D01*
X171115343Y-120519975D01*
X171152758Y-120499976D01*
X171313177Y-120451313D01*
X171438196Y-120439000D01*
X172321804Y-120439000D01*
X172446823Y-120451313D01*
G37*
G36*
X139326823Y-117931313D02*
G01*
X139487242Y-117979976D01*
X139619906Y-118050886D01*
X139635078Y-118058996D01*
X139764659Y-118165341D01*
X139871004Y-118294922D01*
X139871005Y-118294924D01*
X139950024Y-118442758D01*
X139998687Y-118603177D01*
X140015117Y-118770000D01*
X139998687Y-118936823D01*
X139950024Y-119097242D01*
X139881695Y-119225076D01*
X139871004Y-119245078D01*
X139764659Y-119374659D01*
X139635078Y-119481004D01*
X139635076Y-119481005D01*
X139487242Y-119560024D01*
X139326823Y-119608687D01*
X139201804Y-119621000D01*
X138318196Y-119621000D01*
X138193177Y-119608687D01*
X138032758Y-119560024D01*
X137884924Y-119481005D01*
X137884922Y-119481004D01*
X137755341Y-119374659D01*
X137648996Y-119245078D01*
X137638305Y-119225076D01*
X137569976Y-119097242D01*
X137521313Y-118936823D01*
X137504883Y-118770000D01*
X137521313Y-118603177D01*
X137569976Y-118442758D01*
X137648995Y-118294924D01*
X137648996Y-118294922D01*
X137755341Y-118165341D01*
X137884922Y-118058996D01*
X137900094Y-118050886D01*
X138032758Y-117979976D01*
X138193177Y-117931313D01*
X138318196Y-117919000D01*
X139201804Y-117919000D01*
X139326823Y-117931313D01*
G37*
G36*
X146946823Y-117931313D02*
G01*
X147107242Y-117979976D01*
X147239906Y-118050886D01*
X147255078Y-118058996D01*
X147384659Y-118165341D01*
X147491004Y-118294922D01*
X147491005Y-118294924D01*
X147570024Y-118442758D01*
X147618687Y-118603177D01*
X147635117Y-118770000D01*
X147618687Y-118936823D01*
X147570024Y-119097242D01*
X147501695Y-119225076D01*
X147491004Y-119245078D01*
X147384659Y-119374659D01*
X147255078Y-119481004D01*
X147255076Y-119481005D01*
X147107242Y-119560024D01*
X146946823Y-119608687D01*
X146821804Y-119621000D01*
X145938196Y-119621000D01*
X145813177Y-119608687D01*
X145652758Y-119560024D01*
X145504924Y-119481005D01*
X145504922Y-119481004D01*
X145375341Y-119374659D01*
X145268996Y-119245078D01*
X145258305Y-119225076D01*
X145189976Y-119097242D01*
X145141313Y-118936823D01*
X145124883Y-118770000D01*
X145141313Y-118603177D01*
X145189976Y-118442758D01*
X145268995Y-118294924D01*
X145268996Y-118294922D01*
X145375341Y-118165341D01*
X145504922Y-118058996D01*
X145520094Y-118050886D01*
X145652758Y-117979976D01*
X145813177Y-117931313D01*
X145938196Y-117919000D01*
X146821804Y-117919000D01*
X146946823Y-117931313D01*
G37*
G36*
X180066823Y-117911313D02*
G01*
X180227242Y-117959976D01*
X180264657Y-117979975D01*
X180375078Y-118038996D01*
X180504659Y-118145341D01*
X180611004Y-118274922D01*
X180611005Y-118274924D01*
X180690024Y-118422758D01*
X180738687Y-118583177D01*
X180755117Y-118750000D01*
X180738687Y-118916823D01*
X180690024Y-119077242D01*
X180619114Y-119209906D01*
X180611004Y-119225078D01*
X180504659Y-119354659D01*
X180375078Y-119461004D01*
X180375076Y-119461005D01*
X180227242Y-119540024D01*
X180066823Y-119588687D01*
X179941804Y-119601000D01*
X179058196Y-119601000D01*
X178933177Y-119588687D01*
X178772758Y-119540024D01*
X178624924Y-119461005D01*
X178624922Y-119461004D01*
X178495341Y-119354659D01*
X178388996Y-119225078D01*
X178380886Y-119209906D01*
X178309976Y-119077242D01*
X178261313Y-118916823D01*
X178244883Y-118750000D01*
X178261313Y-118583177D01*
X178309976Y-118422758D01*
X178388995Y-118274924D01*
X178388996Y-118274922D01*
X178495341Y-118145341D01*
X178624922Y-118038996D01*
X178735343Y-117979975D01*
X178772758Y-117959976D01*
X178933177Y-117911313D01*
X179058196Y-117899000D01*
X179941804Y-117899000D01*
X180066823Y-117911313D01*
G37*
G36*
X172446823Y-117911313D02*
G01*
X172607242Y-117959976D01*
X172644657Y-117979975D01*
X172755078Y-118038996D01*
X172884659Y-118145341D01*
X172991004Y-118274922D01*
X172991005Y-118274924D01*
X173070024Y-118422758D01*
X173118687Y-118583177D01*
X173135117Y-118750000D01*
X173118687Y-118916823D01*
X173070024Y-119077242D01*
X172999114Y-119209906D01*
X172991004Y-119225078D01*
X172884659Y-119354659D01*
X172755078Y-119461004D01*
X172755076Y-119461005D01*
X172607242Y-119540024D01*
X172446823Y-119588687D01*
X172321804Y-119601000D01*
X171438196Y-119601000D01*
X171313177Y-119588687D01*
X171152758Y-119540024D01*
X171004924Y-119461005D01*
X171004922Y-119461004D01*
X170875341Y-119354659D01*
X170768996Y-119225078D01*
X170760886Y-119209906D01*
X170689976Y-119077242D01*
X170641313Y-118916823D01*
X170624883Y-118750000D01*
X170641313Y-118583177D01*
X170689976Y-118422758D01*
X170768995Y-118274924D01*
X170768996Y-118274922D01*
X170875341Y-118145341D01*
X171004922Y-118038996D01*
X171115343Y-117979975D01*
X171152758Y-117959976D01*
X171313177Y-117911313D01*
X171438196Y-117899000D01*
X172321804Y-117899000D01*
X172446823Y-117911313D01*
G37*
G36*
X146946823Y-115391313D02*
G01*
X147107242Y-115439976D01*
X147239906Y-115510886D01*
X147255078Y-115518996D01*
X147384659Y-115625341D01*
X147491004Y-115754922D01*
X147491005Y-115754924D01*
X147570024Y-115902758D01*
X147618687Y-116063177D01*
X147635117Y-116230000D01*
X147618687Y-116396823D01*
X147570024Y-116557242D01*
X147501695Y-116685076D01*
X147491004Y-116705078D01*
X147384659Y-116834659D01*
X147255078Y-116941004D01*
X147255076Y-116941005D01*
X147107242Y-117020024D01*
X146946823Y-117068687D01*
X146821804Y-117081000D01*
X145938196Y-117081000D01*
X145813177Y-117068687D01*
X145652758Y-117020024D01*
X145504924Y-116941005D01*
X145504922Y-116941004D01*
X145375341Y-116834659D01*
X145268996Y-116705078D01*
X145258305Y-116685076D01*
X145189976Y-116557242D01*
X145141313Y-116396823D01*
X145124883Y-116230000D01*
X145141313Y-116063177D01*
X145189976Y-115902758D01*
X145268995Y-115754924D01*
X145268996Y-115754922D01*
X145375341Y-115625341D01*
X145504922Y-115518996D01*
X145520094Y-115510886D01*
X145652758Y-115439976D01*
X145813177Y-115391313D01*
X145938196Y-115379000D01*
X146821804Y-115379000D01*
X146946823Y-115391313D01*
G37*
G36*
X140011000Y-117081000D02*
G01*
X137509000Y-117081000D01*
X137509000Y-115379000D01*
X140011000Y-115379000D01*
X140011000Y-117081000D01*
G37*
G36*
X180066823Y-115371313D02*
G01*
X180227242Y-115419976D01*
X180264657Y-115439975D01*
X180375078Y-115498996D01*
X180504659Y-115605341D01*
X180611004Y-115734922D01*
X180611005Y-115734924D01*
X180690024Y-115882758D01*
X180738687Y-116043177D01*
X180755117Y-116210000D01*
X180738687Y-116376823D01*
X180690024Y-116537242D01*
X180619114Y-116669906D01*
X180611004Y-116685078D01*
X180504659Y-116814659D01*
X180375078Y-116921004D01*
X180375076Y-116921005D01*
X180227242Y-117000024D01*
X180066823Y-117048687D01*
X179941804Y-117061000D01*
X179058196Y-117061000D01*
X178933177Y-117048687D01*
X178772758Y-117000024D01*
X178624924Y-116921005D01*
X178624922Y-116921004D01*
X178495341Y-116814659D01*
X178388996Y-116685078D01*
X178380886Y-116669906D01*
X178309976Y-116537242D01*
X178261313Y-116376823D01*
X178244883Y-116210000D01*
X178261313Y-116043177D01*
X178309976Y-115882758D01*
X178388995Y-115734924D01*
X178388996Y-115734922D01*
X178495341Y-115605341D01*
X178624922Y-115498996D01*
X178735343Y-115439975D01*
X178772758Y-115419976D01*
X178933177Y-115371313D01*
X179058196Y-115359000D01*
X179941804Y-115359000D01*
X180066823Y-115371313D01*
G37*
G36*
X173131000Y-117061000D02*
G01*
X170629000Y-117061000D01*
X170629000Y-115359000D01*
X173131000Y-115359000D01*
X173131000Y-117061000D01*
G37*
G36*
X112983512Y-112443927D02*
G01*
X113132812Y-112473624D01*
X113296784Y-112541544D01*
X113444354Y-112640147D01*
X113569853Y-112765646D01*
X113668456Y-112913216D01*
X113736376Y-113077188D01*
X113771000Y-113251259D01*
X113771000Y-113428741D01*
X113736376Y-113602812D01*
X113668456Y-113766784D01*
X113569853Y-113914354D01*
X113444354Y-114039853D01*
X113296784Y-114138456D01*
X113132812Y-114206376D01*
X112983512Y-114236073D01*
X112958742Y-114241000D01*
X112781258Y-114241000D01*
X112756488Y-114236073D01*
X112607188Y-114206376D01*
X112443216Y-114138456D01*
X112295646Y-114039853D01*
X112170147Y-113914354D01*
X112071544Y-113766784D01*
X112003624Y-113602812D01*
X111969000Y-113428741D01*
X111969000Y-113251259D01*
X112003624Y-113077188D01*
X112071544Y-112913216D01*
X112170147Y-112765646D01*
X112295646Y-112640147D01*
X112443216Y-112541544D01*
X112607188Y-112473624D01*
X112756488Y-112443927D01*
X112781258Y-112439000D01*
X112958742Y-112439000D01*
X112983512Y-112443927D01*
G37*
G36*
X118063512Y-112443927D02*
G01*
X118212812Y-112473624D01*
X118376784Y-112541544D01*
X118524354Y-112640147D01*
X118649853Y-112765646D01*
X118748456Y-112913216D01*
X118816376Y-113077188D01*
X118851000Y-113251259D01*
X118851000Y-113428741D01*
X118816376Y-113602812D01*
X118748456Y-113766784D01*
X118649853Y-113914354D01*
X118524354Y-114039853D01*
X118376784Y-114138456D01*
X118212812Y-114206376D01*
X118063512Y-114236073D01*
X118038742Y-114241000D01*
X117861258Y-114241000D01*
X117836488Y-114236073D01*
X117687188Y-114206376D01*
X117523216Y-114138456D01*
X117375646Y-114039853D01*
X117250147Y-113914354D01*
X117151544Y-113766784D01*
X117083624Y-113602812D01*
X117049000Y-113428741D01*
X117049000Y-113251259D01*
X117083624Y-113077188D01*
X117151544Y-112913216D01*
X117250147Y-112765646D01*
X117375646Y-112640147D01*
X117523216Y-112541544D01*
X117687188Y-112473624D01*
X117836488Y-112443927D01*
X117861258Y-112439000D01*
X118038742Y-112439000D01*
X118063512Y-112443927D01*
G37*
G36*
X115523512Y-112443927D02*
G01*
X115672812Y-112473624D01*
X115836784Y-112541544D01*
X115984354Y-112640147D01*
X116109853Y-112765646D01*
X116208456Y-112913216D01*
X116276376Y-113077188D01*
X116311000Y-113251259D01*
X116311000Y-113428741D01*
X116276376Y-113602812D01*
X116208456Y-113766784D01*
X116109853Y-113914354D01*
X115984354Y-114039853D01*
X115836784Y-114138456D01*
X115672812Y-114206376D01*
X115523512Y-114236073D01*
X115498742Y-114241000D01*
X115321258Y-114241000D01*
X115296488Y-114236073D01*
X115147188Y-114206376D01*
X114983216Y-114138456D01*
X114835646Y-114039853D01*
X114710147Y-113914354D01*
X114611544Y-113766784D01*
X114543624Y-113602812D01*
X114509000Y-113428741D01*
X114509000Y-113251259D01*
X114543624Y-113077188D01*
X114611544Y-112913216D01*
X114710147Y-112765646D01*
X114835646Y-112640147D01*
X114983216Y-112541544D01*
X115147188Y-112473624D01*
X115296488Y-112443927D01*
X115321258Y-112439000D01*
X115498742Y-112439000D01*
X115523512Y-112443927D01*
G37*
G36*
X120603512Y-112443927D02*
G01*
X120752812Y-112473624D01*
X120916784Y-112541544D01*
X121064354Y-112640147D01*
X121189853Y-112765646D01*
X121288456Y-112913216D01*
X121356376Y-113077188D01*
X121391000Y-113251259D01*
X121391000Y-113428741D01*
X121356376Y-113602812D01*
X121288456Y-113766784D01*
X121189853Y-113914354D01*
X121064354Y-114039853D01*
X120916784Y-114138456D01*
X120752812Y-114206376D01*
X120603512Y-114236073D01*
X120578742Y-114241000D01*
X120401258Y-114241000D01*
X120376488Y-114236073D01*
X120227188Y-114206376D01*
X120063216Y-114138456D01*
X119915646Y-114039853D01*
X119790147Y-113914354D01*
X119691544Y-113766784D01*
X119623624Y-113602812D01*
X119589000Y-113428741D01*
X119589000Y-113251259D01*
X119623624Y-113077188D01*
X119691544Y-112913216D01*
X119790147Y-112765646D01*
X119915646Y-112640147D01*
X120063216Y-112541544D01*
X120227188Y-112473624D01*
X120376488Y-112443927D01*
X120401258Y-112439000D01*
X120578742Y-112439000D01*
X120603512Y-112443927D01*
G37*
G36*
X110443512Y-112443927D02*
G01*
X110592812Y-112473624D01*
X110756784Y-112541544D01*
X110904354Y-112640147D01*
X111029853Y-112765646D01*
X111128456Y-112913216D01*
X111196376Y-113077188D01*
X111231000Y-113251259D01*
X111231000Y-113428741D01*
X111196376Y-113602812D01*
X111128456Y-113766784D01*
X111029853Y-113914354D01*
X110904354Y-114039853D01*
X110756784Y-114138456D01*
X110592812Y-114206376D01*
X110443512Y-114236073D01*
X110418742Y-114241000D01*
X110241258Y-114241000D01*
X110216488Y-114236073D01*
X110067188Y-114206376D01*
X109903216Y-114138456D01*
X109755646Y-114039853D01*
X109630147Y-113914354D01*
X109531544Y-113766784D01*
X109463624Y-113602812D01*
X109429000Y-113428741D01*
X109429000Y-113251259D01*
X109463624Y-113077188D01*
X109531544Y-112913216D01*
X109630147Y-112765646D01*
X109755646Y-112640147D01*
X109903216Y-112541544D01*
X110067188Y-112473624D01*
X110216488Y-112443927D01*
X110241258Y-112439000D01*
X110418742Y-112439000D01*
X110443512Y-112443927D01*
G37*
G36*
X123143512Y-112443927D02*
G01*
X123292812Y-112473624D01*
X123456784Y-112541544D01*
X123604354Y-112640147D01*
X123729853Y-112765646D01*
X123828456Y-112913216D01*
X123896376Y-113077188D01*
X123931000Y-113251259D01*
X123931000Y-113428741D01*
X123896376Y-113602812D01*
X123828456Y-113766784D01*
X123729853Y-113914354D01*
X123604354Y-114039853D01*
X123456784Y-114138456D01*
X123292812Y-114206376D01*
X123143512Y-114236073D01*
X123118742Y-114241000D01*
X122941258Y-114241000D01*
X122916488Y-114236073D01*
X122767188Y-114206376D01*
X122603216Y-114138456D01*
X122455646Y-114039853D01*
X122330147Y-113914354D01*
X122231544Y-113766784D01*
X122163624Y-113602812D01*
X122129000Y-113428741D01*
X122129000Y-113251259D01*
X122163624Y-113077188D01*
X122231544Y-112913216D01*
X122330147Y-112765646D01*
X122455646Y-112640147D01*
X122603216Y-112541544D01*
X122767188Y-112473624D01*
X122916488Y-112443927D01*
X122941258Y-112439000D01*
X123118742Y-112439000D01*
X123143512Y-112443927D01*
G37*
G36*
X102823512Y-112443927D02*
G01*
X102972812Y-112473624D01*
X103136784Y-112541544D01*
X103284354Y-112640147D01*
X103409853Y-112765646D01*
X103508456Y-112913216D01*
X103576376Y-113077188D01*
X103611000Y-113251259D01*
X103611000Y-113428741D01*
X103576376Y-113602812D01*
X103508456Y-113766784D01*
X103409853Y-113914354D01*
X103284354Y-114039853D01*
X103136784Y-114138456D01*
X102972812Y-114206376D01*
X102823512Y-114236073D01*
X102798742Y-114241000D01*
X102621258Y-114241000D01*
X102596488Y-114236073D01*
X102447188Y-114206376D01*
X102283216Y-114138456D01*
X102135646Y-114039853D01*
X102010147Y-113914354D01*
X101911544Y-113766784D01*
X101843624Y-113602812D01*
X101809000Y-113428741D01*
X101809000Y-113251259D01*
X101843624Y-113077188D01*
X101911544Y-112913216D01*
X102010147Y-112765646D01*
X102135646Y-112640147D01*
X102283216Y-112541544D01*
X102447188Y-112473624D01*
X102596488Y-112443927D01*
X102621258Y-112439000D01*
X102798742Y-112439000D01*
X102823512Y-112443927D01*
G37*
G36*
X105363512Y-112443927D02*
G01*
X105512812Y-112473624D01*
X105676784Y-112541544D01*
X105824354Y-112640147D01*
X105949853Y-112765646D01*
X106048456Y-112913216D01*
X106116376Y-113077188D01*
X106151000Y-113251259D01*
X106151000Y-113428741D01*
X106116376Y-113602812D01*
X106048456Y-113766784D01*
X105949853Y-113914354D01*
X105824354Y-114039853D01*
X105676784Y-114138456D01*
X105512812Y-114206376D01*
X105363512Y-114236073D01*
X105338742Y-114241000D01*
X105161258Y-114241000D01*
X105136488Y-114236073D01*
X104987188Y-114206376D01*
X104823216Y-114138456D01*
X104675646Y-114039853D01*
X104550147Y-113914354D01*
X104451544Y-113766784D01*
X104383624Y-113602812D01*
X104349000Y-113428741D01*
X104349000Y-113251259D01*
X104383624Y-113077188D01*
X104451544Y-112913216D01*
X104550147Y-112765646D01*
X104675646Y-112640147D01*
X104823216Y-112541544D01*
X104987188Y-112473624D01*
X105136488Y-112443927D01*
X105161258Y-112439000D01*
X105338742Y-112439000D01*
X105363512Y-112443927D01*
G37*
G36*
X101071000Y-114241000D02*
G01*
X99269000Y-114241000D01*
X99269000Y-112439000D01*
X101071000Y-112439000D01*
X101071000Y-114241000D01*
G37*
G36*
X107903512Y-112443927D02*
G01*
X108052812Y-112473624D01*
X108216784Y-112541544D01*
X108364354Y-112640147D01*
X108489853Y-112765646D01*
X108588456Y-112913216D01*
X108656376Y-113077188D01*
X108691000Y-113251259D01*
X108691000Y-113428741D01*
X108656376Y-113602812D01*
X108588456Y-113766784D01*
X108489853Y-113914354D01*
X108364354Y-114039853D01*
X108216784Y-114138456D01*
X108052812Y-114206376D01*
X107903512Y-114236073D01*
X107878742Y-114241000D01*
X107701258Y-114241000D01*
X107676488Y-114236073D01*
X107527188Y-114206376D01*
X107363216Y-114138456D01*
X107215646Y-114039853D01*
X107090147Y-113914354D01*
X106991544Y-113766784D01*
X106923624Y-113602812D01*
X106889000Y-113428741D01*
X106889000Y-113251259D01*
X106923624Y-113077188D01*
X106991544Y-112913216D01*
X107090147Y-112765646D01*
X107215646Y-112640147D01*
X107363216Y-112541544D01*
X107527188Y-112473624D01*
X107676488Y-112443927D01*
X107701258Y-112439000D01*
X107878742Y-112439000D01*
X107903512Y-112443927D01*
G37*
G36*
X115523512Y-109903927D02*
G01*
X115672812Y-109933624D01*
X115836784Y-110001544D01*
X115984354Y-110100147D01*
X116109853Y-110225646D01*
X116208456Y-110373216D01*
X116276376Y-110537188D01*
X116311000Y-110711259D01*
X116311000Y-110888741D01*
X116276376Y-111062812D01*
X116208456Y-111226784D01*
X116109853Y-111374354D01*
X115984354Y-111499853D01*
X115836784Y-111598456D01*
X115672812Y-111666376D01*
X115523512Y-111696073D01*
X115498742Y-111701000D01*
X115321258Y-111701000D01*
X115296488Y-111696073D01*
X115147188Y-111666376D01*
X114983216Y-111598456D01*
X114835646Y-111499853D01*
X114710147Y-111374354D01*
X114611544Y-111226784D01*
X114543624Y-111062812D01*
X114509000Y-110888741D01*
X114509000Y-110711259D01*
X114543624Y-110537188D01*
X114611544Y-110373216D01*
X114710147Y-110225646D01*
X114835646Y-110100147D01*
X114983216Y-110001544D01*
X115147188Y-109933624D01*
X115296488Y-109903927D01*
X115321258Y-109899000D01*
X115498742Y-109899000D01*
X115523512Y-109903927D01*
G37*
G36*
X110443512Y-109903927D02*
G01*
X110592812Y-109933624D01*
X110756784Y-110001544D01*
X110904354Y-110100147D01*
X111029853Y-110225646D01*
X111128456Y-110373216D01*
X111196376Y-110537188D01*
X111231000Y-110711259D01*
X111231000Y-110888741D01*
X111196376Y-111062812D01*
X111128456Y-111226784D01*
X111029853Y-111374354D01*
X110904354Y-111499853D01*
X110756784Y-111598456D01*
X110592812Y-111666376D01*
X110443512Y-111696073D01*
X110418742Y-111701000D01*
X110241258Y-111701000D01*
X110216488Y-111696073D01*
X110067188Y-111666376D01*
X109903216Y-111598456D01*
X109755646Y-111499853D01*
X109630147Y-111374354D01*
X109531544Y-111226784D01*
X109463624Y-111062812D01*
X109429000Y-110888741D01*
X109429000Y-110711259D01*
X109463624Y-110537188D01*
X109531544Y-110373216D01*
X109630147Y-110225646D01*
X109755646Y-110100147D01*
X109903216Y-110001544D01*
X110067188Y-109933624D01*
X110216488Y-109903927D01*
X110241258Y-109899000D01*
X110418742Y-109899000D01*
X110443512Y-109903927D01*
G37*
G36*
X107903512Y-109903927D02*
G01*
X108052812Y-109933624D01*
X108216784Y-110001544D01*
X108364354Y-110100147D01*
X108489853Y-110225646D01*
X108588456Y-110373216D01*
X108656376Y-110537188D01*
X108691000Y-110711259D01*
X108691000Y-110888741D01*
X108656376Y-111062812D01*
X108588456Y-111226784D01*
X108489853Y-111374354D01*
X108364354Y-111499853D01*
X108216784Y-111598456D01*
X108052812Y-111666376D01*
X107903512Y-111696073D01*
X107878742Y-111701000D01*
X107701258Y-111701000D01*
X107676488Y-111696073D01*
X107527188Y-111666376D01*
X107363216Y-111598456D01*
X107215646Y-111499853D01*
X107090147Y-111374354D01*
X106991544Y-111226784D01*
X106923624Y-111062812D01*
X106889000Y-110888741D01*
X106889000Y-110711259D01*
X106923624Y-110537188D01*
X106991544Y-110373216D01*
X107090147Y-110225646D01*
X107215646Y-110100147D01*
X107363216Y-110001544D01*
X107527188Y-109933624D01*
X107676488Y-109903927D01*
X107701258Y-109899000D01*
X107878742Y-109899000D01*
X107903512Y-109903927D01*
G37*
G36*
X105363512Y-109903927D02*
G01*
X105512812Y-109933624D01*
X105676784Y-110001544D01*
X105824354Y-110100147D01*
X105949853Y-110225646D01*
X106048456Y-110373216D01*
X106116376Y-110537188D01*
X106151000Y-110711259D01*
X106151000Y-110888741D01*
X106116376Y-111062812D01*
X106048456Y-111226784D01*
X105949853Y-111374354D01*
X105824354Y-111499853D01*
X105676784Y-111598456D01*
X105512812Y-111666376D01*
X105363512Y-111696073D01*
X105338742Y-111701000D01*
X105161258Y-111701000D01*
X105136488Y-111696073D01*
X104987188Y-111666376D01*
X104823216Y-111598456D01*
X104675646Y-111499853D01*
X104550147Y-111374354D01*
X104451544Y-111226784D01*
X104383624Y-111062812D01*
X104349000Y-110888741D01*
X104349000Y-110711259D01*
X104383624Y-110537188D01*
X104451544Y-110373216D01*
X104550147Y-110225646D01*
X104675646Y-110100147D01*
X104823216Y-110001544D01*
X104987188Y-109933624D01*
X105136488Y-109903927D01*
X105161258Y-109899000D01*
X105338742Y-109899000D01*
X105363512Y-109903927D01*
G37*
G36*
X102823512Y-109903927D02*
G01*
X102972812Y-109933624D01*
X103136784Y-110001544D01*
X103284354Y-110100147D01*
X103409853Y-110225646D01*
X103508456Y-110373216D01*
X103576376Y-110537188D01*
X103611000Y-110711259D01*
X103611000Y-110888741D01*
X103576376Y-111062812D01*
X103508456Y-111226784D01*
X103409853Y-111374354D01*
X103284354Y-111499853D01*
X103136784Y-111598456D01*
X102972812Y-111666376D01*
X102823512Y-111696073D01*
X102798742Y-111701000D01*
X102621258Y-111701000D01*
X102596488Y-111696073D01*
X102447188Y-111666376D01*
X102283216Y-111598456D01*
X102135646Y-111499853D01*
X102010147Y-111374354D01*
X101911544Y-111226784D01*
X101843624Y-111062812D01*
X101809000Y-110888741D01*
X101809000Y-110711259D01*
X101843624Y-110537188D01*
X101911544Y-110373216D01*
X102010147Y-110225646D01*
X102135646Y-110100147D01*
X102283216Y-110001544D01*
X102447188Y-109933624D01*
X102596488Y-109903927D01*
X102621258Y-109899000D01*
X102798742Y-109899000D01*
X102823512Y-109903927D01*
G37*
G36*
X100283512Y-109903927D02*
G01*
X100432812Y-109933624D01*
X100596784Y-110001544D01*
X100744354Y-110100147D01*
X100869853Y-110225646D01*
X100968456Y-110373216D01*
X101036376Y-110537188D01*
X101071000Y-110711259D01*
X101071000Y-110888741D01*
X101036376Y-111062812D01*
X100968456Y-111226784D01*
X100869853Y-111374354D01*
X100744354Y-111499853D01*
X100596784Y-111598456D01*
X100432812Y-111666376D01*
X100283512Y-111696073D01*
X100258742Y-111701000D01*
X100081258Y-111701000D01*
X100056488Y-111696073D01*
X99907188Y-111666376D01*
X99743216Y-111598456D01*
X99595646Y-111499853D01*
X99470147Y-111374354D01*
X99371544Y-111226784D01*
X99303624Y-111062812D01*
X99269000Y-110888741D01*
X99269000Y-110711259D01*
X99303624Y-110537188D01*
X99371544Y-110373216D01*
X99470147Y-110225646D01*
X99595646Y-110100147D01*
X99743216Y-110001544D01*
X99907188Y-109933624D01*
X100056488Y-109903927D01*
X100081258Y-109899000D01*
X100258742Y-109899000D01*
X100283512Y-109903927D01*
G37*
G36*
X112983512Y-109903927D02*
G01*
X113132812Y-109933624D01*
X113296784Y-110001544D01*
X113444354Y-110100147D01*
X113569853Y-110225646D01*
X113668456Y-110373216D01*
X113736376Y-110537188D01*
X113771000Y-110711259D01*
X113771000Y-110888741D01*
X113736376Y-111062812D01*
X113668456Y-111226784D01*
X113569853Y-111374354D01*
X113444354Y-111499853D01*
X113296784Y-111598456D01*
X113132812Y-111666376D01*
X112983512Y-111696073D01*
X112958742Y-111701000D01*
X112781258Y-111701000D01*
X112756488Y-111696073D01*
X112607188Y-111666376D01*
X112443216Y-111598456D01*
X112295646Y-111499853D01*
X112170147Y-111374354D01*
X112071544Y-111226784D01*
X112003624Y-111062812D01*
X111969000Y-110888741D01*
X111969000Y-110711259D01*
X112003624Y-110537188D01*
X112071544Y-110373216D01*
X112170147Y-110225646D01*
X112295646Y-110100147D01*
X112443216Y-110001544D01*
X112607188Y-109933624D01*
X112756488Y-109903927D01*
X112781258Y-109899000D01*
X112958742Y-109899000D01*
X112983512Y-109903927D01*
G37*
G36*
X118063512Y-109903927D02*
G01*
X118212812Y-109933624D01*
X118376784Y-110001544D01*
X118524354Y-110100147D01*
X118649853Y-110225646D01*
X118748456Y-110373216D01*
X118816376Y-110537188D01*
X118851000Y-110711259D01*
X118851000Y-110888741D01*
X118816376Y-111062812D01*
X118748456Y-111226784D01*
X118649853Y-111374354D01*
X118524354Y-111499853D01*
X118376784Y-111598456D01*
X118212812Y-111666376D01*
X118063512Y-111696073D01*
X118038742Y-111701000D01*
X117861258Y-111701000D01*
X117836488Y-111696073D01*
X117687188Y-111666376D01*
X117523216Y-111598456D01*
X117375646Y-111499853D01*
X117250147Y-111374354D01*
X117151544Y-111226784D01*
X117083624Y-111062812D01*
X117049000Y-110888741D01*
X117049000Y-110711259D01*
X117083624Y-110537188D01*
X117151544Y-110373216D01*
X117250147Y-110225646D01*
X117375646Y-110100147D01*
X117523216Y-110001544D01*
X117687188Y-109933624D01*
X117836488Y-109903927D01*
X117861258Y-109899000D01*
X118038742Y-109899000D01*
X118063512Y-109903927D01*
G37*
G36*
X120603512Y-109903927D02*
G01*
X120752812Y-109933624D01*
X120916784Y-110001544D01*
X121064354Y-110100147D01*
X121189853Y-110225646D01*
X121288456Y-110373216D01*
X121356376Y-110537188D01*
X121391000Y-110711259D01*
X121391000Y-110888741D01*
X121356376Y-111062812D01*
X121288456Y-111226784D01*
X121189853Y-111374354D01*
X121064354Y-111499853D01*
X120916784Y-111598456D01*
X120752812Y-111666376D01*
X120603512Y-111696073D01*
X120578742Y-111701000D01*
X120401258Y-111701000D01*
X120376488Y-111696073D01*
X120227188Y-111666376D01*
X120063216Y-111598456D01*
X119915646Y-111499853D01*
X119790147Y-111374354D01*
X119691544Y-111226784D01*
X119623624Y-111062812D01*
X119589000Y-110888741D01*
X119589000Y-110711259D01*
X119623624Y-110537188D01*
X119691544Y-110373216D01*
X119790147Y-110225646D01*
X119915646Y-110100147D01*
X120063216Y-110001544D01*
X120227188Y-109933624D01*
X120376488Y-109903927D01*
X120401258Y-109899000D01*
X120578742Y-109899000D01*
X120603512Y-109903927D01*
G37*
G36*
X123143512Y-109903927D02*
G01*
X123292812Y-109933624D01*
X123456784Y-110001544D01*
X123604354Y-110100147D01*
X123729853Y-110225646D01*
X123828456Y-110373216D01*
X123896376Y-110537188D01*
X123931000Y-110711259D01*
X123931000Y-110888741D01*
X123896376Y-111062812D01*
X123828456Y-111226784D01*
X123729853Y-111374354D01*
X123604354Y-111499853D01*
X123456784Y-111598456D01*
X123292812Y-111666376D01*
X123143512Y-111696073D01*
X123118742Y-111701000D01*
X122941258Y-111701000D01*
X122916488Y-111696073D01*
X122767188Y-111666376D01*
X122603216Y-111598456D01*
X122455646Y-111499853D01*
X122330147Y-111374354D01*
X122231544Y-111226784D01*
X122163624Y-111062812D01*
X122129000Y-110888741D01*
X122129000Y-110711259D01*
X122163624Y-110537188D01*
X122231544Y-110373216D01*
X122330147Y-110225646D01*
X122455646Y-110100147D01*
X122603216Y-110001544D01*
X122767188Y-109933624D01*
X122916488Y-109903927D01*
X122941258Y-109899000D01*
X123118742Y-109899000D01*
X123143512Y-109903927D01*
G37*
G36*
X140531000Y-108961000D02*
G01*
X138829000Y-108961000D01*
X138829000Y-107259000D01*
X140531000Y-107259000D01*
X140531000Y-108961000D01*
G37*
G36*
X165408228Y-107291703D02*
G01*
X165563100Y-107355853D01*
X165702481Y-107448985D01*
X165821015Y-107567519D01*
X165914147Y-107706900D01*
X165978297Y-107861772D01*
X166011000Y-108026184D01*
X166011000Y-108193816D01*
X165978297Y-108358228D01*
X165914147Y-108513100D01*
X165821015Y-108652481D01*
X165702481Y-108771015D01*
X165563100Y-108864147D01*
X165408228Y-108928297D01*
X165243816Y-108961000D01*
X165076184Y-108961000D01*
X164911772Y-108928297D01*
X164756900Y-108864147D01*
X164617519Y-108771015D01*
X164498985Y-108652481D01*
X164405853Y-108513100D01*
X164341703Y-108358228D01*
X164309000Y-108193816D01*
X164309000Y-108026184D01*
X164341703Y-107861772D01*
X164405853Y-107706900D01*
X164498985Y-107567519D01*
X164617519Y-107448985D01*
X164756900Y-107355853D01*
X164911772Y-107291703D01*
X165076184Y-107259000D01*
X165243816Y-107259000D01*
X165408228Y-107291703D01*
G37*
G36*
X173631000Y-108961000D02*
G01*
X171929000Y-108961000D01*
X171929000Y-107259000D01*
X173631000Y-107259000D01*
X173631000Y-108961000D01*
G37*
G36*
X132308228Y-107291703D02*
G01*
X132463100Y-107355853D01*
X132602481Y-107448985D01*
X132721015Y-107567519D01*
X132814147Y-107706900D01*
X132878297Y-107861772D01*
X132911000Y-108026184D01*
X132911000Y-108193816D01*
X132878297Y-108358228D01*
X132814147Y-108513100D01*
X132721015Y-108652481D01*
X132602481Y-108771015D01*
X132463100Y-108864147D01*
X132308228Y-108928297D01*
X132143816Y-108961000D01*
X131976184Y-108961000D01*
X131811772Y-108928297D01*
X131656900Y-108864147D01*
X131517519Y-108771015D01*
X131398985Y-108652481D01*
X131305853Y-108513100D01*
X131241703Y-108358228D01*
X131209000Y-108193816D01*
X131209000Y-108026184D01*
X131241703Y-107861772D01*
X131305853Y-107706900D01*
X131398985Y-107567519D01*
X131517519Y-107448985D01*
X131656900Y-107355853D01*
X131811772Y-107291703D01*
X131976184Y-107259000D01*
X132143816Y-107259000D01*
X132308228Y-107291703D01*
G37*
G36*
X173028228Y-104751703D02*
G01*
X173183100Y-104815853D01*
X173322481Y-104908985D01*
X173441015Y-105027519D01*
X173534147Y-105166900D01*
X173598297Y-105321772D01*
X173631000Y-105486184D01*
X173631000Y-105653816D01*
X173598297Y-105818228D01*
X173534147Y-105973100D01*
X173441015Y-106112481D01*
X173322481Y-106231015D01*
X173183100Y-106324147D01*
X173028228Y-106388297D01*
X172863816Y-106421000D01*
X172696184Y-106421000D01*
X172531772Y-106388297D01*
X172376900Y-106324147D01*
X172237519Y-106231015D01*
X172118985Y-106112481D01*
X172025853Y-105973100D01*
X171961703Y-105818228D01*
X171929000Y-105653816D01*
X171929000Y-105486184D01*
X171961703Y-105321772D01*
X172025853Y-105166900D01*
X172118985Y-105027519D01*
X172237519Y-104908985D01*
X172376900Y-104815853D01*
X172531772Y-104751703D01*
X172696184Y-104719000D01*
X172863816Y-104719000D01*
X173028228Y-104751703D01*
G37*
G36*
X132308228Y-104751703D02*
G01*
X132463100Y-104815853D01*
X132602481Y-104908985D01*
X132721015Y-105027519D01*
X132814147Y-105166900D01*
X132878297Y-105321772D01*
X132911000Y-105486184D01*
X132911000Y-105653816D01*
X132878297Y-105818228D01*
X132814147Y-105973100D01*
X132721015Y-106112481D01*
X132602481Y-106231015D01*
X132463100Y-106324147D01*
X132308228Y-106388297D01*
X132143816Y-106421000D01*
X131976184Y-106421000D01*
X131811772Y-106388297D01*
X131656900Y-106324147D01*
X131517519Y-106231015D01*
X131398985Y-106112481D01*
X131305853Y-105973100D01*
X131241703Y-105818228D01*
X131209000Y-105653816D01*
X131209000Y-105486184D01*
X131241703Y-105321772D01*
X131305853Y-105166900D01*
X131398985Y-105027519D01*
X131517519Y-104908985D01*
X131656900Y-104815853D01*
X131811772Y-104751703D01*
X131976184Y-104719000D01*
X132143816Y-104719000D01*
X132308228Y-104751703D01*
G37*
G36*
X165408228Y-104751703D02*
G01*
X165563100Y-104815853D01*
X165702481Y-104908985D01*
X165821015Y-105027519D01*
X165914147Y-105166900D01*
X165978297Y-105321772D01*
X166011000Y-105486184D01*
X166011000Y-105653816D01*
X165978297Y-105818228D01*
X165914147Y-105973100D01*
X165821015Y-106112481D01*
X165702481Y-106231015D01*
X165563100Y-106324147D01*
X165408228Y-106388297D01*
X165243816Y-106421000D01*
X165076184Y-106421000D01*
X164911772Y-106388297D01*
X164756900Y-106324147D01*
X164617519Y-106231015D01*
X164498985Y-106112481D01*
X164405853Y-105973100D01*
X164341703Y-105818228D01*
X164309000Y-105653816D01*
X164309000Y-105486184D01*
X164341703Y-105321772D01*
X164405853Y-105166900D01*
X164498985Y-105027519D01*
X164617519Y-104908985D01*
X164756900Y-104815853D01*
X164911772Y-104751703D01*
X165076184Y-104719000D01*
X165243816Y-104719000D01*
X165408228Y-104751703D01*
G37*
G36*
X139928228Y-104751703D02*
G01*
X140083100Y-104815853D01*
X140222481Y-104908985D01*
X140341015Y-105027519D01*
X140434147Y-105166900D01*
X140498297Y-105321772D01*
X140531000Y-105486184D01*
X140531000Y-105653816D01*
X140498297Y-105818228D01*
X140434147Y-105973100D01*
X140341015Y-106112481D01*
X140222481Y-106231015D01*
X140083100Y-106324147D01*
X139928228Y-106388297D01*
X139763816Y-106421000D01*
X139596184Y-106421000D01*
X139431772Y-106388297D01*
X139276900Y-106324147D01*
X139137519Y-106231015D01*
X139018985Y-106112481D01*
X138925853Y-105973100D01*
X138861703Y-105818228D01*
X138829000Y-105653816D01*
X138829000Y-105486184D01*
X138861703Y-105321772D01*
X138925853Y-105166900D01*
X139018985Y-105027519D01*
X139137519Y-104908985D01*
X139276900Y-104815853D01*
X139431772Y-104751703D01*
X139596184Y-104719000D01*
X139763816Y-104719000D01*
X139928228Y-104751703D01*
G37*
G36*
X110443512Y-101503927D02*
G01*
X110592812Y-101533624D01*
X110756784Y-101601544D01*
X110904354Y-101700147D01*
X111029853Y-101825646D01*
X111128456Y-101973216D01*
X111196376Y-102137188D01*
X111231000Y-102311259D01*
X111231000Y-102488741D01*
X111196376Y-102662812D01*
X111128456Y-102826784D01*
X111029853Y-102974354D01*
X110904354Y-103099853D01*
X110756784Y-103198456D01*
X110592812Y-103266376D01*
X110443512Y-103296073D01*
X110418742Y-103301000D01*
X110241258Y-103301000D01*
X110216488Y-103296073D01*
X110067188Y-103266376D01*
X109903216Y-103198456D01*
X109755646Y-103099853D01*
X109630147Y-102974354D01*
X109531544Y-102826784D01*
X109463624Y-102662812D01*
X109429000Y-102488741D01*
X109429000Y-102311259D01*
X109463624Y-102137188D01*
X109531544Y-101973216D01*
X109630147Y-101825646D01*
X109755646Y-101700147D01*
X109903216Y-101601544D01*
X110067188Y-101533624D01*
X110216488Y-101503927D01*
X110241258Y-101499000D01*
X110418742Y-101499000D01*
X110443512Y-101503927D01*
G37*
G36*
X102823512Y-101503927D02*
G01*
X102972812Y-101533624D01*
X103136784Y-101601544D01*
X103284354Y-101700147D01*
X103409853Y-101825646D01*
X103508456Y-101973216D01*
X103576376Y-102137188D01*
X103611000Y-102311259D01*
X103611000Y-102488741D01*
X103576376Y-102662812D01*
X103508456Y-102826784D01*
X103409853Y-102974354D01*
X103284354Y-103099853D01*
X103136784Y-103198456D01*
X102972812Y-103266376D01*
X102823512Y-103296073D01*
X102798742Y-103301000D01*
X102621258Y-103301000D01*
X102596488Y-103296073D01*
X102447188Y-103266376D01*
X102283216Y-103198456D01*
X102135646Y-103099853D01*
X102010147Y-102974354D01*
X101911544Y-102826784D01*
X101843624Y-102662812D01*
X101809000Y-102488741D01*
X101809000Y-102311259D01*
X101843624Y-102137188D01*
X101911544Y-101973216D01*
X102010147Y-101825646D01*
X102135646Y-101700147D01*
X102283216Y-101601544D01*
X102447188Y-101533624D01*
X102596488Y-101503927D01*
X102621258Y-101499000D01*
X102798742Y-101499000D01*
X102823512Y-101503927D01*
G37*
G36*
X105363512Y-101503927D02*
G01*
X105512812Y-101533624D01*
X105676784Y-101601544D01*
X105824354Y-101700147D01*
X105949853Y-101825646D01*
X106048456Y-101973216D01*
X106116376Y-102137188D01*
X106151000Y-102311259D01*
X106151000Y-102488741D01*
X106116376Y-102662812D01*
X106048456Y-102826784D01*
X105949853Y-102974354D01*
X105824354Y-103099853D01*
X105676784Y-103198456D01*
X105512812Y-103266376D01*
X105363512Y-103296073D01*
X105338742Y-103301000D01*
X105161258Y-103301000D01*
X105136488Y-103296073D01*
X104987188Y-103266376D01*
X104823216Y-103198456D01*
X104675646Y-103099853D01*
X104550147Y-102974354D01*
X104451544Y-102826784D01*
X104383624Y-102662812D01*
X104349000Y-102488741D01*
X104349000Y-102311259D01*
X104383624Y-102137188D01*
X104451544Y-101973216D01*
X104550147Y-101825646D01*
X104675646Y-101700147D01*
X104823216Y-101601544D01*
X104987188Y-101533624D01*
X105136488Y-101503927D01*
X105161258Y-101499000D01*
X105338742Y-101499000D01*
X105363512Y-101503927D01*
G37*
G36*
X107903512Y-101503927D02*
G01*
X108052812Y-101533624D01*
X108216784Y-101601544D01*
X108364354Y-101700147D01*
X108489853Y-101825646D01*
X108588456Y-101973216D01*
X108656376Y-102137188D01*
X108691000Y-102311259D01*
X108691000Y-102488741D01*
X108656376Y-102662812D01*
X108588456Y-102826784D01*
X108489853Y-102974354D01*
X108364354Y-103099853D01*
X108216784Y-103198456D01*
X108052812Y-103266376D01*
X107903512Y-103296073D01*
X107878742Y-103301000D01*
X107701258Y-103301000D01*
X107676488Y-103296073D01*
X107527188Y-103266376D01*
X107363216Y-103198456D01*
X107215646Y-103099853D01*
X107090147Y-102974354D01*
X106991544Y-102826784D01*
X106923624Y-102662812D01*
X106889000Y-102488741D01*
X106889000Y-102311259D01*
X106923624Y-102137188D01*
X106991544Y-101973216D01*
X107090147Y-101825646D01*
X107215646Y-101700147D01*
X107363216Y-101601544D01*
X107527188Y-101533624D01*
X107676488Y-101503927D01*
X107701258Y-101499000D01*
X107878742Y-101499000D01*
X107903512Y-101503927D01*
G37*
G36*
X112983512Y-101503927D02*
G01*
X113132812Y-101533624D01*
X113296784Y-101601544D01*
X113444354Y-101700147D01*
X113569853Y-101825646D01*
X113668456Y-101973216D01*
X113736376Y-102137188D01*
X113771000Y-102311259D01*
X113771000Y-102488741D01*
X113736376Y-102662812D01*
X113668456Y-102826784D01*
X113569853Y-102974354D01*
X113444354Y-103099853D01*
X113296784Y-103198456D01*
X113132812Y-103266376D01*
X112983512Y-103296073D01*
X112958742Y-103301000D01*
X112781258Y-103301000D01*
X112756488Y-103296073D01*
X112607188Y-103266376D01*
X112443216Y-103198456D01*
X112295646Y-103099853D01*
X112170147Y-102974354D01*
X112071544Y-102826784D01*
X112003624Y-102662812D01*
X111969000Y-102488741D01*
X111969000Y-102311259D01*
X112003624Y-102137188D01*
X112071544Y-101973216D01*
X112170147Y-101825646D01*
X112295646Y-101700147D01*
X112443216Y-101601544D01*
X112607188Y-101533624D01*
X112756488Y-101503927D01*
X112781258Y-101499000D01*
X112958742Y-101499000D01*
X112983512Y-101503927D01*
G37*
G36*
X115523512Y-101503927D02*
G01*
X115672812Y-101533624D01*
X115836784Y-101601544D01*
X115984354Y-101700147D01*
X116109853Y-101825646D01*
X116208456Y-101973216D01*
X116276376Y-102137188D01*
X116311000Y-102311259D01*
X116311000Y-102488741D01*
X116276376Y-102662812D01*
X116208456Y-102826784D01*
X116109853Y-102974354D01*
X115984354Y-103099853D01*
X115836784Y-103198456D01*
X115672812Y-103266376D01*
X115523512Y-103296073D01*
X115498742Y-103301000D01*
X115321258Y-103301000D01*
X115296488Y-103296073D01*
X115147188Y-103266376D01*
X114983216Y-103198456D01*
X114835646Y-103099853D01*
X114710147Y-102974354D01*
X114611544Y-102826784D01*
X114543624Y-102662812D01*
X114509000Y-102488741D01*
X114509000Y-102311259D01*
X114543624Y-102137188D01*
X114611544Y-101973216D01*
X114710147Y-101825646D01*
X114835646Y-101700147D01*
X114983216Y-101601544D01*
X115147188Y-101533624D01*
X115296488Y-101503927D01*
X115321258Y-101499000D01*
X115498742Y-101499000D01*
X115523512Y-101503927D01*
G37*
G36*
X118063512Y-101503927D02*
G01*
X118212812Y-101533624D01*
X118376784Y-101601544D01*
X118524354Y-101700147D01*
X118649853Y-101825646D01*
X118748456Y-101973216D01*
X118816376Y-102137188D01*
X118851000Y-102311259D01*
X118851000Y-102488741D01*
X118816376Y-102662812D01*
X118748456Y-102826784D01*
X118649853Y-102974354D01*
X118524354Y-103099853D01*
X118376784Y-103198456D01*
X118212812Y-103266376D01*
X118063512Y-103296073D01*
X118038742Y-103301000D01*
X117861258Y-103301000D01*
X117836488Y-103296073D01*
X117687188Y-103266376D01*
X117523216Y-103198456D01*
X117375646Y-103099853D01*
X117250147Y-102974354D01*
X117151544Y-102826784D01*
X117083624Y-102662812D01*
X117049000Y-102488741D01*
X117049000Y-102311259D01*
X117083624Y-102137188D01*
X117151544Y-101973216D01*
X117250147Y-101825646D01*
X117375646Y-101700147D01*
X117523216Y-101601544D01*
X117687188Y-101533624D01*
X117836488Y-101503927D01*
X117861258Y-101499000D01*
X118038742Y-101499000D01*
X118063512Y-101503927D01*
G37*
G36*
X120603512Y-101503927D02*
G01*
X120752812Y-101533624D01*
X120916784Y-101601544D01*
X121064354Y-101700147D01*
X121189853Y-101825646D01*
X121288456Y-101973216D01*
X121356376Y-102137188D01*
X121391000Y-102311259D01*
X121391000Y-102488741D01*
X121356376Y-102662812D01*
X121288456Y-102826784D01*
X121189853Y-102974354D01*
X121064354Y-103099853D01*
X120916784Y-103198456D01*
X120752812Y-103266376D01*
X120603512Y-103296073D01*
X120578742Y-103301000D01*
X120401258Y-103301000D01*
X120376488Y-103296073D01*
X120227188Y-103266376D01*
X120063216Y-103198456D01*
X119915646Y-103099853D01*
X119790147Y-102974354D01*
X119691544Y-102826784D01*
X119623624Y-102662812D01*
X119589000Y-102488741D01*
X119589000Y-102311259D01*
X119623624Y-102137188D01*
X119691544Y-101973216D01*
X119790147Y-101825646D01*
X119915646Y-101700147D01*
X120063216Y-101601544D01*
X120227188Y-101533624D01*
X120376488Y-101503927D01*
X120401258Y-101499000D01*
X120578742Y-101499000D01*
X120603512Y-101503927D01*
G37*
G36*
X123931000Y-103301000D02*
G01*
X122129000Y-103301000D01*
X122129000Y-101499000D01*
X123931000Y-101499000D01*
X123931000Y-103301000D01*
G37*
G36*
X100283512Y-101503927D02*
G01*
X100432812Y-101533624D01*
X100596784Y-101601544D01*
X100744354Y-101700147D01*
X100869853Y-101825646D01*
X100968456Y-101973216D01*
X101036376Y-102137188D01*
X101071000Y-102311259D01*
X101071000Y-102488741D01*
X101036376Y-102662812D01*
X100968456Y-102826784D01*
X100869853Y-102974354D01*
X100744354Y-103099853D01*
X100596784Y-103198456D01*
X100432812Y-103266376D01*
X100283512Y-103296073D01*
X100258742Y-103301000D01*
X100081258Y-103301000D01*
X100056488Y-103296073D01*
X99907188Y-103266376D01*
X99743216Y-103198456D01*
X99595646Y-103099853D01*
X99470147Y-102974354D01*
X99371544Y-102826784D01*
X99303624Y-102662812D01*
X99269000Y-102488741D01*
X99269000Y-102311259D01*
X99303624Y-102137188D01*
X99371544Y-101973216D01*
X99470147Y-101825646D01*
X99595646Y-101700147D01*
X99743216Y-101601544D01*
X99907188Y-101533624D01*
X100056488Y-101503927D01*
X100081258Y-101499000D01*
X100258742Y-101499000D01*
X100283512Y-101503927D01*
G37*
G36*
X120603512Y-94603927D02*
G01*
X120752812Y-94633624D01*
X120916784Y-94701544D01*
X121064354Y-94800147D01*
X121189853Y-94925646D01*
X121288456Y-95073216D01*
X121356376Y-95237188D01*
X121391000Y-95411259D01*
X121391000Y-95588741D01*
X121356376Y-95762812D01*
X121288456Y-95926784D01*
X121189853Y-96074354D01*
X121064354Y-96199853D01*
X120916784Y-96298456D01*
X120752812Y-96366376D01*
X120603512Y-96396073D01*
X120578742Y-96401000D01*
X120401258Y-96401000D01*
X120376488Y-96396073D01*
X120227188Y-96366376D01*
X120063216Y-96298456D01*
X119915646Y-96199853D01*
X119790147Y-96074354D01*
X119691544Y-95926784D01*
X119623624Y-95762812D01*
X119589000Y-95588741D01*
X119589000Y-95411259D01*
X119623624Y-95237188D01*
X119691544Y-95073216D01*
X119790147Y-94925646D01*
X119915646Y-94800147D01*
X120063216Y-94701544D01*
X120227188Y-94633624D01*
X120376488Y-94603927D01*
X120401258Y-94599000D01*
X120578742Y-94599000D01*
X120603512Y-94603927D01*
G37*
G36*
X118063512Y-94603927D02*
G01*
X118212812Y-94633624D01*
X118376784Y-94701544D01*
X118524354Y-94800147D01*
X118649853Y-94925646D01*
X118748456Y-95073216D01*
X118816376Y-95237188D01*
X118851000Y-95411259D01*
X118851000Y-95588741D01*
X118816376Y-95762812D01*
X118748456Y-95926784D01*
X118649853Y-96074354D01*
X118524354Y-96199853D01*
X118376784Y-96298456D01*
X118212812Y-96366376D01*
X118063512Y-96396073D01*
X118038742Y-96401000D01*
X117861258Y-96401000D01*
X117836488Y-96396073D01*
X117687188Y-96366376D01*
X117523216Y-96298456D01*
X117375646Y-96199853D01*
X117250147Y-96074354D01*
X117151544Y-95926784D01*
X117083624Y-95762812D01*
X117049000Y-95588741D01*
X117049000Y-95411259D01*
X117083624Y-95237188D01*
X117151544Y-95073216D01*
X117250147Y-94925646D01*
X117375646Y-94800147D01*
X117523216Y-94701544D01*
X117687188Y-94633624D01*
X117836488Y-94603927D01*
X117861258Y-94599000D01*
X118038742Y-94599000D01*
X118063512Y-94603927D01*
G37*
G36*
X115523512Y-94603927D02*
G01*
X115672812Y-94633624D01*
X115836784Y-94701544D01*
X115984354Y-94800147D01*
X116109853Y-94925646D01*
X116208456Y-95073216D01*
X116276376Y-95237188D01*
X116311000Y-95411259D01*
X116311000Y-95588741D01*
X116276376Y-95762812D01*
X116208456Y-95926784D01*
X116109853Y-96074354D01*
X115984354Y-96199853D01*
X115836784Y-96298456D01*
X115672812Y-96366376D01*
X115523512Y-96396073D01*
X115498742Y-96401000D01*
X115321258Y-96401000D01*
X115296488Y-96396073D01*
X115147188Y-96366376D01*
X114983216Y-96298456D01*
X114835646Y-96199853D01*
X114710147Y-96074354D01*
X114611544Y-95926784D01*
X114543624Y-95762812D01*
X114509000Y-95588741D01*
X114509000Y-95411259D01*
X114543624Y-95237188D01*
X114611544Y-95073216D01*
X114710147Y-94925646D01*
X114835646Y-94800147D01*
X114983216Y-94701544D01*
X115147188Y-94633624D01*
X115296488Y-94603927D01*
X115321258Y-94599000D01*
X115498742Y-94599000D01*
X115523512Y-94603927D01*
G37*
G36*
X112983512Y-94603927D02*
G01*
X113132812Y-94633624D01*
X113296784Y-94701544D01*
X113444354Y-94800147D01*
X113569853Y-94925646D01*
X113668456Y-95073216D01*
X113736376Y-95237188D01*
X113771000Y-95411259D01*
X113771000Y-95588741D01*
X113736376Y-95762812D01*
X113668456Y-95926784D01*
X113569853Y-96074354D01*
X113444354Y-96199853D01*
X113296784Y-96298456D01*
X113132812Y-96366376D01*
X112983512Y-96396073D01*
X112958742Y-96401000D01*
X112781258Y-96401000D01*
X112756488Y-96396073D01*
X112607188Y-96366376D01*
X112443216Y-96298456D01*
X112295646Y-96199853D01*
X112170147Y-96074354D01*
X112071544Y-95926784D01*
X112003624Y-95762812D01*
X111969000Y-95588741D01*
X111969000Y-95411259D01*
X112003624Y-95237188D01*
X112071544Y-95073216D01*
X112170147Y-94925646D01*
X112295646Y-94800147D01*
X112443216Y-94701544D01*
X112607188Y-94633624D01*
X112756488Y-94603927D01*
X112781258Y-94599000D01*
X112958742Y-94599000D01*
X112983512Y-94603927D01*
G37*
G36*
X110443512Y-94603927D02*
G01*
X110592812Y-94633624D01*
X110756784Y-94701544D01*
X110904354Y-94800147D01*
X111029853Y-94925646D01*
X111128456Y-95073216D01*
X111196376Y-95237188D01*
X111231000Y-95411259D01*
X111231000Y-95588741D01*
X111196376Y-95762812D01*
X111128456Y-95926784D01*
X111029853Y-96074354D01*
X110904354Y-96199853D01*
X110756784Y-96298456D01*
X110592812Y-96366376D01*
X110443512Y-96396073D01*
X110418742Y-96401000D01*
X110241258Y-96401000D01*
X110216488Y-96396073D01*
X110067188Y-96366376D01*
X109903216Y-96298456D01*
X109755646Y-96199853D01*
X109630147Y-96074354D01*
X109531544Y-95926784D01*
X109463624Y-95762812D01*
X109429000Y-95588741D01*
X109429000Y-95411259D01*
X109463624Y-95237188D01*
X109531544Y-95073216D01*
X109630147Y-94925646D01*
X109755646Y-94800147D01*
X109903216Y-94701544D01*
X110067188Y-94633624D01*
X110216488Y-94603927D01*
X110241258Y-94599000D01*
X110418742Y-94599000D01*
X110443512Y-94603927D01*
G37*
G36*
X105363512Y-94603927D02*
G01*
X105512812Y-94633624D01*
X105676784Y-94701544D01*
X105824354Y-94800147D01*
X105949853Y-94925646D01*
X106048456Y-95073216D01*
X106116376Y-95237188D01*
X106151000Y-95411259D01*
X106151000Y-95588741D01*
X106116376Y-95762812D01*
X106048456Y-95926784D01*
X105949853Y-96074354D01*
X105824354Y-96199853D01*
X105676784Y-96298456D01*
X105512812Y-96366376D01*
X105363512Y-96396073D01*
X105338742Y-96401000D01*
X105161258Y-96401000D01*
X105136488Y-96396073D01*
X104987188Y-96366376D01*
X104823216Y-96298456D01*
X104675646Y-96199853D01*
X104550147Y-96074354D01*
X104451544Y-95926784D01*
X104383624Y-95762812D01*
X104349000Y-95588741D01*
X104349000Y-95411259D01*
X104383624Y-95237188D01*
X104451544Y-95073216D01*
X104550147Y-94925646D01*
X104675646Y-94800147D01*
X104823216Y-94701544D01*
X104987188Y-94633624D01*
X105136488Y-94603927D01*
X105161258Y-94599000D01*
X105338742Y-94599000D01*
X105363512Y-94603927D01*
G37*
G36*
X107903512Y-94603927D02*
G01*
X108052812Y-94633624D01*
X108216784Y-94701544D01*
X108364354Y-94800147D01*
X108489853Y-94925646D01*
X108588456Y-95073216D01*
X108656376Y-95237188D01*
X108691000Y-95411259D01*
X108691000Y-95588741D01*
X108656376Y-95762812D01*
X108588456Y-95926784D01*
X108489853Y-96074354D01*
X108364354Y-96199853D01*
X108216784Y-96298456D01*
X108052812Y-96366376D01*
X107903512Y-96396073D01*
X107878742Y-96401000D01*
X107701258Y-96401000D01*
X107676488Y-96396073D01*
X107527188Y-96366376D01*
X107363216Y-96298456D01*
X107215646Y-96199853D01*
X107090147Y-96074354D01*
X106991544Y-95926784D01*
X106923624Y-95762812D01*
X106889000Y-95588741D01*
X106889000Y-95411259D01*
X106923624Y-95237188D01*
X106991544Y-95073216D01*
X107090147Y-94925646D01*
X107215646Y-94800147D01*
X107363216Y-94701544D01*
X107527188Y-94633624D01*
X107676488Y-94603927D01*
X107701258Y-94599000D01*
X107878742Y-94599000D01*
X107903512Y-94603927D01*
G37*
G36*
X123143512Y-94603927D02*
G01*
X123292812Y-94633624D01*
X123456784Y-94701544D01*
X123604354Y-94800147D01*
X123729853Y-94925646D01*
X123828456Y-95073216D01*
X123896376Y-95237188D01*
X123931000Y-95411259D01*
X123931000Y-95588741D01*
X123896376Y-95762812D01*
X123828456Y-95926784D01*
X123729853Y-96074354D01*
X123604354Y-96199853D01*
X123456784Y-96298456D01*
X123292812Y-96366376D01*
X123143512Y-96396073D01*
X123118742Y-96401000D01*
X122941258Y-96401000D01*
X122916488Y-96396073D01*
X122767188Y-96366376D01*
X122603216Y-96298456D01*
X122455646Y-96199853D01*
X122330147Y-96074354D01*
X122231544Y-95926784D01*
X122163624Y-95762812D01*
X122129000Y-95588741D01*
X122129000Y-95411259D01*
X122163624Y-95237188D01*
X122231544Y-95073216D01*
X122330147Y-94925646D01*
X122455646Y-94800147D01*
X122603216Y-94701544D01*
X122767188Y-94633624D01*
X122916488Y-94603927D01*
X122941258Y-94599000D01*
X123118742Y-94599000D01*
X123143512Y-94603927D01*
G37*
G36*
X101071000Y-96401000D02*
G01*
X99269000Y-96401000D01*
X99269000Y-94599000D01*
X101071000Y-94599000D01*
X101071000Y-96401000D01*
G37*
G36*
X102823512Y-94603927D02*
G01*
X102972812Y-94633624D01*
X103136784Y-94701544D01*
X103284354Y-94800147D01*
X103409853Y-94925646D01*
X103508456Y-95073216D01*
X103576376Y-95237188D01*
X103611000Y-95411259D01*
X103611000Y-95588741D01*
X103576376Y-95762812D01*
X103508456Y-95926784D01*
X103409853Y-96074354D01*
X103284354Y-96199853D01*
X103136784Y-96298456D01*
X102972812Y-96366376D01*
X102823512Y-96396073D01*
X102798742Y-96401000D01*
X102621258Y-96401000D01*
X102596488Y-96396073D01*
X102447188Y-96366376D01*
X102283216Y-96298456D01*
X102135646Y-96199853D01*
X102010147Y-96074354D01*
X101911544Y-95926784D01*
X101843624Y-95762812D01*
X101809000Y-95588741D01*
X101809000Y-95411259D01*
X101843624Y-95237188D01*
X101911544Y-95073216D01*
X102010147Y-94925646D01*
X102135646Y-94800147D01*
X102283216Y-94701544D01*
X102447188Y-94633624D01*
X102596488Y-94603927D01*
X102621258Y-94599000D01*
X102798742Y-94599000D01*
X102823512Y-94603927D01*
G37*
G36*
X136961000Y-90991000D02*
G01*
X135159000Y-90991000D01*
X135159000Y-89189000D01*
X136961000Y-89189000D01*
X136961000Y-90991000D01*
G37*
G36*
X144878228Y-86891703D02*
G01*
X145033100Y-86955853D01*
X145172481Y-87048985D01*
X145291015Y-87167519D01*
X145384147Y-87306900D01*
X145448297Y-87461772D01*
X145481000Y-87626184D01*
X145481000Y-87793816D01*
X145448297Y-87958228D01*
X145384147Y-88113100D01*
X145291015Y-88252481D01*
X145172481Y-88371015D01*
X145033100Y-88464147D01*
X144878228Y-88528297D01*
X144713816Y-88561000D01*
X144546184Y-88561000D01*
X144381772Y-88528297D01*
X144226900Y-88464147D01*
X144087519Y-88371015D01*
X143968985Y-88252481D01*
X143875853Y-88113100D01*
X143811703Y-87958228D01*
X143779000Y-87793816D01*
X143779000Y-87626184D01*
X143811703Y-87461772D01*
X143875853Y-87306900D01*
X143968985Y-87167519D01*
X144087519Y-87048985D01*
X144226900Y-86955853D01*
X144381772Y-86891703D01*
X144546184Y-86859000D01*
X144713816Y-86859000D01*
X144878228Y-86891703D01*
G37*
G36*
X153101000Y-88561000D02*
G01*
X151399000Y-88561000D01*
X151399000Y-86859000D01*
X153101000Y-86859000D01*
X153101000Y-88561000D01*
G37*
G36*
X136173512Y-86653927D02*
G01*
X136322812Y-86683624D01*
X136486784Y-86751544D01*
X136634354Y-86850147D01*
X136759853Y-86975646D01*
X136858456Y-87123216D01*
X136926376Y-87287188D01*
X136961000Y-87461259D01*
X136961000Y-87638741D01*
X136926376Y-87812812D01*
X136858456Y-87976784D01*
X136759853Y-88124354D01*
X136634354Y-88249853D01*
X136486784Y-88348456D01*
X136322812Y-88416376D01*
X136173512Y-88446073D01*
X136148742Y-88451000D01*
X135971258Y-88451000D01*
X135946488Y-88446073D01*
X135797188Y-88416376D01*
X135633216Y-88348456D01*
X135485646Y-88249853D01*
X135360147Y-88124354D01*
X135261544Y-87976784D01*
X135193624Y-87812812D01*
X135159000Y-87638741D01*
X135159000Y-87461259D01*
X135193624Y-87287188D01*
X135261544Y-87123216D01*
X135360147Y-86975646D01*
X135485646Y-86850147D01*
X135633216Y-86751544D01*
X135797188Y-86683624D01*
X135946488Y-86653927D01*
X135971258Y-86649000D01*
X136148742Y-86649000D01*
X136173512Y-86653927D01*
G37*
G36*
X136173512Y-84113927D02*
G01*
X136322812Y-84143624D01*
X136486784Y-84211544D01*
X136634354Y-84310147D01*
X136759853Y-84435646D01*
X136858456Y-84583216D01*
X136926376Y-84747188D01*
X136961000Y-84921259D01*
X136961000Y-85098741D01*
X136926376Y-85272812D01*
X136858456Y-85436784D01*
X136759853Y-85584354D01*
X136634354Y-85709853D01*
X136486784Y-85808456D01*
X136322812Y-85876376D01*
X136173512Y-85906073D01*
X136148742Y-85911000D01*
X135971258Y-85911000D01*
X135946488Y-85906073D01*
X135797188Y-85876376D01*
X135633216Y-85808456D01*
X135485646Y-85709853D01*
X135360147Y-85584354D01*
X135261544Y-85436784D01*
X135193624Y-85272812D01*
X135159000Y-85098741D01*
X135159000Y-84921259D01*
X135193624Y-84747188D01*
X135261544Y-84583216D01*
X135360147Y-84435646D01*
X135485646Y-84310147D01*
X135633216Y-84211544D01*
X135797188Y-84143624D01*
X135946488Y-84113927D01*
X135971258Y-84109000D01*
X136148742Y-84109000D01*
X136173512Y-84113927D01*
G37*
G36*
X131993512Y-70273927D02*
G01*
X132142812Y-70303624D01*
X132306784Y-70371544D01*
X132454354Y-70470147D01*
X132579853Y-70595646D01*
X132678456Y-70743216D01*
X132746376Y-70907188D01*
X132781000Y-71081259D01*
X132781000Y-71258741D01*
X132746376Y-71432812D01*
X132678456Y-71596784D01*
X132579853Y-71744354D01*
X132454354Y-71869853D01*
X132306784Y-71968456D01*
X132142812Y-72036376D01*
X131993512Y-72066073D01*
X131968742Y-72071000D01*
X131791258Y-72071000D01*
X131766488Y-72066073D01*
X131617188Y-72036376D01*
X131453216Y-71968456D01*
X131305646Y-71869853D01*
X131180147Y-71744354D01*
X131081544Y-71596784D01*
X131013624Y-71432812D01*
X130979000Y-71258741D01*
X130979000Y-71081259D01*
X131013624Y-70907188D01*
X131081544Y-70743216D01*
X131180147Y-70595646D01*
X131305646Y-70470147D01*
X131453216Y-70371544D01*
X131617188Y-70303624D01*
X131766488Y-70273927D01*
X131791258Y-70269000D01*
X131968742Y-70269000D01*
X131993512Y-70273927D01*
G37*
G36*
X154973512Y-70263927D02*
G01*
X155122812Y-70293624D01*
X155286784Y-70361544D01*
X155434354Y-70460147D01*
X155559853Y-70585646D01*
X155658456Y-70733216D01*
X155726376Y-70897188D01*
X155761000Y-71071259D01*
X155761000Y-71248741D01*
X155726376Y-71422812D01*
X155658456Y-71586784D01*
X155559853Y-71734354D01*
X155434354Y-71859853D01*
X155286784Y-71958456D01*
X155122812Y-72026376D01*
X154973512Y-72056073D01*
X154948742Y-72061000D01*
X154771258Y-72061000D01*
X154746488Y-72056073D01*
X154597188Y-72026376D01*
X154433216Y-71958456D01*
X154285646Y-71859853D01*
X154160147Y-71734354D01*
X154061544Y-71586784D01*
X153993624Y-71422812D01*
X153959000Y-71248741D01*
X153959000Y-71071259D01*
X153993624Y-70897188D01*
X154061544Y-70733216D01*
X154160147Y-70585646D01*
X154285646Y-70460147D01*
X154433216Y-70361544D01*
X154597188Y-70293624D01*
X154746488Y-70263927D01*
X154771258Y-70259000D01*
X154948742Y-70259000D01*
X154973512Y-70263927D01*
G37*
G36*
X131993512Y-67733927D02*
G01*
X132142812Y-67763624D01*
X132306784Y-67831544D01*
X132454354Y-67930147D01*
X132579853Y-68055646D01*
X132678456Y-68203216D01*
X132746376Y-68367188D01*
X132781000Y-68541259D01*
X132781000Y-68718741D01*
X132746376Y-68892812D01*
X132678456Y-69056784D01*
X132579853Y-69204354D01*
X132454354Y-69329853D01*
X132306784Y-69428456D01*
X132142812Y-69496376D01*
X131993512Y-69526073D01*
X131968742Y-69531000D01*
X131791258Y-69531000D01*
X131766488Y-69526073D01*
X131617188Y-69496376D01*
X131453216Y-69428456D01*
X131305646Y-69329853D01*
X131180147Y-69204354D01*
X131081544Y-69056784D01*
X131013624Y-68892812D01*
X130979000Y-68718741D01*
X130979000Y-68541259D01*
X131013624Y-68367188D01*
X131081544Y-68203216D01*
X131180147Y-68055646D01*
X131305646Y-67930147D01*
X131453216Y-67831544D01*
X131617188Y-67763624D01*
X131766488Y-67733927D01*
X131791258Y-67729000D01*
X131968742Y-67729000D01*
X131993512Y-67733927D01*
G37*
G36*
X154973512Y-67723927D02*
G01*
X155122812Y-67753624D01*
X155286784Y-67821544D01*
X155434354Y-67920147D01*
X155559853Y-68045646D01*
X155658456Y-68193216D01*
X155726376Y-68357188D01*
X155761000Y-68531259D01*
X155761000Y-68708741D01*
X155726376Y-68882812D01*
X155658456Y-69046784D01*
X155559853Y-69194354D01*
X155434354Y-69319853D01*
X155286784Y-69418456D01*
X155122812Y-69486376D01*
X154973512Y-69516073D01*
X154948742Y-69521000D01*
X154771258Y-69521000D01*
X154746488Y-69516073D01*
X154597188Y-69486376D01*
X154433216Y-69418456D01*
X154285646Y-69319853D01*
X154160147Y-69194354D01*
X154061544Y-69046784D01*
X153993624Y-68882812D01*
X153959000Y-68708741D01*
X153959000Y-68531259D01*
X153993624Y-68357188D01*
X154061544Y-68193216D01*
X154160147Y-68045646D01*
X154285646Y-67920147D01*
X154433216Y-67821544D01*
X154597188Y-67753624D01*
X154746488Y-67723927D01*
X154771258Y-67719000D01*
X154948742Y-67719000D01*
X154973512Y-67723927D01*
G37*
G36*
X131993512Y-65193927D02*
G01*
X132142812Y-65223624D01*
X132306784Y-65291544D01*
X132454354Y-65390147D01*
X132579853Y-65515646D01*
X132678456Y-65663216D01*
X132746376Y-65827188D01*
X132772072Y-65956375D01*
X132778960Y-65991000D01*
X132781000Y-66001259D01*
X132781000Y-66178741D01*
X132746376Y-66352812D01*
X132678456Y-66516784D01*
X132579853Y-66664354D01*
X132454354Y-66789853D01*
X132306784Y-66888456D01*
X132142812Y-66956376D01*
X131993512Y-66986073D01*
X131968742Y-66991000D01*
X131791258Y-66991000D01*
X131766488Y-66986073D01*
X131617188Y-66956376D01*
X131453216Y-66888456D01*
X131305646Y-66789853D01*
X131180147Y-66664354D01*
X131081544Y-66516784D01*
X131013624Y-66352812D01*
X130979000Y-66178741D01*
X130979000Y-66001259D01*
X130981041Y-65991000D01*
X130987928Y-65956375D01*
X131013624Y-65827188D01*
X131081544Y-65663216D01*
X131180147Y-65515646D01*
X131305646Y-65390147D01*
X131453216Y-65291544D01*
X131617188Y-65223624D01*
X131766488Y-65193927D01*
X131791258Y-65189000D01*
X131968742Y-65189000D01*
X131993512Y-65193927D01*
G37*
G36*
X154973512Y-65183927D02*
G01*
X155122812Y-65213624D01*
X155286784Y-65281544D01*
X155434354Y-65380147D01*
X155559853Y-65505646D01*
X155658456Y-65653216D01*
X155726376Y-65817188D01*
X155756073Y-65966488D01*
X155760949Y-65991000D01*
X155761000Y-65991259D01*
X155761000Y-66168741D01*
X155726376Y-66342812D01*
X155658456Y-66506784D01*
X155559853Y-66654354D01*
X155434354Y-66779853D01*
X155286784Y-66878456D01*
X155122812Y-66946376D01*
X154973512Y-66976073D01*
X154948742Y-66981000D01*
X154771258Y-66981000D01*
X154746488Y-66976073D01*
X154597188Y-66946376D01*
X154433216Y-66878456D01*
X154285646Y-66779853D01*
X154160147Y-66654354D01*
X154061544Y-66506784D01*
X153993624Y-66342812D01*
X153959000Y-66168741D01*
X153959000Y-65991259D01*
X153959052Y-65991000D01*
X153963927Y-65966488D01*
X153993624Y-65817188D01*
X154061544Y-65653216D01*
X154160147Y-65505646D01*
X154285646Y-65380147D01*
X154433216Y-65281544D01*
X154597188Y-65213624D01*
X154746488Y-65183927D01*
X154771258Y-65179000D01*
X154948742Y-65179000D01*
X154973512Y-65183927D01*
G37*
G36*
X105023512Y-64193927D02*
G01*
X105172812Y-64223624D01*
X105336784Y-64291544D01*
X105484354Y-64390147D01*
X105609853Y-64515646D01*
X105708456Y-64663216D01*
X105776376Y-64827188D01*
X105806073Y-64976488D01*
X105811000Y-65001258D01*
X105811000Y-65178742D01*
X105806073Y-65203512D01*
X105776376Y-65352812D01*
X105708456Y-65516784D01*
X105609853Y-65664354D01*
X105484354Y-65789853D01*
X105336784Y-65888456D01*
X105172812Y-65956376D01*
X105023512Y-65986073D01*
X104998742Y-65991000D01*
X104821258Y-65991000D01*
X104796488Y-65986073D01*
X104647188Y-65956376D01*
X104483216Y-65888456D01*
X104335646Y-65789853D01*
X104210147Y-65664354D01*
X104111544Y-65516784D01*
X104043624Y-65352812D01*
X104013927Y-65203512D01*
X104009000Y-65178742D01*
X104009000Y-65001258D01*
X104013927Y-64976488D01*
X104043624Y-64827188D01*
X104111544Y-64663216D01*
X104210147Y-64515646D01*
X104335646Y-64390147D01*
X104483216Y-64291544D01*
X104647188Y-64223624D01*
X104796488Y-64193927D01*
X104821258Y-64189000D01*
X104998742Y-64189000D01*
X105023512Y-64193927D01*
G37*
G36*
X107563512Y-64193927D02*
G01*
X107712812Y-64223624D01*
X107876784Y-64291544D01*
X108024354Y-64390147D01*
X108149853Y-64515646D01*
X108248456Y-64663216D01*
X108316376Y-64827188D01*
X108346073Y-64976488D01*
X108351000Y-65001258D01*
X108351000Y-65178742D01*
X108346073Y-65203512D01*
X108316376Y-65352812D01*
X108248456Y-65516784D01*
X108149853Y-65664354D01*
X108024354Y-65789853D01*
X107876784Y-65888456D01*
X107712812Y-65956376D01*
X107563512Y-65986073D01*
X107538742Y-65991000D01*
X107361258Y-65991000D01*
X107336488Y-65986073D01*
X107187188Y-65956376D01*
X107023216Y-65888456D01*
X106875646Y-65789853D01*
X106750147Y-65664354D01*
X106651544Y-65516784D01*
X106583624Y-65352812D01*
X106553927Y-65203512D01*
X106549000Y-65178742D01*
X106549000Y-65001258D01*
X106553927Y-64976488D01*
X106583624Y-64827188D01*
X106651544Y-64663216D01*
X106750147Y-64515646D01*
X106875646Y-64390147D01*
X107023216Y-64291544D01*
X107187188Y-64223624D01*
X107336488Y-64193927D01*
X107361258Y-64189000D01*
X107538742Y-64189000D01*
X107563512Y-64193927D01*
G37*
G36*
X110103512Y-64193927D02*
G01*
X110252812Y-64223624D01*
X110416784Y-64291544D01*
X110564354Y-64390147D01*
X110689853Y-64515646D01*
X110788456Y-64663216D01*
X110856376Y-64827188D01*
X110886073Y-64976488D01*
X110891000Y-65001258D01*
X110891000Y-65178742D01*
X110886073Y-65203512D01*
X110856376Y-65352812D01*
X110788456Y-65516784D01*
X110689853Y-65664354D01*
X110564354Y-65789853D01*
X110416784Y-65888456D01*
X110252812Y-65956376D01*
X110103512Y-65986073D01*
X110078742Y-65991000D01*
X109901258Y-65991000D01*
X109876488Y-65986073D01*
X109727188Y-65956376D01*
X109563216Y-65888456D01*
X109415646Y-65789853D01*
X109290147Y-65664354D01*
X109191544Y-65516784D01*
X109123624Y-65352812D01*
X109093927Y-65203512D01*
X109089000Y-65178742D01*
X109089000Y-65001258D01*
X109093927Y-64976488D01*
X109123624Y-64827188D01*
X109191544Y-64663216D01*
X109290147Y-64515646D01*
X109415646Y-64390147D01*
X109563216Y-64291544D01*
X109727188Y-64223624D01*
X109876488Y-64193927D01*
X109901258Y-64189000D01*
X110078742Y-64189000D01*
X110103512Y-64193927D01*
G37*
G36*
X112643512Y-64193927D02*
G01*
X112792812Y-64223624D01*
X112956784Y-64291544D01*
X113104354Y-64390147D01*
X113229853Y-64515646D01*
X113328456Y-64663216D01*
X113396376Y-64827188D01*
X113426073Y-64976488D01*
X113431000Y-65001258D01*
X113431000Y-65178742D01*
X113426073Y-65203512D01*
X113396376Y-65352812D01*
X113328456Y-65516784D01*
X113229853Y-65664354D01*
X113104354Y-65789853D01*
X112956784Y-65888456D01*
X112792812Y-65956376D01*
X112643512Y-65986073D01*
X112618742Y-65991000D01*
X112441258Y-65991000D01*
X112416488Y-65986073D01*
X112267188Y-65956376D01*
X112103216Y-65888456D01*
X111955646Y-65789853D01*
X111830147Y-65664354D01*
X111731544Y-65516784D01*
X111663624Y-65352812D01*
X111633927Y-65203512D01*
X111629000Y-65178742D01*
X111629000Y-65001258D01*
X111633927Y-64976488D01*
X111663624Y-64827188D01*
X111731544Y-64663216D01*
X111830147Y-64515646D01*
X111955646Y-64390147D01*
X112103216Y-64291544D01*
X112267188Y-64223624D01*
X112416488Y-64193927D01*
X112441258Y-64189000D01*
X112618742Y-64189000D01*
X112643512Y-64193927D01*
G37*
G36*
X115183512Y-64193927D02*
G01*
X115332812Y-64223624D01*
X115496784Y-64291544D01*
X115644354Y-64390147D01*
X115769853Y-64515646D01*
X115868456Y-64663216D01*
X115936376Y-64827188D01*
X115966073Y-64976488D01*
X115971000Y-65001258D01*
X115971000Y-65178742D01*
X115966073Y-65203512D01*
X115936376Y-65352812D01*
X115868456Y-65516784D01*
X115769853Y-65664354D01*
X115644354Y-65789853D01*
X115496784Y-65888456D01*
X115332812Y-65956376D01*
X115183512Y-65986073D01*
X115158742Y-65991000D01*
X114981258Y-65991000D01*
X114956488Y-65986073D01*
X114807188Y-65956376D01*
X114643216Y-65888456D01*
X114495646Y-65789853D01*
X114370147Y-65664354D01*
X114271544Y-65516784D01*
X114203624Y-65352812D01*
X114173927Y-65203512D01*
X114169000Y-65178742D01*
X114169000Y-65001258D01*
X114173927Y-64976488D01*
X114203624Y-64827188D01*
X114271544Y-64663216D01*
X114370147Y-64515646D01*
X114495646Y-64390147D01*
X114643216Y-64291544D01*
X114807188Y-64223624D01*
X114956488Y-64193927D01*
X114981258Y-64189000D01*
X115158742Y-64189000D01*
X115183512Y-64193927D01*
G37*
G36*
X131993512Y-62653927D02*
G01*
X132142812Y-62683624D01*
X132306784Y-62751544D01*
X132454354Y-62850147D01*
X132579853Y-62975646D01*
X132678456Y-63123216D01*
X132746376Y-63287188D01*
X132772072Y-63416375D01*
X132778960Y-63451000D01*
X132781000Y-63461259D01*
X132781000Y-63638741D01*
X132746376Y-63812812D01*
X132678456Y-63976784D01*
X132579853Y-64124354D01*
X132454354Y-64249853D01*
X132306784Y-64348456D01*
X132142812Y-64416376D01*
X131993512Y-64446073D01*
X131968742Y-64451000D01*
X131791258Y-64451000D01*
X131766488Y-64446073D01*
X131617188Y-64416376D01*
X131453216Y-64348456D01*
X131305646Y-64249853D01*
X131180147Y-64124354D01*
X131081544Y-63976784D01*
X131013624Y-63812812D01*
X130979000Y-63638741D01*
X130979000Y-63461259D01*
X130981041Y-63451000D01*
X130987928Y-63416375D01*
X131013624Y-63287188D01*
X131081544Y-63123216D01*
X131180147Y-62975646D01*
X131305646Y-62850147D01*
X131453216Y-62751544D01*
X131617188Y-62683624D01*
X131766488Y-62653927D01*
X131791258Y-62649000D01*
X131968742Y-62649000D01*
X131993512Y-62653927D01*
G37*
G36*
X154973512Y-62643927D02*
G01*
X155122812Y-62673624D01*
X155286784Y-62741544D01*
X155434354Y-62840147D01*
X155559853Y-62965646D01*
X155658456Y-63113216D01*
X155726376Y-63277188D01*
X155756073Y-63426488D01*
X155760949Y-63451000D01*
X155761000Y-63451259D01*
X155761000Y-63628741D01*
X155726376Y-63802812D01*
X155658456Y-63966784D01*
X155559853Y-64114354D01*
X155434354Y-64239853D01*
X155286784Y-64338456D01*
X155122812Y-64406376D01*
X154973512Y-64436073D01*
X154948742Y-64441000D01*
X154771258Y-64441000D01*
X154746488Y-64436073D01*
X154597188Y-64406376D01*
X154433216Y-64338456D01*
X154285646Y-64239853D01*
X154160147Y-64114354D01*
X154061544Y-63966784D01*
X153993624Y-63802812D01*
X153959000Y-63628741D01*
X153959000Y-63451259D01*
X153959052Y-63451000D01*
X153963927Y-63426488D01*
X153993624Y-63277188D01*
X154061544Y-63113216D01*
X154160147Y-62965646D01*
X154285646Y-62840147D01*
X154433216Y-62741544D01*
X154597188Y-62673624D01*
X154746488Y-62643927D01*
X154771258Y-62639000D01*
X154948742Y-62639000D01*
X154973512Y-62643927D01*
G37*
G36*
X115971000Y-63451000D02*
G01*
X114169000Y-63451000D01*
X114169000Y-61649000D01*
X115971000Y-61649000D01*
X115971000Y-63451000D01*
G37*
G36*
X112643512Y-61653927D02*
G01*
X112792812Y-61683624D01*
X112956784Y-61751544D01*
X113104354Y-61850147D01*
X113229853Y-61975646D01*
X113328456Y-62123216D01*
X113396376Y-62287188D01*
X113426073Y-62436488D01*
X113431000Y-62461258D01*
X113431000Y-62638742D01*
X113426073Y-62663512D01*
X113396376Y-62812812D01*
X113328456Y-62976784D01*
X113229853Y-63124354D01*
X113104354Y-63249853D01*
X112956784Y-63348456D01*
X112792812Y-63416376D01*
X112643512Y-63446073D01*
X112618742Y-63451000D01*
X112441258Y-63451000D01*
X112416488Y-63446073D01*
X112267188Y-63416376D01*
X112103216Y-63348456D01*
X111955646Y-63249853D01*
X111830147Y-63124354D01*
X111731544Y-62976784D01*
X111663624Y-62812812D01*
X111633927Y-62663512D01*
X111629000Y-62638742D01*
X111629000Y-62461258D01*
X111633927Y-62436488D01*
X111663624Y-62287188D01*
X111731544Y-62123216D01*
X111830147Y-61975646D01*
X111955646Y-61850147D01*
X112103216Y-61751544D01*
X112267188Y-61683624D01*
X112416488Y-61653927D01*
X112441258Y-61649000D01*
X112618742Y-61649000D01*
X112643512Y-61653927D01*
G37*
G36*
X110103512Y-61653927D02*
G01*
X110252812Y-61683624D01*
X110416784Y-61751544D01*
X110564354Y-61850147D01*
X110689853Y-61975646D01*
X110788456Y-62123216D01*
X110856376Y-62287188D01*
X110886073Y-62436488D01*
X110891000Y-62461258D01*
X110891000Y-62638742D01*
X110886073Y-62663512D01*
X110856376Y-62812812D01*
X110788456Y-62976784D01*
X110689853Y-63124354D01*
X110564354Y-63249853D01*
X110416784Y-63348456D01*
X110252812Y-63416376D01*
X110103512Y-63446073D01*
X110078742Y-63451000D01*
X109901258Y-63451000D01*
X109876488Y-63446073D01*
X109727188Y-63416376D01*
X109563216Y-63348456D01*
X109415646Y-63249853D01*
X109290147Y-63124354D01*
X109191544Y-62976784D01*
X109123624Y-62812812D01*
X109093927Y-62663512D01*
X109089000Y-62638742D01*
X109089000Y-62461258D01*
X109093927Y-62436488D01*
X109123624Y-62287188D01*
X109191544Y-62123216D01*
X109290147Y-61975646D01*
X109415646Y-61850147D01*
X109563216Y-61751544D01*
X109727188Y-61683624D01*
X109876488Y-61653927D01*
X109901258Y-61649000D01*
X110078742Y-61649000D01*
X110103512Y-61653927D01*
G37*
G36*
X107563512Y-61653927D02*
G01*
X107712812Y-61683624D01*
X107876784Y-61751544D01*
X108024354Y-61850147D01*
X108149853Y-61975646D01*
X108248456Y-62123216D01*
X108316376Y-62287188D01*
X108346073Y-62436488D01*
X108351000Y-62461258D01*
X108351000Y-62638742D01*
X108346073Y-62663512D01*
X108316376Y-62812812D01*
X108248456Y-62976784D01*
X108149853Y-63124354D01*
X108024354Y-63249853D01*
X107876784Y-63348456D01*
X107712812Y-63416376D01*
X107563512Y-63446073D01*
X107538742Y-63451000D01*
X107361258Y-63451000D01*
X107336488Y-63446073D01*
X107187188Y-63416376D01*
X107023216Y-63348456D01*
X106875646Y-63249853D01*
X106750147Y-63124354D01*
X106651544Y-62976784D01*
X106583624Y-62812812D01*
X106553927Y-62663512D01*
X106549000Y-62638742D01*
X106549000Y-62461258D01*
X106553927Y-62436488D01*
X106583624Y-62287188D01*
X106651544Y-62123216D01*
X106750147Y-61975646D01*
X106875646Y-61850147D01*
X107023216Y-61751544D01*
X107187188Y-61683624D01*
X107336488Y-61653927D01*
X107361258Y-61649000D01*
X107538742Y-61649000D01*
X107563512Y-61653927D01*
G37*
G36*
X105023512Y-61653927D02*
G01*
X105172812Y-61683624D01*
X105336784Y-61751544D01*
X105484354Y-61850147D01*
X105609853Y-61975646D01*
X105708456Y-62123216D01*
X105776376Y-62287188D01*
X105806073Y-62436488D01*
X105811000Y-62461258D01*
X105811000Y-62638742D01*
X105806073Y-62663512D01*
X105776376Y-62812812D01*
X105708456Y-62976784D01*
X105609853Y-63124354D01*
X105484354Y-63249853D01*
X105336784Y-63348456D01*
X105172812Y-63416376D01*
X105023512Y-63446073D01*
X104998742Y-63451000D01*
X104821258Y-63451000D01*
X104796488Y-63446073D01*
X104647188Y-63416376D01*
X104483216Y-63348456D01*
X104335646Y-63249853D01*
X104210147Y-63124354D01*
X104111544Y-62976784D01*
X104043624Y-62812812D01*
X104013927Y-62663512D01*
X104009000Y-62638742D01*
X104009000Y-62461258D01*
X104013927Y-62436488D01*
X104043624Y-62287188D01*
X104111544Y-62123216D01*
X104210147Y-61975646D01*
X104335646Y-61850147D01*
X104483216Y-61751544D01*
X104647188Y-61683624D01*
X104796488Y-61653927D01*
X104821258Y-61649000D01*
X104998742Y-61649000D01*
X105023512Y-61653927D01*
G37*
G36*
X131993512Y-60113927D02*
G01*
X132142812Y-60143624D01*
X132306784Y-60211544D01*
X132454354Y-60310147D01*
X132579853Y-60435646D01*
X132678456Y-60583216D01*
X132746376Y-60747188D01*
X132781000Y-60921259D01*
X132781000Y-61098741D01*
X132746376Y-61272812D01*
X132678456Y-61436784D01*
X132579853Y-61584354D01*
X132454354Y-61709853D01*
X132306784Y-61808456D01*
X132142812Y-61876376D01*
X131993512Y-61906073D01*
X131968742Y-61911000D01*
X131791258Y-61911000D01*
X131766488Y-61906073D01*
X131617188Y-61876376D01*
X131453216Y-61808456D01*
X131305646Y-61709853D01*
X131180147Y-61584354D01*
X131081544Y-61436784D01*
X131013624Y-61272812D01*
X130979000Y-61098741D01*
X130979000Y-60921259D01*
X131013624Y-60747188D01*
X131081544Y-60583216D01*
X131180147Y-60435646D01*
X131305646Y-60310147D01*
X131453216Y-60211544D01*
X131617188Y-60143624D01*
X131766488Y-60113927D01*
X131791258Y-60109000D01*
X131968742Y-60109000D01*
X131993512Y-60113927D01*
G37*
G36*
X154973512Y-60103927D02*
G01*
X155122812Y-60133624D01*
X155286784Y-60201544D01*
X155434354Y-60300147D01*
X155559853Y-60425646D01*
X155658456Y-60573216D01*
X155726376Y-60737188D01*
X155761000Y-60911259D01*
X155761000Y-61088741D01*
X155726376Y-61262812D01*
X155658456Y-61426784D01*
X155559853Y-61574354D01*
X155434354Y-61699853D01*
X155286784Y-61798456D01*
X155122812Y-61866376D01*
X154973512Y-61896073D01*
X154948742Y-61901000D01*
X154771258Y-61901000D01*
X154746488Y-61896073D01*
X154597188Y-61866376D01*
X154433216Y-61798456D01*
X154285646Y-61699853D01*
X154160147Y-61574354D01*
X154061544Y-61426784D01*
X153993624Y-61262812D01*
X153959000Y-61088741D01*
X153959000Y-60911259D01*
X153993624Y-60737188D01*
X154061544Y-60573216D01*
X154160147Y-60425646D01*
X154285646Y-60300147D01*
X154433216Y-60201544D01*
X154597188Y-60133624D01*
X154746488Y-60103927D01*
X154771258Y-60099000D01*
X154948742Y-60099000D01*
X154973512Y-60103927D01*
G37*
G36*
X131993512Y-57573927D02*
G01*
X132142812Y-57603624D01*
X132306784Y-57671544D01*
X132454354Y-57770147D01*
X132579853Y-57895646D01*
X132678456Y-58043216D01*
X132746376Y-58207188D01*
X132781000Y-58381259D01*
X132781000Y-58558741D01*
X132746376Y-58732812D01*
X132678456Y-58896784D01*
X132579853Y-59044354D01*
X132454354Y-59169853D01*
X132306784Y-59268456D01*
X132142812Y-59336376D01*
X131993512Y-59366073D01*
X131968742Y-59371000D01*
X131791258Y-59371000D01*
X131766488Y-59366073D01*
X131617188Y-59336376D01*
X131453216Y-59268456D01*
X131305646Y-59169853D01*
X131180147Y-59044354D01*
X131081544Y-58896784D01*
X131013624Y-58732812D01*
X130979000Y-58558741D01*
X130979000Y-58381259D01*
X131013624Y-58207188D01*
X131081544Y-58043216D01*
X131180147Y-57895646D01*
X131305646Y-57770147D01*
X131453216Y-57671544D01*
X131617188Y-57603624D01*
X131766488Y-57573927D01*
X131791258Y-57569000D01*
X131968742Y-57569000D01*
X131993512Y-57573927D01*
G37*
G36*
X154973512Y-57563927D02*
G01*
X155122812Y-57593624D01*
X155286784Y-57661544D01*
X155434354Y-57760147D01*
X155559853Y-57885646D01*
X155658456Y-58033216D01*
X155726376Y-58197188D01*
X155761000Y-58371259D01*
X155761000Y-58548741D01*
X155726376Y-58722812D01*
X155658456Y-58886784D01*
X155559853Y-59034354D01*
X155434354Y-59159853D01*
X155286784Y-59258456D01*
X155122812Y-59326376D01*
X154973512Y-59356073D01*
X154948742Y-59361000D01*
X154771258Y-59361000D01*
X154746488Y-59356073D01*
X154597188Y-59326376D01*
X154433216Y-59258456D01*
X154285646Y-59159853D01*
X154160147Y-59034354D01*
X154061544Y-58886784D01*
X153993624Y-58722812D01*
X153959000Y-58548741D01*
X153959000Y-58371259D01*
X153993624Y-58197188D01*
X154061544Y-58033216D01*
X154160147Y-57885646D01*
X154285646Y-57760147D01*
X154433216Y-57661544D01*
X154597188Y-57593624D01*
X154746488Y-57563927D01*
X154771258Y-57559000D01*
X154948742Y-57559000D01*
X154973512Y-57563927D01*
G37*
G36*
X131993512Y-55033927D02*
G01*
X132142812Y-55063624D01*
X132306784Y-55131544D01*
X132454354Y-55230147D01*
X132579853Y-55355646D01*
X132678456Y-55503216D01*
X132746376Y-55667188D01*
X132781000Y-55841259D01*
X132781000Y-56018741D01*
X132746376Y-56192812D01*
X132678456Y-56356784D01*
X132579853Y-56504354D01*
X132454354Y-56629853D01*
X132306784Y-56728456D01*
X132142812Y-56796376D01*
X131993512Y-56826073D01*
X131968742Y-56831000D01*
X131791258Y-56831000D01*
X131766488Y-56826073D01*
X131617188Y-56796376D01*
X131453216Y-56728456D01*
X131305646Y-56629853D01*
X131180147Y-56504354D01*
X131081544Y-56356784D01*
X131013624Y-56192812D01*
X130979000Y-56018741D01*
X130979000Y-55841259D01*
X131013624Y-55667188D01*
X131081544Y-55503216D01*
X131180147Y-55355646D01*
X131305646Y-55230147D01*
X131453216Y-55131544D01*
X131617188Y-55063624D01*
X131766488Y-55033927D01*
X131791258Y-55029000D01*
X131968742Y-55029000D01*
X131993512Y-55033927D01*
G37*
G36*
X154973512Y-55023927D02*
G01*
X155122812Y-55053624D01*
X155286784Y-55121544D01*
X155434354Y-55220147D01*
X155559853Y-55345646D01*
X155658456Y-55493216D01*
X155726376Y-55657188D01*
X155761000Y-55831259D01*
X155761000Y-56008741D01*
X155726376Y-56182812D01*
X155658456Y-56346784D01*
X155559853Y-56494354D01*
X155434354Y-56619853D01*
X155286784Y-56718456D01*
X155122812Y-56786376D01*
X154973512Y-56816073D01*
X154948742Y-56821000D01*
X154771258Y-56821000D01*
X154746488Y-56816073D01*
X154597188Y-56786376D01*
X154433216Y-56718456D01*
X154285646Y-56619853D01*
X154160147Y-56494354D01*
X154061544Y-56346784D01*
X153993624Y-56182812D01*
X153959000Y-56008741D01*
X153959000Y-55831259D01*
X153993624Y-55657188D01*
X154061544Y-55493216D01*
X154160147Y-55345646D01*
X154285646Y-55220147D01*
X154433216Y-55121544D01*
X154597188Y-55053624D01*
X154746488Y-55023927D01*
X154771258Y-55019000D01*
X154948742Y-55019000D01*
X154973512Y-55023927D01*
G37*
G36*
X172153512Y-52723927D02*
G01*
X172302812Y-52753624D01*
X172466784Y-52821544D01*
X172614354Y-52920147D01*
X172739853Y-53045646D01*
X172838456Y-53193216D01*
X172906376Y-53357188D01*
X172941000Y-53531259D01*
X172941000Y-53708741D01*
X172906376Y-53882812D01*
X172838456Y-54046784D01*
X172739853Y-54194354D01*
X172614354Y-54319853D01*
X172466784Y-54418456D01*
X172302812Y-54486376D01*
X172153512Y-54516073D01*
X172128742Y-54521000D01*
X171951258Y-54521000D01*
X171926488Y-54516073D01*
X171777188Y-54486376D01*
X171613216Y-54418456D01*
X171465646Y-54319853D01*
X171340147Y-54194354D01*
X171241544Y-54046784D01*
X171173624Y-53882812D01*
X171139000Y-53708741D01*
X171139000Y-53531259D01*
X171173624Y-53357188D01*
X171241544Y-53193216D01*
X171340147Y-53045646D01*
X171465646Y-52920147D01*
X171613216Y-52821544D01*
X171777188Y-52753624D01*
X171926488Y-52723927D01*
X171951258Y-52719000D01*
X172128742Y-52719000D01*
X172153512Y-52723927D01*
G37*
G36*
X169613512Y-52723927D02*
G01*
X169762812Y-52753624D01*
X169926784Y-52821544D01*
X170074354Y-52920147D01*
X170199853Y-53045646D01*
X170298456Y-53193216D01*
X170366376Y-53357188D01*
X170401000Y-53531259D01*
X170401000Y-53708741D01*
X170366376Y-53882812D01*
X170298456Y-54046784D01*
X170199853Y-54194354D01*
X170074354Y-54319853D01*
X169926784Y-54418456D01*
X169762812Y-54486376D01*
X169613512Y-54516073D01*
X169588742Y-54521000D01*
X169411258Y-54521000D01*
X169386488Y-54516073D01*
X169237188Y-54486376D01*
X169073216Y-54418456D01*
X168925646Y-54319853D01*
X168800147Y-54194354D01*
X168701544Y-54046784D01*
X168633624Y-53882812D01*
X168599000Y-53708741D01*
X168599000Y-53531259D01*
X168633624Y-53357188D01*
X168701544Y-53193216D01*
X168800147Y-53045646D01*
X168925646Y-52920147D01*
X169073216Y-52821544D01*
X169237188Y-52753624D01*
X169386488Y-52723927D01*
X169411258Y-52719000D01*
X169588742Y-52719000D01*
X169613512Y-52723927D01*
G37*
G36*
X131993512Y-52493927D02*
G01*
X132142812Y-52523624D01*
X132306784Y-52591544D01*
X132454354Y-52690147D01*
X132579853Y-52815646D01*
X132678456Y-52963216D01*
X132746376Y-53127188D01*
X132781000Y-53301259D01*
X132781000Y-53478741D01*
X132746376Y-53652812D01*
X132678456Y-53816784D01*
X132579853Y-53964354D01*
X132454354Y-54089853D01*
X132306784Y-54188456D01*
X132142812Y-54256376D01*
X131993512Y-54286073D01*
X131968742Y-54291000D01*
X131791258Y-54291000D01*
X131766488Y-54286073D01*
X131617188Y-54256376D01*
X131453216Y-54188456D01*
X131305646Y-54089853D01*
X131180147Y-53964354D01*
X131081544Y-53816784D01*
X131013624Y-53652812D01*
X130979000Y-53478741D01*
X130979000Y-53301259D01*
X131013624Y-53127188D01*
X131081544Y-52963216D01*
X131180147Y-52815646D01*
X131305646Y-52690147D01*
X131453216Y-52591544D01*
X131617188Y-52523624D01*
X131766488Y-52493927D01*
X131791258Y-52489000D01*
X131968742Y-52489000D01*
X131993512Y-52493927D01*
G37*
G36*
X154973512Y-52483927D02*
G01*
X155122812Y-52513624D01*
X155286784Y-52581544D01*
X155434354Y-52680147D01*
X155559853Y-52805646D01*
X155658456Y-52953216D01*
X155726376Y-53117188D01*
X155761000Y-53291259D01*
X155761000Y-53468741D01*
X155726376Y-53642812D01*
X155658456Y-53806784D01*
X155559853Y-53954354D01*
X155434354Y-54079853D01*
X155286784Y-54178456D01*
X155122812Y-54246376D01*
X154973512Y-54276073D01*
X154948742Y-54281000D01*
X154771258Y-54281000D01*
X154746488Y-54276073D01*
X154597188Y-54246376D01*
X154433216Y-54178456D01*
X154285646Y-54079853D01*
X154160147Y-53954354D01*
X154061544Y-53806784D01*
X153993624Y-53642812D01*
X153959000Y-53468741D01*
X153959000Y-53291259D01*
X153993624Y-53117188D01*
X154061544Y-52953216D01*
X154160147Y-52805646D01*
X154285646Y-52680147D01*
X154433216Y-52581544D01*
X154597188Y-52513624D01*
X154746488Y-52483927D01*
X154771258Y-52479000D01*
X154948742Y-52479000D01*
X154973512Y-52483927D01*
G37*
G36*
X169613512Y-50183927D02*
G01*
X169762812Y-50213624D01*
X169926784Y-50281544D01*
X170074354Y-50380147D01*
X170199853Y-50505646D01*
X170298456Y-50653216D01*
X170366376Y-50817188D01*
X170401000Y-50991259D01*
X170401000Y-51168741D01*
X170366376Y-51342812D01*
X170298456Y-51506784D01*
X170199853Y-51654354D01*
X170074354Y-51779853D01*
X169926784Y-51878456D01*
X169762812Y-51946376D01*
X169613512Y-51976073D01*
X169588742Y-51981000D01*
X169411258Y-51981000D01*
X169386488Y-51976073D01*
X169237188Y-51946376D01*
X169073216Y-51878456D01*
X168925646Y-51779853D01*
X168800147Y-51654354D01*
X168701544Y-51506784D01*
X168633624Y-51342812D01*
X168599000Y-51168741D01*
X168599000Y-50991259D01*
X168633624Y-50817188D01*
X168701544Y-50653216D01*
X168800147Y-50505646D01*
X168925646Y-50380147D01*
X169073216Y-50281544D01*
X169237188Y-50213624D01*
X169386488Y-50183927D01*
X169411258Y-50179000D01*
X169588742Y-50179000D01*
X169613512Y-50183927D01*
G37*
G36*
X172153512Y-50183927D02*
G01*
X172302812Y-50213624D01*
X172466784Y-50281544D01*
X172614354Y-50380147D01*
X172739853Y-50505646D01*
X172838456Y-50653216D01*
X172906376Y-50817188D01*
X172941000Y-50991259D01*
X172941000Y-51168741D01*
X172906376Y-51342812D01*
X172838456Y-51506784D01*
X172739853Y-51654354D01*
X172614354Y-51779853D01*
X172466784Y-51878456D01*
X172302812Y-51946376D01*
X172153512Y-51976073D01*
X172128742Y-51981000D01*
X171951258Y-51981000D01*
X171926488Y-51976073D01*
X171777188Y-51946376D01*
X171613216Y-51878456D01*
X171465646Y-51779853D01*
X171340147Y-51654354D01*
X171241544Y-51506784D01*
X171173624Y-51342812D01*
X171139000Y-51168741D01*
X171139000Y-50991259D01*
X171173624Y-50817188D01*
X171241544Y-50653216D01*
X171340147Y-50505646D01*
X171465646Y-50380147D01*
X171613216Y-50281544D01*
X171777188Y-50213624D01*
X171926488Y-50183927D01*
X171951258Y-50179000D01*
X172128742Y-50179000D01*
X172153512Y-50183927D01*
G37*
G36*
X131993512Y-49953927D02*
G01*
X132142812Y-49983624D01*
X132306784Y-50051544D01*
X132454354Y-50150147D01*
X132579853Y-50275646D01*
X132678456Y-50423216D01*
X132746376Y-50587188D01*
X132781000Y-50761259D01*
X132781000Y-50938741D01*
X132746376Y-51112812D01*
X132678456Y-51276784D01*
X132579853Y-51424354D01*
X132454354Y-51549853D01*
X132306784Y-51648456D01*
X132142812Y-51716376D01*
X131993512Y-51746073D01*
X131968742Y-51751000D01*
X131791258Y-51751000D01*
X131766488Y-51746073D01*
X131617188Y-51716376D01*
X131453216Y-51648456D01*
X131305646Y-51549853D01*
X131180147Y-51424354D01*
X131081544Y-51276784D01*
X131013624Y-51112812D01*
X130979000Y-50938741D01*
X130979000Y-50761259D01*
X131013624Y-50587188D01*
X131081544Y-50423216D01*
X131180147Y-50275646D01*
X131305646Y-50150147D01*
X131453216Y-50051544D01*
X131617188Y-49983624D01*
X131766488Y-49953927D01*
X131791258Y-49949000D01*
X131968742Y-49949000D01*
X131993512Y-49953927D01*
G37*
G36*
X154973512Y-49943927D02*
G01*
X155122812Y-49973624D01*
X155286784Y-50041544D01*
X155434354Y-50140147D01*
X155559853Y-50265646D01*
X155658456Y-50413216D01*
X155726376Y-50577188D01*
X155761000Y-50751259D01*
X155761000Y-50928741D01*
X155726376Y-51102812D01*
X155658456Y-51266784D01*
X155559853Y-51414354D01*
X155434354Y-51539853D01*
X155286784Y-51638456D01*
X155122812Y-51706376D01*
X154973512Y-51736073D01*
X154948742Y-51741000D01*
X154771258Y-51741000D01*
X154746488Y-51736073D01*
X154597188Y-51706376D01*
X154433216Y-51638456D01*
X154285646Y-51539853D01*
X154160147Y-51414354D01*
X154061544Y-51266784D01*
X153993624Y-51102812D01*
X153959000Y-50928741D01*
X153959000Y-50751259D01*
X153993624Y-50577188D01*
X154061544Y-50413216D01*
X154160147Y-50265646D01*
X154285646Y-50140147D01*
X154433216Y-50041544D01*
X154597188Y-49973624D01*
X154746488Y-49943927D01*
X154771258Y-49939000D01*
X154948742Y-49939000D01*
X154973512Y-49943927D01*
G37*
G36*
X172153512Y-47643927D02*
G01*
X172302812Y-47673624D01*
X172466784Y-47741544D01*
X172614354Y-47840147D01*
X172739853Y-47965646D01*
X172838456Y-48113216D01*
X172906376Y-48277188D01*
X172941000Y-48451259D01*
X172941000Y-48628741D01*
X172906376Y-48802812D01*
X172838456Y-48966784D01*
X172739853Y-49114354D01*
X172614354Y-49239853D01*
X172466784Y-49338456D01*
X172302812Y-49406376D01*
X172153512Y-49436073D01*
X172128742Y-49441000D01*
X171951258Y-49441000D01*
X171926488Y-49436073D01*
X171777188Y-49406376D01*
X171613216Y-49338456D01*
X171465646Y-49239853D01*
X171340147Y-49114354D01*
X171241544Y-48966784D01*
X171173624Y-48802812D01*
X171139000Y-48628741D01*
X171139000Y-48451259D01*
X171173624Y-48277188D01*
X171241544Y-48113216D01*
X171340147Y-47965646D01*
X171465646Y-47840147D01*
X171613216Y-47741544D01*
X171777188Y-47673624D01*
X171926488Y-47643927D01*
X171951258Y-47639000D01*
X172128742Y-47639000D01*
X172153512Y-47643927D01*
G37*
G36*
X169613512Y-47643927D02*
G01*
X169762812Y-47673624D01*
X169926784Y-47741544D01*
X170074354Y-47840147D01*
X170199853Y-47965646D01*
X170298456Y-48113216D01*
X170366376Y-48277188D01*
X170401000Y-48451259D01*
X170401000Y-48628741D01*
X170366376Y-48802812D01*
X170298456Y-48966784D01*
X170199853Y-49114354D01*
X170074354Y-49239853D01*
X169926784Y-49338456D01*
X169762812Y-49406376D01*
X169613512Y-49436073D01*
X169588742Y-49441000D01*
X169411258Y-49441000D01*
X169386488Y-49436073D01*
X169237188Y-49406376D01*
X169073216Y-49338456D01*
X168925646Y-49239853D01*
X168800147Y-49114354D01*
X168701544Y-48966784D01*
X168633624Y-48802812D01*
X168599000Y-48628741D01*
X168599000Y-48451259D01*
X168633624Y-48277188D01*
X168701544Y-48113216D01*
X168800147Y-47965646D01*
X168925646Y-47840147D01*
X169073216Y-47741544D01*
X169237188Y-47673624D01*
X169386488Y-47643927D01*
X169411258Y-47639000D01*
X169588742Y-47639000D01*
X169613512Y-47643927D01*
G37*
G36*
X131993512Y-47413927D02*
G01*
X132142812Y-47443624D01*
X132306784Y-47511544D01*
X132454354Y-47610147D01*
X132579853Y-47735646D01*
X132678456Y-47883216D01*
X132746376Y-48047188D01*
X132781000Y-48221259D01*
X132781000Y-48398741D01*
X132746376Y-48572812D01*
X132678456Y-48736784D01*
X132579853Y-48884354D01*
X132454354Y-49009853D01*
X132306784Y-49108456D01*
X132142812Y-49176376D01*
X131993512Y-49206073D01*
X131968742Y-49211000D01*
X131791258Y-49211000D01*
X131766488Y-49206073D01*
X131617188Y-49176376D01*
X131453216Y-49108456D01*
X131305646Y-49009853D01*
X131180147Y-48884354D01*
X131081544Y-48736784D01*
X131013624Y-48572812D01*
X130979000Y-48398741D01*
X130979000Y-48221259D01*
X131013624Y-48047188D01*
X131081544Y-47883216D01*
X131180147Y-47735646D01*
X131305646Y-47610147D01*
X131453216Y-47511544D01*
X131617188Y-47443624D01*
X131766488Y-47413927D01*
X131791258Y-47409000D01*
X131968742Y-47409000D01*
X131993512Y-47413927D01*
G37*
G36*
X154973512Y-47403927D02*
G01*
X155122812Y-47433624D01*
X155286784Y-47501544D01*
X155434354Y-47600147D01*
X155559853Y-47725646D01*
X155658456Y-47873216D01*
X155726376Y-48037188D01*
X155761000Y-48211259D01*
X155761000Y-48388741D01*
X155726376Y-48562812D01*
X155658456Y-48726784D01*
X155559853Y-48874354D01*
X155434354Y-48999853D01*
X155286784Y-49098456D01*
X155122812Y-49166376D01*
X154973512Y-49196073D01*
X154948742Y-49201000D01*
X154771258Y-49201000D01*
X154746488Y-49196073D01*
X154597188Y-49166376D01*
X154433216Y-49098456D01*
X154285646Y-48999853D01*
X154160147Y-48874354D01*
X154061544Y-48726784D01*
X153993624Y-48562812D01*
X153959000Y-48388741D01*
X153959000Y-48211259D01*
X153993624Y-48037188D01*
X154061544Y-47873216D01*
X154160147Y-47725646D01*
X154285646Y-47600147D01*
X154433216Y-47501544D01*
X154597188Y-47433624D01*
X154746488Y-47403927D01*
X154771258Y-47399000D01*
X154948742Y-47399000D01*
X154973512Y-47403927D01*
G37*
G36*
X180128228Y-45781703D02*
G01*
X180283100Y-45845853D01*
X180422481Y-45938985D01*
X180541015Y-46057519D01*
X180634147Y-46196900D01*
X180698297Y-46351772D01*
X180731000Y-46516184D01*
X180731000Y-46683816D01*
X180698297Y-46848228D01*
X180634147Y-47003100D01*
X180541015Y-47142481D01*
X180422481Y-47261015D01*
X180283100Y-47354147D01*
X180128228Y-47418297D01*
X179963816Y-47451000D01*
X179796184Y-47451000D01*
X179631772Y-47418297D01*
X179476900Y-47354147D01*
X179337519Y-47261015D01*
X179218985Y-47142481D01*
X179125853Y-47003100D01*
X179061703Y-46848228D01*
X179029000Y-46683816D01*
X179029000Y-46516184D01*
X179061703Y-46351772D01*
X179125853Y-46196900D01*
X179218985Y-46057519D01*
X179337519Y-45938985D01*
X179476900Y-45845853D01*
X179631772Y-45781703D01*
X179796184Y-45749000D01*
X179963816Y-45749000D01*
X180128228Y-45781703D01*
G37*
G36*
X188351000Y-47451000D02*
G01*
X186649000Y-47451000D01*
X186649000Y-45749000D01*
X188351000Y-45749000D01*
X188351000Y-47451000D01*
G37*
G36*
X172153512Y-45103927D02*
G01*
X172302812Y-45133624D01*
X172466784Y-45201544D01*
X172614354Y-45300147D01*
X172739853Y-45425646D01*
X172838456Y-45573216D01*
X172906376Y-45737188D01*
X172941000Y-45911259D01*
X172941000Y-46088741D01*
X172906376Y-46262812D01*
X172838456Y-46426784D01*
X172739853Y-46574354D01*
X172614354Y-46699853D01*
X172466784Y-46798456D01*
X172302812Y-46866376D01*
X172153512Y-46896073D01*
X172128742Y-46901000D01*
X171951258Y-46901000D01*
X171926488Y-46896073D01*
X171777188Y-46866376D01*
X171613216Y-46798456D01*
X171465646Y-46699853D01*
X171340147Y-46574354D01*
X171241544Y-46426784D01*
X171173624Y-46262812D01*
X171139000Y-46088741D01*
X171139000Y-45911259D01*
X171173624Y-45737188D01*
X171241544Y-45573216D01*
X171340147Y-45425646D01*
X171465646Y-45300147D01*
X171613216Y-45201544D01*
X171777188Y-45133624D01*
X171926488Y-45103927D01*
X171951258Y-45099000D01*
X172128742Y-45099000D01*
X172153512Y-45103927D01*
G37*
G36*
X169613512Y-45103927D02*
G01*
X169762812Y-45133624D01*
X169926784Y-45201544D01*
X170074354Y-45300147D01*
X170199853Y-45425646D01*
X170298456Y-45573216D01*
X170366376Y-45737188D01*
X170401000Y-45911259D01*
X170401000Y-46088741D01*
X170366376Y-46262812D01*
X170298456Y-46426784D01*
X170199853Y-46574354D01*
X170074354Y-46699853D01*
X169926784Y-46798456D01*
X169762812Y-46866376D01*
X169613512Y-46896073D01*
X169588742Y-46901000D01*
X169411258Y-46901000D01*
X169386488Y-46896073D01*
X169237188Y-46866376D01*
X169073216Y-46798456D01*
X168925646Y-46699853D01*
X168800147Y-46574354D01*
X168701544Y-46426784D01*
X168633624Y-46262812D01*
X168599000Y-46088741D01*
X168599000Y-45911259D01*
X168633624Y-45737188D01*
X168701544Y-45573216D01*
X168800147Y-45425646D01*
X168925646Y-45300147D01*
X169073216Y-45201544D01*
X169237188Y-45133624D01*
X169386488Y-45103927D01*
X169411258Y-45099000D01*
X169588742Y-45099000D01*
X169613512Y-45103927D01*
G37*
G36*
X131993512Y-44873927D02*
G01*
X132142812Y-44903624D01*
X132306784Y-44971544D01*
X132454354Y-45070147D01*
X132579853Y-45195646D01*
X132678456Y-45343216D01*
X132746376Y-45507188D01*
X132781000Y-45681259D01*
X132781000Y-45858741D01*
X132746376Y-46032812D01*
X132678456Y-46196784D01*
X132579853Y-46344354D01*
X132454354Y-46469853D01*
X132306784Y-46568456D01*
X132142812Y-46636376D01*
X131993512Y-46666073D01*
X131968742Y-46671000D01*
X131791258Y-46671000D01*
X131766488Y-46666073D01*
X131617188Y-46636376D01*
X131453216Y-46568456D01*
X131305646Y-46469853D01*
X131180147Y-46344354D01*
X131081544Y-46196784D01*
X131013624Y-46032812D01*
X130979000Y-45858741D01*
X130979000Y-45681259D01*
X131013624Y-45507188D01*
X131081544Y-45343216D01*
X131180147Y-45195646D01*
X131305646Y-45070147D01*
X131453216Y-44971544D01*
X131617188Y-44903624D01*
X131766488Y-44873927D01*
X131791258Y-44869000D01*
X131968742Y-44869000D01*
X131993512Y-44873927D01*
G37*
G36*
X154973512Y-44863927D02*
G01*
X155122812Y-44893624D01*
X155286784Y-44961544D01*
X155434354Y-45060147D01*
X155559853Y-45185646D01*
X155658456Y-45333216D01*
X155726376Y-45497188D01*
X155761000Y-45671259D01*
X155761000Y-45848741D01*
X155726376Y-46022812D01*
X155658456Y-46186784D01*
X155559853Y-46334354D01*
X155434354Y-46459853D01*
X155286784Y-46558456D01*
X155122812Y-46626376D01*
X154973512Y-46656073D01*
X154948742Y-46661000D01*
X154771258Y-46661000D01*
X154746488Y-46656073D01*
X154597188Y-46626376D01*
X154433216Y-46558456D01*
X154285646Y-46459853D01*
X154160147Y-46334354D01*
X154061544Y-46186784D01*
X153993624Y-46022812D01*
X153959000Y-45848741D01*
X153959000Y-45671259D01*
X153993624Y-45497188D01*
X154061544Y-45333216D01*
X154160147Y-45185646D01*
X154285646Y-45060147D01*
X154433216Y-44961544D01*
X154597188Y-44893624D01*
X154746488Y-44863927D01*
X154771258Y-44859000D01*
X154948742Y-44859000D01*
X154973512Y-44863927D01*
G37*
G36*
X115403512Y-44093927D02*
G01*
X115552812Y-44123624D01*
X115716784Y-44191544D01*
X115864354Y-44290147D01*
X115989853Y-44415646D01*
X116088456Y-44563216D01*
X116156376Y-44727188D01*
X116191000Y-44901259D01*
X116191000Y-45078741D01*
X116156376Y-45252812D01*
X116088456Y-45416784D01*
X115989853Y-45564354D01*
X115864354Y-45689853D01*
X115716784Y-45788456D01*
X115552812Y-45856376D01*
X115403512Y-45886073D01*
X115378742Y-45891000D01*
X115201258Y-45891000D01*
X115176488Y-45886073D01*
X115027188Y-45856376D01*
X114863216Y-45788456D01*
X114715646Y-45689853D01*
X114590147Y-45564354D01*
X114491544Y-45416784D01*
X114423624Y-45252812D01*
X114389000Y-45078741D01*
X114389000Y-44901259D01*
X114423624Y-44727188D01*
X114491544Y-44563216D01*
X114590147Y-44415646D01*
X114715646Y-44290147D01*
X114863216Y-44191544D01*
X115027188Y-44123624D01*
X115176488Y-44093927D01*
X115201258Y-44089000D01*
X115378742Y-44089000D01*
X115403512Y-44093927D01*
G37*
G36*
X107783512Y-44093927D02*
G01*
X107932812Y-44123624D01*
X108096784Y-44191544D01*
X108244354Y-44290147D01*
X108369853Y-44415646D01*
X108468456Y-44563216D01*
X108536376Y-44727188D01*
X108571000Y-44901259D01*
X108571000Y-45078741D01*
X108536376Y-45252812D01*
X108468456Y-45416784D01*
X108369853Y-45564354D01*
X108244354Y-45689853D01*
X108096784Y-45788456D01*
X107932812Y-45856376D01*
X107783512Y-45886073D01*
X107758742Y-45891000D01*
X107581258Y-45891000D01*
X107556488Y-45886073D01*
X107407188Y-45856376D01*
X107243216Y-45788456D01*
X107095646Y-45689853D01*
X106970147Y-45564354D01*
X106871544Y-45416784D01*
X106803624Y-45252812D01*
X106769000Y-45078741D01*
X106769000Y-44901259D01*
X106803624Y-44727188D01*
X106871544Y-44563216D01*
X106970147Y-44415646D01*
X107095646Y-44290147D01*
X107243216Y-44191544D01*
X107407188Y-44123624D01*
X107556488Y-44093927D01*
X107581258Y-44089000D01*
X107758742Y-44089000D01*
X107783512Y-44093927D01*
G37*
G36*
X106031000Y-45891000D02*
G01*
X104229000Y-45891000D01*
X104229000Y-44089000D01*
X106031000Y-44089000D01*
X106031000Y-45891000D01*
G37*
G36*
X110323512Y-44093927D02*
G01*
X110472812Y-44123624D01*
X110636784Y-44191544D01*
X110784354Y-44290147D01*
X110909853Y-44415646D01*
X111008456Y-44563216D01*
X111076376Y-44727188D01*
X111111000Y-44901259D01*
X111111000Y-45078741D01*
X111076376Y-45252812D01*
X111008456Y-45416784D01*
X110909853Y-45564354D01*
X110784354Y-45689853D01*
X110636784Y-45788456D01*
X110472812Y-45856376D01*
X110323512Y-45886073D01*
X110298742Y-45891000D01*
X110121258Y-45891000D01*
X110096488Y-45886073D01*
X109947188Y-45856376D01*
X109783216Y-45788456D01*
X109635646Y-45689853D01*
X109510147Y-45564354D01*
X109411544Y-45416784D01*
X109343624Y-45252812D01*
X109309000Y-45078741D01*
X109309000Y-44901259D01*
X109343624Y-44727188D01*
X109411544Y-44563216D01*
X109510147Y-44415646D01*
X109635646Y-44290147D01*
X109783216Y-44191544D01*
X109947188Y-44123624D01*
X110096488Y-44093927D01*
X110121258Y-44089000D01*
X110298742Y-44089000D01*
X110323512Y-44093927D01*
G37*
G36*
X112863512Y-44093927D02*
G01*
X113012812Y-44123624D01*
X113176784Y-44191544D01*
X113324354Y-44290147D01*
X113449853Y-44415646D01*
X113548456Y-44563216D01*
X113616376Y-44727188D01*
X113651000Y-44901259D01*
X113651000Y-45078741D01*
X113616376Y-45252812D01*
X113548456Y-45416784D01*
X113449853Y-45564354D01*
X113324354Y-45689853D01*
X113176784Y-45788456D01*
X113012812Y-45856376D01*
X112863512Y-45886073D01*
X112838742Y-45891000D01*
X112661258Y-45891000D01*
X112636488Y-45886073D01*
X112487188Y-45856376D01*
X112323216Y-45788456D01*
X112175646Y-45689853D01*
X112050147Y-45564354D01*
X111951544Y-45416784D01*
X111883624Y-45252812D01*
X111849000Y-45078741D01*
X111849000Y-44901259D01*
X111883624Y-44727188D01*
X111951544Y-44563216D01*
X112050147Y-44415646D01*
X112175646Y-44290147D01*
X112323216Y-44191544D01*
X112487188Y-44123624D01*
X112636488Y-44093927D01*
X112661258Y-44089000D01*
X112838742Y-44089000D01*
X112863512Y-44093927D01*
G37*
G36*
X187748228Y-43241703D02*
G01*
X187903100Y-43305853D01*
X188042481Y-43398985D01*
X188161015Y-43517519D01*
X188254147Y-43656900D01*
X188318297Y-43811772D01*
X188351000Y-43976184D01*
X188351000Y-44143816D01*
X188318297Y-44308228D01*
X188254147Y-44463100D01*
X188161015Y-44602481D01*
X188042481Y-44721015D01*
X187903100Y-44814147D01*
X187748228Y-44878297D01*
X187583816Y-44911000D01*
X187416184Y-44911000D01*
X187251772Y-44878297D01*
X187096900Y-44814147D01*
X186957519Y-44721015D01*
X186838985Y-44602481D01*
X186745853Y-44463100D01*
X186681703Y-44308228D01*
X186649000Y-44143816D01*
X186649000Y-43976184D01*
X186681703Y-43811772D01*
X186745853Y-43656900D01*
X186838985Y-43517519D01*
X186957519Y-43398985D01*
X187096900Y-43305853D01*
X187251772Y-43241703D01*
X187416184Y-43209000D01*
X187583816Y-43209000D01*
X187748228Y-43241703D01*
G37*
G36*
X180128228Y-43241703D02*
G01*
X180283100Y-43305853D01*
X180422481Y-43398985D01*
X180541015Y-43517519D01*
X180634147Y-43656900D01*
X180698297Y-43811772D01*
X180731000Y-43976184D01*
X180731000Y-44143816D01*
X180698297Y-44308228D01*
X180634147Y-44463100D01*
X180541015Y-44602481D01*
X180422481Y-44721015D01*
X180283100Y-44814147D01*
X180128228Y-44878297D01*
X179963816Y-44911000D01*
X179796184Y-44911000D01*
X179631772Y-44878297D01*
X179476900Y-44814147D01*
X179337519Y-44721015D01*
X179218985Y-44602481D01*
X179125853Y-44463100D01*
X179061703Y-44308228D01*
X179029000Y-44143816D01*
X179029000Y-43976184D01*
X179061703Y-43811772D01*
X179125853Y-43656900D01*
X179218985Y-43517519D01*
X179337519Y-43398985D01*
X179476900Y-43305853D01*
X179631772Y-43241703D01*
X179796184Y-43209000D01*
X179963816Y-43209000D01*
X180128228Y-43241703D01*
G37*
G36*
X172941000Y-44361000D02*
G01*
X171139000Y-44361000D01*
X171139000Y-42559000D01*
X172941000Y-42559000D01*
X172941000Y-44361000D01*
G37*
G36*
X169613512Y-42563927D02*
G01*
X169762812Y-42593624D01*
X169926784Y-42661544D01*
X170074354Y-42760147D01*
X170199853Y-42885646D01*
X170298456Y-43033216D01*
X170366376Y-43197188D01*
X170401000Y-43371259D01*
X170401000Y-43548741D01*
X170366376Y-43722812D01*
X170298456Y-43886784D01*
X170199853Y-44034354D01*
X170074354Y-44159853D01*
X169926784Y-44258456D01*
X169762812Y-44326376D01*
X169613512Y-44356073D01*
X169588742Y-44361000D01*
X169411258Y-44361000D01*
X169386488Y-44356073D01*
X169237188Y-44326376D01*
X169073216Y-44258456D01*
X168925646Y-44159853D01*
X168800147Y-44034354D01*
X168701544Y-43886784D01*
X168633624Y-43722812D01*
X168599000Y-43548741D01*
X168599000Y-43371259D01*
X168633624Y-43197188D01*
X168701544Y-43033216D01*
X168800147Y-42885646D01*
X168925646Y-42760147D01*
X169073216Y-42661544D01*
X169237188Y-42593624D01*
X169386488Y-42563927D01*
X169411258Y-42559000D01*
X169588742Y-42559000D01*
X169613512Y-42563927D01*
G37*
G36*
X131993512Y-42333927D02*
G01*
X132142812Y-42363624D01*
X132306784Y-42431544D01*
X132454354Y-42530147D01*
X132579853Y-42655646D01*
X132678456Y-42803216D01*
X132746376Y-42967188D01*
X132781000Y-43141259D01*
X132781000Y-43318741D01*
X132746376Y-43492812D01*
X132678456Y-43656784D01*
X132579853Y-43804354D01*
X132454354Y-43929853D01*
X132306784Y-44028456D01*
X132142812Y-44096376D01*
X131993512Y-44126073D01*
X131968742Y-44131000D01*
X131791258Y-44131000D01*
X131766488Y-44126073D01*
X131617188Y-44096376D01*
X131453216Y-44028456D01*
X131305646Y-43929853D01*
X131180147Y-43804354D01*
X131081544Y-43656784D01*
X131013624Y-43492812D01*
X130979000Y-43318741D01*
X130979000Y-43141259D01*
X131013624Y-42967188D01*
X131081544Y-42803216D01*
X131180147Y-42655646D01*
X131305646Y-42530147D01*
X131453216Y-42431544D01*
X131617188Y-42363624D01*
X131766488Y-42333927D01*
X131791258Y-42329000D01*
X131968742Y-42329000D01*
X131993512Y-42333927D01*
G37*
G36*
X154973512Y-42323927D02*
G01*
X155122812Y-42353624D01*
X155286784Y-42421544D01*
X155434354Y-42520147D01*
X155559853Y-42645646D01*
X155658456Y-42793216D01*
X155726376Y-42957188D01*
X155761000Y-43131259D01*
X155761000Y-43308741D01*
X155726376Y-43482812D01*
X155658456Y-43646784D01*
X155559853Y-43794354D01*
X155434354Y-43919853D01*
X155286784Y-44018456D01*
X155122812Y-44086376D01*
X154973512Y-44116073D01*
X154948742Y-44121000D01*
X154771258Y-44121000D01*
X154746488Y-44116073D01*
X154597188Y-44086376D01*
X154433216Y-44018456D01*
X154285646Y-43919853D01*
X154160147Y-43794354D01*
X154061544Y-43646784D01*
X153993624Y-43482812D01*
X153959000Y-43308741D01*
X153959000Y-43131259D01*
X153993624Y-42957188D01*
X154061544Y-42793216D01*
X154160147Y-42645646D01*
X154285646Y-42520147D01*
X154433216Y-42421544D01*
X154597188Y-42353624D01*
X154746488Y-42323927D01*
X154771258Y-42319000D01*
X154948742Y-42319000D01*
X154973512Y-42323927D01*
G37*
G36*
X110323512Y-41553927D02*
G01*
X110472812Y-41583624D01*
X110636784Y-41651544D01*
X110784354Y-41750147D01*
X110909853Y-41875646D01*
X111008456Y-42023216D01*
X111076376Y-42187188D01*
X111111000Y-42361259D01*
X111111000Y-42538741D01*
X111076376Y-42712812D01*
X111008456Y-42876784D01*
X110909853Y-43024354D01*
X110784354Y-43149853D01*
X110636784Y-43248456D01*
X110472812Y-43316376D01*
X110323512Y-43346073D01*
X110298742Y-43351000D01*
X110121258Y-43351000D01*
X110096488Y-43346073D01*
X109947188Y-43316376D01*
X109783216Y-43248456D01*
X109635646Y-43149853D01*
X109510147Y-43024354D01*
X109411544Y-42876784D01*
X109343624Y-42712812D01*
X109309000Y-42538741D01*
X109309000Y-42361259D01*
X109343624Y-42187188D01*
X109411544Y-42023216D01*
X109510147Y-41875646D01*
X109635646Y-41750147D01*
X109783216Y-41651544D01*
X109947188Y-41583624D01*
X110096488Y-41553927D01*
X110121258Y-41549000D01*
X110298742Y-41549000D01*
X110323512Y-41553927D01*
G37*
G36*
X115403512Y-41553927D02*
G01*
X115552812Y-41583624D01*
X115716784Y-41651544D01*
X115864354Y-41750147D01*
X115989853Y-41875646D01*
X116088456Y-42023216D01*
X116156376Y-42187188D01*
X116191000Y-42361259D01*
X116191000Y-42538741D01*
X116156376Y-42712812D01*
X116088456Y-42876784D01*
X115989853Y-43024354D01*
X115864354Y-43149853D01*
X115716784Y-43248456D01*
X115552812Y-43316376D01*
X115403512Y-43346073D01*
X115378742Y-43351000D01*
X115201258Y-43351000D01*
X115176488Y-43346073D01*
X115027188Y-43316376D01*
X114863216Y-43248456D01*
X114715646Y-43149853D01*
X114590147Y-43024354D01*
X114491544Y-42876784D01*
X114423624Y-42712812D01*
X114389000Y-42538741D01*
X114389000Y-42361259D01*
X114423624Y-42187188D01*
X114491544Y-42023216D01*
X114590147Y-41875646D01*
X114715646Y-41750147D01*
X114863216Y-41651544D01*
X115027188Y-41583624D01*
X115176488Y-41553927D01*
X115201258Y-41549000D01*
X115378742Y-41549000D01*
X115403512Y-41553927D01*
G37*
G36*
X105243512Y-41553927D02*
G01*
X105392812Y-41583624D01*
X105556784Y-41651544D01*
X105704354Y-41750147D01*
X105829853Y-41875646D01*
X105928456Y-42023216D01*
X105996376Y-42187188D01*
X106031000Y-42361259D01*
X106031000Y-42538741D01*
X105996376Y-42712812D01*
X105928456Y-42876784D01*
X105829853Y-43024354D01*
X105704354Y-43149853D01*
X105556784Y-43248456D01*
X105392812Y-43316376D01*
X105243512Y-43346073D01*
X105218742Y-43351000D01*
X105041258Y-43351000D01*
X105016488Y-43346073D01*
X104867188Y-43316376D01*
X104703216Y-43248456D01*
X104555646Y-43149853D01*
X104430147Y-43024354D01*
X104331544Y-42876784D01*
X104263624Y-42712812D01*
X104229000Y-42538741D01*
X104229000Y-42361259D01*
X104263624Y-42187188D01*
X104331544Y-42023216D01*
X104430147Y-41875646D01*
X104555646Y-41750147D01*
X104703216Y-41651544D01*
X104867188Y-41583624D01*
X105016488Y-41553927D01*
X105041258Y-41549000D01*
X105218742Y-41549000D01*
X105243512Y-41553927D01*
G37*
G36*
X112863512Y-41553927D02*
G01*
X113012812Y-41583624D01*
X113176784Y-41651544D01*
X113324354Y-41750147D01*
X113449853Y-41875646D01*
X113548456Y-42023216D01*
X113616376Y-42187188D01*
X113651000Y-42361259D01*
X113651000Y-42538741D01*
X113616376Y-42712812D01*
X113548456Y-42876784D01*
X113449853Y-43024354D01*
X113324354Y-43149853D01*
X113176784Y-43248456D01*
X113012812Y-43316376D01*
X112863512Y-43346073D01*
X112838742Y-43351000D01*
X112661258Y-43351000D01*
X112636488Y-43346073D01*
X112487188Y-43316376D01*
X112323216Y-43248456D01*
X112175646Y-43149853D01*
X112050147Y-43024354D01*
X111951544Y-42876784D01*
X111883624Y-42712812D01*
X111849000Y-42538741D01*
X111849000Y-42361259D01*
X111883624Y-42187188D01*
X111951544Y-42023216D01*
X112050147Y-41875646D01*
X112175646Y-41750147D01*
X112323216Y-41651544D01*
X112487188Y-41583624D01*
X112636488Y-41553927D01*
X112661258Y-41549000D01*
X112838742Y-41549000D01*
X112863512Y-41553927D01*
G37*
G36*
X107783512Y-41553927D02*
G01*
X107932812Y-41583624D01*
X108096784Y-41651544D01*
X108244354Y-41750147D01*
X108369853Y-41875646D01*
X108468456Y-42023216D01*
X108536376Y-42187188D01*
X108571000Y-42361259D01*
X108571000Y-42538741D01*
X108536376Y-42712812D01*
X108468456Y-42876784D01*
X108369853Y-43024354D01*
X108244354Y-43149853D01*
X108096784Y-43248456D01*
X107932812Y-43316376D01*
X107783512Y-43346073D01*
X107758742Y-43351000D01*
X107581258Y-43351000D01*
X107556488Y-43346073D01*
X107407188Y-43316376D01*
X107243216Y-43248456D01*
X107095646Y-43149853D01*
X106970147Y-43024354D01*
X106871544Y-42876784D01*
X106803624Y-42712812D01*
X106769000Y-42538741D01*
X106769000Y-42361259D01*
X106803624Y-42187188D01*
X106871544Y-42023216D01*
X106970147Y-41875646D01*
X107095646Y-41750147D01*
X107243216Y-41651544D01*
X107407188Y-41583624D01*
X107556488Y-41553927D01*
X107581258Y-41549000D01*
X107758742Y-41549000D01*
X107783512Y-41553927D01*
G37*
G36*
X131993512Y-39793927D02*
G01*
X132142812Y-39823624D01*
X132306784Y-39891544D01*
X132454354Y-39990147D01*
X132579853Y-40115646D01*
X132678456Y-40263216D01*
X132746376Y-40427188D01*
X132781000Y-40601259D01*
X132781000Y-40778741D01*
X132746376Y-40952812D01*
X132678456Y-41116784D01*
X132579853Y-41264354D01*
X132454354Y-41389853D01*
X132306784Y-41488456D01*
X132142812Y-41556376D01*
X131993512Y-41586073D01*
X131968742Y-41591000D01*
X131791258Y-41591000D01*
X131766488Y-41586073D01*
X131617188Y-41556376D01*
X131453216Y-41488456D01*
X131305646Y-41389853D01*
X131180147Y-41264354D01*
X131081544Y-41116784D01*
X131013624Y-40952812D01*
X130979000Y-40778741D01*
X130979000Y-40601259D01*
X131013624Y-40427188D01*
X131081544Y-40263216D01*
X131180147Y-40115646D01*
X131305646Y-39990147D01*
X131453216Y-39891544D01*
X131617188Y-39823624D01*
X131766488Y-39793927D01*
X131791258Y-39789000D01*
X131968742Y-39789000D01*
X131993512Y-39793927D01*
G37*
G36*
X154973512Y-39783927D02*
G01*
X155122812Y-39813624D01*
X155286784Y-39881544D01*
X155434354Y-39980147D01*
X155559853Y-40105646D01*
X155658456Y-40253216D01*
X155726376Y-40417188D01*
X155761000Y-40591259D01*
X155761000Y-40768741D01*
X155726376Y-40942812D01*
X155658456Y-41106784D01*
X155559853Y-41254354D01*
X155434354Y-41379853D01*
X155286784Y-41478456D01*
X155122812Y-41546376D01*
X154973512Y-41576073D01*
X154948742Y-41581000D01*
X154771258Y-41581000D01*
X154746488Y-41576073D01*
X154597188Y-41546376D01*
X154433216Y-41478456D01*
X154285646Y-41379853D01*
X154160147Y-41254354D01*
X154061544Y-41106784D01*
X153993624Y-40942812D01*
X153959000Y-40768741D01*
X153959000Y-40591259D01*
X153993624Y-40417188D01*
X154061544Y-40253216D01*
X154160147Y-40105646D01*
X154285646Y-39980147D01*
X154433216Y-39881544D01*
X154597188Y-39813624D01*
X154746488Y-39783927D01*
X154771258Y-39779000D01*
X154948742Y-39779000D01*
X154973512Y-39783927D01*
G37*
G36*
X131993512Y-37253927D02*
G01*
X132142812Y-37283624D01*
X132306784Y-37351544D01*
X132454354Y-37450147D01*
X132579853Y-37575646D01*
X132678456Y-37723216D01*
X132746376Y-37887188D01*
X132781000Y-38061259D01*
X132781000Y-38238741D01*
X132746376Y-38412812D01*
X132678456Y-38576784D01*
X132579853Y-38724354D01*
X132454354Y-38849853D01*
X132306784Y-38948456D01*
X132142812Y-39016376D01*
X131993512Y-39046073D01*
X131968742Y-39051000D01*
X131791258Y-39051000D01*
X131766488Y-39046073D01*
X131617188Y-39016376D01*
X131453216Y-38948456D01*
X131305646Y-38849853D01*
X131180147Y-38724354D01*
X131081544Y-38576784D01*
X131013624Y-38412812D01*
X130979000Y-38238741D01*
X130979000Y-38061259D01*
X131013624Y-37887188D01*
X131081544Y-37723216D01*
X131180147Y-37575646D01*
X131305646Y-37450147D01*
X131453216Y-37351544D01*
X131617188Y-37283624D01*
X131766488Y-37253927D01*
X131791258Y-37249000D01*
X131968742Y-37249000D01*
X131993512Y-37253927D01*
G37*
G36*
X154973512Y-37243927D02*
G01*
X155122812Y-37273624D01*
X155286784Y-37341544D01*
X155434354Y-37440147D01*
X155559853Y-37565646D01*
X155658456Y-37713216D01*
X155726376Y-37877188D01*
X155761000Y-38051259D01*
X155761000Y-38228741D01*
X155726376Y-38402812D01*
X155658456Y-38566784D01*
X155559853Y-38714354D01*
X155434354Y-38839853D01*
X155286784Y-38938456D01*
X155122812Y-39006376D01*
X154973512Y-39036073D01*
X154948742Y-39041000D01*
X154771258Y-39041000D01*
X154746488Y-39036073D01*
X154597188Y-39006376D01*
X154433216Y-38938456D01*
X154285646Y-38839853D01*
X154160147Y-38714354D01*
X154061544Y-38566784D01*
X153993624Y-38402812D01*
X153959000Y-38228741D01*
X153959000Y-38051259D01*
X153993624Y-37877188D01*
X154061544Y-37713216D01*
X154160147Y-37565646D01*
X154285646Y-37440147D01*
X154433216Y-37341544D01*
X154597188Y-37273624D01*
X154746488Y-37243927D01*
X154771258Y-37239000D01*
X154948742Y-37239000D01*
X154973512Y-37243927D01*
G37*
G36*
X132781000Y-36511000D02*
G01*
X130979000Y-36511000D01*
X130979000Y-34709000D01*
X132781000Y-34709000D01*
X132781000Y-36511000D01*
G37*
G36*
X155761000Y-36501000D02*
G01*
X153959000Y-36501000D01*
X153959000Y-34699000D01*
X155761000Y-34699000D01*
X155761000Y-36501000D01*
G37*
G36*
X188975880Y-31059776D02*
G01*
X189356593Y-31135504D01*
X189766249Y-31305189D01*
X190134929Y-31551534D01*
X190448466Y-31865071D01*
X190694811Y-32233751D01*
X190864496Y-32643407D01*
X190951000Y-33078296D01*
X190951000Y-33521704D01*
X190864496Y-33956593D01*
X190694811Y-34366249D01*
X190448466Y-34734929D01*
X190134929Y-35048466D01*
X189766249Y-35294811D01*
X189356593Y-35464496D01*
X188975880Y-35540224D01*
X188921705Y-35551000D01*
X188478295Y-35551000D01*
X188424120Y-35540224D01*
X188043407Y-35464496D01*
X187633751Y-35294811D01*
X187265071Y-35048466D01*
X186951534Y-34734929D01*
X186705189Y-34366249D01*
X186535504Y-33956593D01*
X186449000Y-33521704D01*
X186449000Y-33078296D01*
X186535504Y-32643407D01*
X186705189Y-32233751D01*
X186951534Y-31865071D01*
X187265071Y-31551534D01*
X187633751Y-31305189D01*
X188043407Y-31135504D01*
X188424120Y-31059776D01*
X188478295Y-31049000D01*
X188921705Y-31049000D01*
X188975880Y-31059776D01*
G37*
G36*
X97575880Y-31059776D02*
G01*
X97956593Y-31135504D01*
X98366249Y-31305189D01*
X98734929Y-31551534D01*
X99048466Y-31865071D01*
X99294811Y-32233751D01*
X99464496Y-32643407D01*
X99551000Y-33078296D01*
X99551000Y-33521704D01*
X99464496Y-33956593D01*
X99294811Y-34366249D01*
X99048466Y-34734929D01*
X98734929Y-35048466D01*
X98366249Y-35294811D01*
X97956593Y-35464496D01*
X97575880Y-35540224D01*
X97521705Y-35551000D01*
X97078295Y-35551000D01*
X97024120Y-35540224D01*
X96643407Y-35464496D01*
X96233751Y-35294811D01*
X95865071Y-35048466D01*
X95551534Y-34734929D01*
X95305189Y-34366249D01*
X95135504Y-33956593D01*
X95049000Y-33521704D01*
X95049000Y-33078296D01*
X95135504Y-32643407D01*
X95305189Y-32233751D01*
X95551534Y-31865071D01*
X95865071Y-31551534D01*
X96233751Y-31305189D01*
X96643407Y-31135504D01*
X97024120Y-31059776D01*
X97078295Y-31049000D01*
X97521705Y-31049000D01*
X97575880Y-31059776D01*
G37*
M02*
