G04 #@! TF.GenerationSoftware,KiCad,Pcbnew,(5.1.5)-3*
G04 #@! TF.CreationDate,2020-07-27T13:18:42+03:00*
G04 #@! TF.ProjectId,BurtleinaBoard,42757274-6c65-4696-9e61-426f6172642e,0.1*
G04 #@! TF.SameCoordinates,Original*
G04 #@! TF.FileFunction,Paste,Top*
G04 #@! TF.FilePolarity,Positive*
%FSLAX46Y46*%
G04 Gerber Fmt 4.6, Leading zero omitted, Abs format (unit mm)*
G04 Created by KiCad (PCBNEW (5.1.5)-3) date 2020-07-27 13:18:42*
%MOMM*%
%LPD*%
G04 APERTURE LIST*
%ADD10C,0.100000*%
G04 APERTURE END LIST*
D10*
G36*
X187179504Y-52616204D02*
G01*
X187203773Y-52619804D01*
X187227571Y-52625765D01*
X187250671Y-52634030D01*
X187272849Y-52644520D01*
X187293893Y-52657133D01*
X187313598Y-52671747D01*
X187331777Y-52688223D01*
X187348253Y-52706402D01*
X187362867Y-52726107D01*
X187375480Y-52747151D01*
X187385970Y-52769329D01*
X187394235Y-52792429D01*
X187400196Y-52816227D01*
X187403796Y-52840496D01*
X187405000Y-52865000D01*
X187405000Y-54115000D01*
X187403796Y-54139504D01*
X187400196Y-54163773D01*
X187394235Y-54187571D01*
X187385970Y-54210671D01*
X187375480Y-54232849D01*
X187362867Y-54253893D01*
X187348253Y-54273598D01*
X187331777Y-54291777D01*
X187313598Y-54308253D01*
X187293893Y-54322867D01*
X187272849Y-54335480D01*
X187250671Y-54345970D01*
X187227571Y-54354235D01*
X187203773Y-54360196D01*
X187179504Y-54363796D01*
X187155000Y-54365000D01*
X186405000Y-54365000D01*
X186380496Y-54363796D01*
X186356227Y-54360196D01*
X186332429Y-54354235D01*
X186309329Y-54345970D01*
X186287151Y-54335480D01*
X186266107Y-54322867D01*
X186246402Y-54308253D01*
X186228223Y-54291777D01*
X186211747Y-54273598D01*
X186197133Y-54253893D01*
X186184520Y-54232849D01*
X186174030Y-54210671D01*
X186165765Y-54187571D01*
X186159804Y-54163773D01*
X186156204Y-54139504D01*
X186155000Y-54115000D01*
X186155000Y-52865000D01*
X186156204Y-52840496D01*
X186159804Y-52816227D01*
X186165765Y-52792429D01*
X186174030Y-52769329D01*
X186184520Y-52747151D01*
X186197133Y-52726107D01*
X186211747Y-52706402D01*
X186228223Y-52688223D01*
X186246402Y-52671747D01*
X186266107Y-52657133D01*
X186287151Y-52644520D01*
X186309329Y-52634030D01*
X186332429Y-52625765D01*
X186356227Y-52619804D01*
X186380496Y-52616204D01*
X186405000Y-52615000D01*
X187155000Y-52615000D01*
X187179504Y-52616204D01*
G37*
G36*
X189979504Y-52616204D02*
G01*
X190003773Y-52619804D01*
X190027571Y-52625765D01*
X190050671Y-52634030D01*
X190072849Y-52644520D01*
X190093893Y-52657133D01*
X190113598Y-52671747D01*
X190131777Y-52688223D01*
X190148253Y-52706402D01*
X190162867Y-52726107D01*
X190175480Y-52747151D01*
X190185970Y-52769329D01*
X190194235Y-52792429D01*
X190200196Y-52816227D01*
X190203796Y-52840496D01*
X190205000Y-52865000D01*
X190205000Y-54115000D01*
X190203796Y-54139504D01*
X190200196Y-54163773D01*
X190194235Y-54187571D01*
X190185970Y-54210671D01*
X190175480Y-54232849D01*
X190162867Y-54253893D01*
X190148253Y-54273598D01*
X190131777Y-54291777D01*
X190113598Y-54308253D01*
X190093893Y-54322867D01*
X190072849Y-54335480D01*
X190050671Y-54345970D01*
X190027571Y-54354235D01*
X190003773Y-54360196D01*
X189979504Y-54363796D01*
X189955000Y-54365000D01*
X189205000Y-54365000D01*
X189180496Y-54363796D01*
X189156227Y-54360196D01*
X189132429Y-54354235D01*
X189109329Y-54345970D01*
X189087151Y-54335480D01*
X189066107Y-54322867D01*
X189046402Y-54308253D01*
X189028223Y-54291777D01*
X189011747Y-54273598D01*
X188997133Y-54253893D01*
X188984520Y-54232849D01*
X188974030Y-54210671D01*
X188965765Y-54187571D01*
X188959804Y-54163773D01*
X188956204Y-54139504D01*
X188955000Y-54115000D01*
X188955000Y-52865000D01*
X188956204Y-52840496D01*
X188959804Y-52816227D01*
X188965765Y-52792429D01*
X188974030Y-52769329D01*
X188984520Y-52747151D01*
X188997133Y-52726107D01*
X189011747Y-52706402D01*
X189028223Y-52688223D01*
X189046402Y-52671747D01*
X189066107Y-52657133D01*
X189087151Y-52644520D01*
X189109329Y-52634030D01*
X189132429Y-52625765D01*
X189156227Y-52619804D01*
X189180496Y-52616204D01*
X189205000Y-52615000D01*
X189955000Y-52615000D01*
X189979504Y-52616204D01*
G37*
G36*
X179147004Y-52236204D02*
G01*
X179171273Y-52239804D01*
X179195071Y-52245765D01*
X179218171Y-52254030D01*
X179240349Y-52264520D01*
X179261393Y-52277133D01*
X179281098Y-52291747D01*
X179299277Y-52308223D01*
X179315753Y-52326402D01*
X179330367Y-52346107D01*
X179342980Y-52367151D01*
X179353470Y-52389329D01*
X179361735Y-52412429D01*
X179367696Y-52436227D01*
X179371296Y-52460496D01*
X179372500Y-52485000D01*
X179372500Y-54335000D01*
X179371296Y-54359504D01*
X179367696Y-54383773D01*
X179361735Y-54407571D01*
X179353470Y-54430671D01*
X179342980Y-54452849D01*
X179330367Y-54473893D01*
X179315753Y-54493598D01*
X179299277Y-54511777D01*
X179281098Y-54528253D01*
X179261393Y-54542867D01*
X179240349Y-54555480D01*
X179218171Y-54565970D01*
X179195071Y-54574235D01*
X179171273Y-54580196D01*
X179147004Y-54583796D01*
X179122500Y-54585000D01*
X177547500Y-54585000D01*
X177522996Y-54583796D01*
X177498727Y-54580196D01*
X177474929Y-54574235D01*
X177451829Y-54565970D01*
X177429651Y-54555480D01*
X177408607Y-54542867D01*
X177388902Y-54528253D01*
X177370723Y-54511777D01*
X177354247Y-54493598D01*
X177339633Y-54473893D01*
X177327020Y-54452849D01*
X177316530Y-54430671D01*
X177308265Y-54407571D01*
X177302304Y-54383773D01*
X177298704Y-54359504D01*
X177297500Y-54335000D01*
X177297500Y-52485000D01*
X177298704Y-52460496D01*
X177302304Y-52436227D01*
X177308265Y-52412429D01*
X177316530Y-52389329D01*
X177327020Y-52367151D01*
X177339633Y-52346107D01*
X177354247Y-52326402D01*
X177370723Y-52308223D01*
X177388902Y-52291747D01*
X177408607Y-52277133D01*
X177429651Y-52264520D01*
X177451829Y-52254030D01*
X177474929Y-52245765D01*
X177498727Y-52239804D01*
X177522996Y-52236204D01*
X177547500Y-52235000D01*
X179122500Y-52235000D01*
X179147004Y-52236204D01*
G37*
G36*
X184072004Y-52236204D02*
G01*
X184096273Y-52239804D01*
X184120071Y-52245765D01*
X184143171Y-52254030D01*
X184165349Y-52264520D01*
X184186393Y-52277133D01*
X184206098Y-52291747D01*
X184224277Y-52308223D01*
X184240753Y-52326402D01*
X184255367Y-52346107D01*
X184267980Y-52367151D01*
X184278470Y-52389329D01*
X184286735Y-52412429D01*
X184292696Y-52436227D01*
X184296296Y-52460496D01*
X184297500Y-52485000D01*
X184297500Y-54335000D01*
X184296296Y-54359504D01*
X184292696Y-54383773D01*
X184286735Y-54407571D01*
X184278470Y-54430671D01*
X184267980Y-54452849D01*
X184255367Y-54473893D01*
X184240753Y-54493598D01*
X184224277Y-54511777D01*
X184206098Y-54528253D01*
X184186393Y-54542867D01*
X184165349Y-54555480D01*
X184143171Y-54565970D01*
X184120071Y-54574235D01*
X184096273Y-54580196D01*
X184072004Y-54583796D01*
X184047500Y-54585000D01*
X182472500Y-54585000D01*
X182447996Y-54583796D01*
X182423727Y-54580196D01*
X182399929Y-54574235D01*
X182376829Y-54565970D01*
X182354651Y-54555480D01*
X182333607Y-54542867D01*
X182313902Y-54528253D01*
X182295723Y-54511777D01*
X182279247Y-54493598D01*
X182264633Y-54473893D01*
X182252020Y-54452849D01*
X182241530Y-54430671D01*
X182233265Y-54407571D01*
X182227304Y-54383773D01*
X182223704Y-54359504D01*
X182222500Y-54335000D01*
X182222500Y-52485000D01*
X182223704Y-52460496D01*
X182227304Y-52436227D01*
X182233265Y-52412429D01*
X182241530Y-52389329D01*
X182252020Y-52367151D01*
X182264633Y-52346107D01*
X182279247Y-52326402D01*
X182295723Y-52308223D01*
X182313902Y-52291747D01*
X182333607Y-52277133D01*
X182354651Y-52264520D01*
X182376829Y-52254030D01*
X182399929Y-52245765D01*
X182423727Y-52239804D01*
X182447996Y-52236204D01*
X182472500Y-52235000D01*
X184047500Y-52235000D01*
X184072004Y-52236204D01*
G37*
G36*
X182179504Y-102336204D02*
G01*
X182203773Y-102339804D01*
X182227571Y-102345765D01*
X182250671Y-102354030D01*
X182272849Y-102364520D01*
X182293893Y-102377133D01*
X182313598Y-102391747D01*
X182331777Y-102408223D01*
X182348253Y-102426402D01*
X182362867Y-102446107D01*
X182375480Y-102467151D01*
X182385970Y-102489329D01*
X182394235Y-102512429D01*
X182400196Y-102536227D01*
X182403796Y-102560496D01*
X182405000Y-102585000D01*
X182405000Y-103835000D01*
X182403796Y-103859504D01*
X182400196Y-103883773D01*
X182394235Y-103907571D01*
X182385970Y-103930671D01*
X182375480Y-103952849D01*
X182362867Y-103973893D01*
X182348253Y-103993598D01*
X182331777Y-104011777D01*
X182313598Y-104028253D01*
X182293893Y-104042867D01*
X182272849Y-104055480D01*
X182250671Y-104065970D01*
X182227571Y-104074235D01*
X182203773Y-104080196D01*
X182179504Y-104083796D01*
X182155000Y-104085000D01*
X181405000Y-104085000D01*
X181380496Y-104083796D01*
X181356227Y-104080196D01*
X181332429Y-104074235D01*
X181309329Y-104065970D01*
X181287151Y-104055480D01*
X181266107Y-104042867D01*
X181246402Y-104028253D01*
X181228223Y-104011777D01*
X181211747Y-103993598D01*
X181197133Y-103973893D01*
X181184520Y-103952849D01*
X181174030Y-103930671D01*
X181165765Y-103907571D01*
X181159804Y-103883773D01*
X181156204Y-103859504D01*
X181155000Y-103835000D01*
X181155000Y-102585000D01*
X181156204Y-102560496D01*
X181159804Y-102536227D01*
X181165765Y-102512429D01*
X181174030Y-102489329D01*
X181184520Y-102467151D01*
X181197133Y-102446107D01*
X181211747Y-102426402D01*
X181228223Y-102408223D01*
X181246402Y-102391747D01*
X181266107Y-102377133D01*
X181287151Y-102364520D01*
X181309329Y-102354030D01*
X181332429Y-102345765D01*
X181356227Y-102339804D01*
X181380496Y-102336204D01*
X181405000Y-102335000D01*
X182155000Y-102335000D01*
X182179504Y-102336204D01*
G37*
G36*
X179379504Y-102336204D02*
G01*
X179403773Y-102339804D01*
X179427571Y-102345765D01*
X179450671Y-102354030D01*
X179472849Y-102364520D01*
X179493893Y-102377133D01*
X179513598Y-102391747D01*
X179531777Y-102408223D01*
X179548253Y-102426402D01*
X179562867Y-102446107D01*
X179575480Y-102467151D01*
X179585970Y-102489329D01*
X179594235Y-102512429D01*
X179600196Y-102536227D01*
X179603796Y-102560496D01*
X179605000Y-102585000D01*
X179605000Y-103835000D01*
X179603796Y-103859504D01*
X179600196Y-103883773D01*
X179594235Y-103907571D01*
X179585970Y-103930671D01*
X179575480Y-103952849D01*
X179562867Y-103973893D01*
X179548253Y-103993598D01*
X179531777Y-104011777D01*
X179513598Y-104028253D01*
X179493893Y-104042867D01*
X179472849Y-104055480D01*
X179450671Y-104065970D01*
X179427571Y-104074235D01*
X179403773Y-104080196D01*
X179379504Y-104083796D01*
X179355000Y-104085000D01*
X178605000Y-104085000D01*
X178580496Y-104083796D01*
X178556227Y-104080196D01*
X178532429Y-104074235D01*
X178509329Y-104065970D01*
X178487151Y-104055480D01*
X178466107Y-104042867D01*
X178446402Y-104028253D01*
X178428223Y-104011777D01*
X178411747Y-103993598D01*
X178397133Y-103973893D01*
X178384520Y-103952849D01*
X178374030Y-103930671D01*
X178365765Y-103907571D01*
X178359804Y-103883773D01*
X178356204Y-103859504D01*
X178355000Y-103835000D01*
X178355000Y-102585000D01*
X178356204Y-102560496D01*
X178359804Y-102536227D01*
X178365765Y-102512429D01*
X178374030Y-102489329D01*
X178384520Y-102467151D01*
X178397133Y-102446107D01*
X178411747Y-102426402D01*
X178428223Y-102408223D01*
X178446402Y-102391747D01*
X178466107Y-102377133D01*
X178487151Y-102364520D01*
X178509329Y-102354030D01*
X178532429Y-102345765D01*
X178556227Y-102339804D01*
X178580496Y-102336204D01*
X178605000Y-102335000D01*
X179355000Y-102335000D01*
X179379504Y-102336204D01*
G37*
G36*
X183854504Y-108336204D02*
G01*
X183878773Y-108339804D01*
X183902571Y-108345765D01*
X183925671Y-108354030D01*
X183947849Y-108364520D01*
X183968893Y-108377133D01*
X183988598Y-108391747D01*
X184006777Y-108408223D01*
X184023253Y-108426402D01*
X184037867Y-108446107D01*
X184050480Y-108467151D01*
X184060970Y-108489329D01*
X184069235Y-108512429D01*
X184075196Y-108536227D01*
X184078796Y-108560496D01*
X184080000Y-108585000D01*
X184080000Y-110435000D01*
X184078796Y-110459504D01*
X184075196Y-110483773D01*
X184069235Y-110507571D01*
X184060970Y-110530671D01*
X184050480Y-110552849D01*
X184037867Y-110573893D01*
X184023253Y-110593598D01*
X184006777Y-110611777D01*
X183988598Y-110628253D01*
X183968893Y-110642867D01*
X183947849Y-110655480D01*
X183925671Y-110665970D01*
X183902571Y-110674235D01*
X183878773Y-110680196D01*
X183854504Y-110683796D01*
X183830000Y-110685000D01*
X182255000Y-110685000D01*
X182230496Y-110683796D01*
X182206227Y-110680196D01*
X182182429Y-110674235D01*
X182159329Y-110665970D01*
X182137151Y-110655480D01*
X182116107Y-110642867D01*
X182096402Y-110628253D01*
X182078223Y-110611777D01*
X182061747Y-110593598D01*
X182047133Y-110573893D01*
X182034520Y-110552849D01*
X182024030Y-110530671D01*
X182015765Y-110507571D01*
X182009804Y-110483773D01*
X182006204Y-110459504D01*
X182005000Y-110435000D01*
X182005000Y-108585000D01*
X182006204Y-108560496D01*
X182009804Y-108536227D01*
X182015765Y-108512429D01*
X182024030Y-108489329D01*
X182034520Y-108467151D01*
X182047133Y-108446107D01*
X182061747Y-108426402D01*
X182078223Y-108408223D01*
X182096402Y-108391747D01*
X182116107Y-108377133D01*
X182137151Y-108364520D01*
X182159329Y-108354030D01*
X182182429Y-108345765D01*
X182206227Y-108339804D01*
X182230496Y-108336204D01*
X182255000Y-108335000D01*
X183830000Y-108335000D01*
X183854504Y-108336204D01*
G37*
G36*
X178929504Y-108336204D02*
G01*
X178953773Y-108339804D01*
X178977571Y-108345765D01*
X179000671Y-108354030D01*
X179022849Y-108364520D01*
X179043893Y-108377133D01*
X179063598Y-108391747D01*
X179081777Y-108408223D01*
X179098253Y-108426402D01*
X179112867Y-108446107D01*
X179125480Y-108467151D01*
X179135970Y-108489329D01*
X179144235Y-108512429D01*
X179150196Y-108536227D01*
X179153796Y-108560496D01*
X179155000Y-108585000D01*
X179155000Y-110435000D01*
X179153796Y-110459504D01*
X179150196Y-110483773D01*
X179144235Y-110507571D01*
X179135970Y-110530671D01*
X179125480Y-110552849D01*
X179112867Y-110573893D01*
X179098253Y-110593598D01*
X179081777Y-110611777D01*
X179063598Y-110628253D01*
X179043893Y-110642867D01*
X179022849Y-110655480D01*
X179000671Y-110665970D01*
X178977571Y-110674235D01*
X178953773Y-110680196D01*
X178929504Y-110683796D01*
X178905000Y-110685000D01*
X177330000Y-110685000D01*
X177305496Y-110683796D01*
X177281227Y-110680196D01*
X177257429Y-110674235D01*
X177234329Y-110665970D01*
X177212151Y-110655480D01*
X177191107Y-110642867D01*
X177171402Y-110628253D01*
X177153223Y-110611777D01*
X177136747Y-110593598D01*
X177122133Y-110573893D01*
X177109520Y-110552849D01*
X177099030Y-110530671D01*
X177090765Y-110507571D01*
X177084804Y-110483773D01*
X177081204Y-110459504D01*
X177080000Y-110435000D01*
X177080000Y-108585000D01*
X177081204Y-108560496D01*
X177084804Y-108536227D01*
X177090765Y-108512429D01*
X177099030Y-108489329D01*
X177109520Y-108467151D01*
X177122133Y-108446107D01*
X177136747Y-108426402D01*
X177153223Y-108408223D01*
X177171402Y-108391747D01*
X177191107Y-108377133D01*
X177212151Y-108364520D01*
X177234329Y-108354030D01*
X177257429Y-108345765D01*
X177281227Y-108339804D01*
X177305496Y-108336204D01*
X177330000Y-108335000D01*
X178905000Y-108335000D01*
X178929504Y-108336204D01*
G37*
G36*
X146679504Y-102436204D02*
G01*
X146703773Y-102439804D01*
X146727571Y-102445765D01*
X146750671Y-102454030D01*
X146772849Y-102464520D01*
X146793893Y-102477133D01*
X146813598Y-102491747D01*
X146831777Y-102508223D01*
X146848253Y-102526402D01*
X146862867Y-102546107D01*
X146875480Y-102567151D01*
X146885970Y-102589329D01*
X146894235Y-102612429D01*
X146900196Y-102636227D01*
X146903796Y-102660496D01*
X146905000Y-102685000D01*
X146905000Y-103935000D01*
X146903796Y-103959504D01*
X146900196Y-103983773D01*
X146894235Y-104007571D01*
X146885970Y-104030671D01*
X146875480Y-104052849D01*
X146862867Y-104073893D01*
X146848253Y-104093598D01*
X146831777Y-104111777D01*
X146813598Y-104128253D01*
X146793893Y-104142867D01*
X146772849Y-104155480D01*
X146750671Y-104165970D01*
X146727571Y-104174235D01*
X146703773Y-104180196D01*
X146679504Y-104183796D01*
X146655000Y-104185000D01*
X145905000Y-104185000D01*
X145880496Y-104183796D01*
X145856227Y-104180196D01*
X145832429Y-104174235D01*
X145809329Y-104165970D01*
X145787151Y-104155480D01*
X145766107Y-104142867D01*
X145746402Y-104128253D01*
X145728223Y-104111777D01*
X145711747Y-104093598D01*
X145697133Y-104073893D01*
X145684520Y-104052849D01*
X145674030Y-104030671D01*
X145665765Y-104007571D01*
X145659804Y-103983773D01*
X145656204Y-103959504D01*
X145655000Y-103935000D01*
X145655000Y-102685000D01*
X145656204Y-102660496D01*
X145659804Y-102636227D01*
X145665765Y-102612429D01*
X145674030Y-102589329D01*
X145684520Y-102567151D01*
X145697133Y-102546107D01*
X145711747Y-102526402D01*
X145728223Y-102508223D01*
X145746402Y-102491747D01*
X145766107Y-102477133D01*
X145787151Y-102464520D01*
X145809329Y-102454030D01*
X145832429Y-102445765D01*
X145856227Y-102439804D01*
X145880496Y-102436204D01*
X145905000Y-102435000D01*
X146655000Y-102435000D01*
X146679504Y-102436204D01*
G37*
G36*
X149479504Y-102436204D02*
G01*
X149503773Y-102439804D01*
X149527571Y-102445765D01*
X149550671Y-102454030D01*
X149572849Y-102464520D01*
X149593893Y-102477133D01*
X149613598Y-102491747D01*
X149631777Y-102508223D01*
X149648253Y-102526402D01*
X149662867Y-102546107D01*
X149675480Y-102567151D01*
X149685970Y-102589329D01*
X149694235Y-102612429D01*
X149700196Y-102636227D01*
X149703796Y-102660496D01*
X149705000Y-102685000D01*
X149705000Y-103935000D01*
X149703796Y-103959504D01*
X149700196Y-103983773D01*
X149694235Y-104007571D01*
X149685970Y-104030671D01*
X149675480Y-104052849D01*
X149662867Y-104073893D01*
X149648253Y-104093598D01*
X149631777Y-104111777D01*
X149613598Y-104128253D01*
X149593893Y-104142867D01*
X149572849Y-104155480D01*
X149550671Y-104165970D01*
X149527571Y-104174235D01*
X149503773Y-104180196D01*
X149479504Y-104183796D01*
X149455000Y-104185000D01*
X148705000Y-104185000D01*
X148680496Y-104183796D01*
X148656227Y-104180196D01*
X148632429Y-104174235D01*
X148609329Y-104165970D01*
X148587151Y-104155480D01*
X148566107Y-104142867D01*
X148546402Y-104128253D01*
X148528223Y-104111777D01*
X148511747Y-104093598D01*
X148497133Y-104073893D01*
X148484520Y-104052849D01*
X148474030Y-104030671D01*
X148465765Y-104007571D01*
X148459804Y-103983773D01*
X148456204Y-103959504D01*
X148455000Y-103935000D01*
X148455000Y-102685000D01*
X148456204Y-102660496D01*
X148459804Y-102636227D01*
X148465765Y-102612429D01*
X148474030Y-102589329D01*
X148484520Y-102567151D01*
X148497133Y-102546107D01*
X148511747Y-102526402D01*
X148528223Y-102508223D01*
X148546402Y-102491747D01*
X148566107Y-102477133D01*
X148587151Y-102464520D01*
X148609329Y-102454030D01*
X148632429Y-102445765D01*
X148656227Y-102439804D01*
X148680496Y-102436204D01*
X148705000Y-102435000D01*
X149455000Y-102435000D01*
X149479504Y-102436204D01*
G37*
G36*
X150654504Y-107836204D02*
G01*
X150678773Y-107839804D01*
X150702571Y-107845765D01*
X150725671Y-107854030D01*
X150747849Y-107864520D01*
X150768893Y-107877133D01*
X150788598Y-107891747D01*
X150806777Y-107908223D01*
X150823253Y-107926402D01*
X150837867Y-107946107D01*
X150850480Y-107967151D01*
X150860970Y-107989329D01*
X150869235Y-108012429D01*
X150875196Y-108036227D01*
X150878796Y-108060496D01*
X150880000Y-108085000D01*
X150880000Y-109935000D01*
X150878796Y-109959504D01*
X150875196Y-109983773D01*
X150869235Y-110007571D01*
X150860970Y-110030671D01*
X150850480Y-110052849D01*
X150837867Y-110073893D01*
X150823253Y-110093598D01*
X150806777Y-110111777D01*
X150788598Y-110128253D01*
X150768893Y-110142867D01*
X150747849Y-110155480D01*
X150725671Y-110165970D01*
X150702571Y-110174235D01*
X150678773Y-110180196D01*
X150654504Y-110183796D01*
X150630000Y-110185000D01*
X149055000Y-110185000D01*
X149030496Y-110183796D01*
X149006227Y-110180196D01*
X148982429Y-110174235D01*
X148959329Y-110165970D01*
X148937151Y-110155480D01*
X148916107Y-110142867D01*
X148896402Y-110128253D01*
X148878223Y-110111777D01*
X148861747Y-110093598D01*
X148847133Y-110073893D01*
X148834520Y-110052849D01*
X148824030Y-110030671D01*
X148815765Y-110007571D01*
X148809804Y-109983773D01*
X148806204Y-109959504D01*
X148805000Y-109935000D01*
X148805000Y-108085000D01*
X148806204Y-108060496D01*
X148809804Y-108036227D01*
X148815765Y-108012429D01*
X148824030Y-107989329D01*
X148834520Y-107967151D01*
X148847133Y-107946107D01*
X148861747Y-107926402D01*
X148878223Y-107908223D01*
X148896402Y-107891747D01*
X148916107Y-107877133D01*
X148937151Y-107864520D01*
X148959329Y-107854030D01*
X148982429Y-107845765D01*
X149006227Y-107839804D01*
X149030496Y-107836204D01*
X149055000Y-107835000D01*
X150630000Y-107835000D01*
X150654504Y-107836204D01*
G37*
G36*
X145729504Y-107836204D02*
G01*
X145753773Y-107839804D01*
X145777571Y-107845765D01*
X145800671Y-107854030D01*
X145822849Y-107864520D01*
X145843893Y-107877133D01*
X145863598Y-107891747D01*
X145881777Y-107908223D01*
X145898253Y-107926402D01*
X145912867Y-107946107D01*
X145925480Y-107967151D01*
X145935970Y-107989329D01*
X145944235Y-108012429D01*
X145950196Y-108036227D01*
X145953796Y-108060496D01*
X145955000Y-108085000D01*
X145955000Y-109935000D01*
X145953796Y-109959504D01*
X145950196Y-109983773D01*
X145944235Y-110007571D01*
X145935970Y-110030671D01*
X145925480Y-110052849D01*
X145912867Y-110073893D01*
X145898253Y-110093598D01*
X145881777Y-110111777D01*
X145863598Y-110128253D01*
X145843893Y-110142867D01*
X145822849Y-110155480D01*
X145800671Y-110165970D01*
X145777571Y-110174235D01*
X145753773Y-110180196D01*
X145729504Y-110183796D01*
X145705000Y-110185000D01*
X144130000Y-110185000D01*
X144105496Y-110183796D01*
X144081227Y-110180196D01*
X144057429Y-110174235D01*
X144034329Y-110165970D01*
X144012151Y-110155480D01*
X143991107Y-110142867D01*
X143971402Y-110128253D01*
X143953223Y-110111777D01*
X143936747Y-110093598D01*
X143922133Y-110073893D01*
X143909520Y-110052849D01*
X143899030Y-110030671D01*
X143890765Y-110007571D01*
X143884804Y-109983773D01*
X143881204Y-109959504D01*
X143880000Y-109935000D01*
X143880000Y-108085000D01*
X143881204Y-108060496D01*
X143884804Y-108036227D01*
X143890765Y-108012429D01*
X143899030Y-107989329D01*
X143909520Y-107967151D01*
X143922133Y-107946107D01*
X143936747Y-107926402D01*
X143953223Y-107908223D01*
X143971402Y-107891747D01*
X143991107Y-107877133D01*
X144012151Y-107864520D01*
X144034329Y-107854030D01*
X144057429Y-107845765D01*
X144081227Y-107839804D01*
X144105496Y-107836204D01*
X144130000Y-107835000D01*
X145705000Y-107835000D01*
X145729504Y-107836204D01*
G37*
M02*
