G04 #@! TF.GenerationSoftware,KiCad,Pcbnew,(5.1.5)-3*
G04 #@! TF.CreationDate,2020-07-27T13:18:42+03:00*
G04 #@! TF.ProjectId,BurtleinaBoard,42757274-6c65-4696-9e61-426f6172642e,0.1*
G04 #@! TF.SameCoordinates,Original*
G04 #@! TF.FileFunction,Legend,Bot*
G04 #@! TF.FilePolarity,Positive*
%FSLAX46Y46*%
G04 Gerber Fmt 4.6, Leading zero omitted, Abs format (unit mm)*
G04 Created by KiCad (PCBNEW (5.1.5)-3) date 2020-07-27 13:18:42*
%MOMM*%
%LPD*%
G04 APERTURE LIST*
%ADD10C,0.200000*%
%ADD11C,0.300000*%
%ADD12C,0.425000*%
%ADD13C,0.500000*%
G04 APERTURE END LIST*
D10*
X163740000Y-127821428D02*
X163882857Y-127750000D01*
X164025714Y-127607142D01*
X164240000Y-127392857D01*
X164382857Y-127321428D01*
X164525714Y-127321428D01*
X164454285Y-127678571D02*
X164597142Y-127607142D01*
X164740000Y-127464285D01*
X164811428Y-127178571D01*
X164811428Y-126678571D01*
X164740000Y-126392857D01*
X164597142Y-126250000D01*
X164454285Y-126178571D01*
X164168571Y-126178571D01*
X164025714Y-126250000D01*
X163882857Y-126392857D01*
X163811428Y-126678571D01*
X163811428Y-127178571D01*
X163882857Y-127464285D01*
X164025714Y-127607142D01*
X164168571Y-127678571D01*
X164454285Y-127678571D01*
X162382857Y-127678571D02*
X163240000Y-127678571D01*
X162811428Y-127678571D02*
X162811428Y-126178571D01*
X162954285Y-126392857D01*
X163097142Y-126535714D01*
X163240000Y-126607142D01*
X161311428Y-126178571D02*
X161311428Y-127250000D01*
X161382857Y-127464285D01*
X161525714Y-127607142D01*
X161740000Y-127678571D01*
X161882857Y-127678571D01*
X160097142Y-126892857D02*
X160597142Y-126892857D01*
X160597142Y-127678571D02*
X160597142Y-126178571D01*
X159882857Y-126178571D01*
X159525714Y-126178571D02*
X158668571Y-126178571D01*
X159097142Y-127678571D02*
X159097142Y-126178571D01*
X158168571Y-126178571D02*
X158168571Y-127392857D01*
X158097142Y-127535714D01*
X158025714Y-127607142D01*
X157882857Y-127678571D01*
X157597142Y-127678571D01*
X157454285Y-127607142D01*
X157382857Y-127535714D01*
X157311428Y-127392857D01*
X157311428Y-126178571D01*
X156525714Y-127678571D02*
X156240000Y-127678571D01*
X156097142Y-127607142D01*
X156025714Y-127535714D01*
X155882857Y-127321428D01*
X155811428Y-127035714D01*
X155811428Y-126464285D01*
X155882857Y-126321428D01*
X155954285Y-126250000D01*
X156097142Y-126178571D01*
X156382857Y-126178571D01*
X156525714Y-126250000D01*
X156597142Y-126321428D01*
X156668571Y-126464285D01*
X156668571Y-126821428D01*
X156597142Y-126964285D01*
X156525714Y-127035714D01*
X156382857Y-127107142D01*
X156097142Y-127107142D01*
X155954285Y-127035714D01*
X155882857Y-126964285D01*
X155811428Y-126821428D01*
X154882857Y-126178571D02*
X154597142Y-126178571D01*
X154454285Y-126250000D01*
X154311428Y-126392857D01*
X154240000Y-126678571D01*
X154240000Y-127178571D01*
X154311428Y-127464285D01*
X154454285Y-127607142D01*
X154597142Y-127678571D01*
X154882857Y-127678571D01*
X155025714Y-127607142D01*
X155168571Y-127464285D01*
X155240000Y-127178571D01*
X155240000Y-126678571D01*
X155168571Y-126392857D01*
X155025714Y-126250000D01*
X154882857Y-126178571D01*
X152597142Y-127821428D02*
X152740000Y-127750000D01*
X152882857Y-127607142D01*
X153097142Y-127392857D01*
X153240000Y-127321428D01*
X153382857Y-127321428D01*
X153311428Y-127678571D02*
X153454285Y-127607142D01*
X153597142Y-127464285D01*
X153668571Y-127178571D01*
X153668571Y-126678571D01*
X153597142Y-126392857D01*
X153454285Y-126250000D01*
X153311428Y-126178571D01*
X153025714Y-126178571D01*
X152882857Y-126250000D01*
X152740000Y-126392857D01*
X152668571Y-126678571D01*
X152668571Y-127178571D01*
X152740000Y-127464285D01*
X152882857Y-127607142D01*
X153025714Y-127678571D01*
X153311428Y-127678571D01*
X152097142Y-127607142D02*
X151882857Y-127678571D01*
X151525714Y-127678571D01*
X151382857Y-127607142D01*
X151311428Y-127535714D01*
X151240000Y-127392857D01*
X151240000Y-127250000D01*
X151311428Y-127107142D01*
X151382857Y-127035714D01*
X151525714Y-126964285D01*
X151811428Y-126892857D01*
X151954285Y-126821428D01*
X152025714Y-126750000D01*
X152097142Y-126607142D01*
X152097142Y-126464285D01*
X152025714Y-126321428D01*
X151954285Y-126250000D01*
X151811428Y-126178571D01*
X151454285Y-126178571D01*
X151240000Y-126250000D01*
X150097142Y-126892857D02*
X149882857Y-126964285D01*
X149811428Y-127035714D01*
X149740000Y-127178571D01*
X149740000Y-127392857D01*
X149811428Y-127535714D01*
X149882857Y-127607142D01*
X150025714Y-127678571D01*
X150597142Y-127678571D01*
X150597142Y-126178571D01*
X150097142Y-126178571D01*
X149954285Y-126250000D01*
X149882857Y-126321428D01*
X149811428Y-126464285D01*
X149811428Y-126607142D01*
X149882857Y-126750000D01*
X149954285Y-126821428D01*
X150097142Y-126892857D01*
X150597142Y-126892857D01*
X149097142Y-127678571D02*
X149097142Y-126178571D01*
X148240000Y-127678571D01*
X148240000Y-126178571D01*
X146668571Y-127678571D02*
X147168571Y-126964285D01*
X147525714Y-127678571D02*
X147525714Y-126178571D01*
X146954285Y-126178571D01*
X146811428Y-126250000D01*
X146740000Y-126321428D01*
X146668571Y-126464285D01*
X146668571Y-126678571D01*
X146740000Y-126821428D01*
X146811428Y-126892857D01*
X146954285Y-126964285D01*
X147525714Y-126964285D01*
X146240000Y-126178571D02*
X145740000Y-127678571D01*
X145240000Y-126178571D01*
X144311428Y-126178571D02*
X144311428Y-127250000D01*
X144382857Y-127464285D01*
X144525714Y-127607142D01*
X144740000Y-127678571D01*
X144882857Y-127678571D01*
X143597142Y-126892857D02*
X143097142Y-126892857D01*
X142882857Y-127678571D02*
X143597142Y-127678571D01*
X143597142Y-126178571D01*
X142882857Y-126178571D01*
X141240000Y-127821428D02*
X141382857Y-127750000D01*
X141525714Y-127607142D01*
X141740000Y-127392857D01*
X141882857Y-127321428D01*
X142025714Y-127321428D01*
X141954285Y-127678571D02*
X142097142Y-127607142D01*
X142240000Y-127464285D01*
X142311428Y-127178571D01*
X142311428Y-126678571D01*
X142240000Y-126392857D01*
X142097142Y-126250000D01*
X141954285Y-126178571D01*
X141668571Y-126178571D01*
X141525714Y-126250000D01*
X141382857Y-126392857D01*
X141311428Y-126678571D01*
X141311428Y-127178571D01*
X141382857Y-127464285D01*
X141525714Y-127607142D01*
X141668571Y-127678571D01*
X141954285Y-127678571D01*
X140740000Y-127607142D02*
X140525714Y-127678571D01*
X140168571Y-127678571D01*
X140025714Y-127607142D01*
X139954285Y-127535714D01*
X139882857Y-127392857D01*
X139882857Y-127250000D01*
X139954285Y-127107142D01*
X140025714Y-127035714D01*
X140168571Y-126964285D01*
X140454285Y-126892857D01*
X140597142Y-126821428D01*
X140668571Y-126750000D01*
X140740000Y-126607142D01*
X140740000Y-126464285D01*
X140668571Y-126321428D01*
X140597142Y-126250000D01*
X140454285Y-126178571D01*
X140097142Y-126178571D01*
X139882857Y-126250000D01*
X138597142Y-126678571D02*
X138597142Y-127678571D01*
X138954285Y-126107142D02*
X139311428Y-127178571D01*
X138382857Y-127178571D01*
X137168571Y-126678571D02*
X137168571Y-127892857D01*
X137240000Y-128035714D01*
X137311428Y-128107142D01*
X137454285Y-128178571D01*
X137668571Y-128178571D01*
X137811428Y-128107142D01*
X137168571Y-127607142D02*
X137311428Y-127678571D01*
X137597142Y-127678571D01*
X137740000Y-127607142D01*
X137811428Y-127535714D01*
X137882857Y-127392857D01*
X137882857Y-126964285D01*
X137811428Y-126821428D01*
X137740000Y-126750000D01*
X137597142Y-126678571D01*
X137311428Y-126678571D01*
X137168571Y-126750000D01*
X136454285Y-126178571D02*
X136454285Y-127392857D01*
X136382857Y-127535714D01*
X136311428Y-127607142D01*
X136168571Y-127678571D01*
X135882857Y-127678571D01*
X135740000Y-127607142D01*
X135668571Y-127535714D01*
X135597142Y-127392857D01*
X135597142Y-126178571D01*
X134597142Y-126178571D02*
X134454285Y-126178571D01*
X134311428Y-126250000D01*
X134240000Y-126321428D01*
X134168571Y-126464285D01*
X134097142Y-126750000D01*
X134097142Y-127107142D01*
X134168571Y-127392857D01*
X134240000Y-127535714D01*
X134311428Y-127607142D01*
X134454285Y-127678571D01*
X134597142Y-127678571D01*
X134740000Y-127607142D01*
X134811428Y-127535714D01*
X134882857Y-127392857D01*
X134954285Y-127107142D01*
X134954285Y-126750000D01*
X134882857Y-126464285D01*
X134811428Y-126321428D01*
X134740000Y-126250000D01*
X134597142Y-126178571D01*
X133668571Y-126178571D02*
X133168571Y-127678571D01*
X132668571Y-126178571D01*
X132168571Y-127678571D02*
X132168571Y-126178571D01*
X131311428Y-127678571D01*
X131311428Y-126178571D01*
X130597142Y-126178571D02*
X130597142Y-127392857D01*
X130525714Y-127535714D01*
X130454285Y-127607142D01*
X130311428Y-127678571D01*
X130025714Y-127678571D01*
X129882857Y-127607142D01*
X129811428Y-127535714D01*
X129740000Y-127392857D01*
X129740000Y-126178571D01*
X128525714Y-126892857D02*
X129025714Y-126892857D01*
X129025714Y-127678571D02*
X129025714Y-126178571D01*
X128311428Y-126178571D01*
X127311428Y-126178571D02*
X127311428Y-127250000D01*
X127382857Y-127464285D01*
X127525714Y-127607142D01*
X127740000Y-127678571D01*
X127882857Y-127678571D01*
X126097142Y-126892857D02*
X126597142Y-126892857D01*
X126597142Y-127678571D02*
X126597142Y-126178571D01*
X125882857Y-126178571D01*
X124597142Y-127678571D02*
X125311428Y-127678571D01*
X125311428Y-126178571D01*
X123454285Y-126678571D02*
X123454285Y-127892857D01*
X123525714Y-128035714D01*
X123597142Y-128107142D01*
X123740000Y-128178571D01*
X123954285Y-128178571D01*
X124097142Y-128107142D01*
X123454285Y-127607142D02*
X123597142Y-127678571D01*
X123882857Y-127678571D01*
X124025714Y-127607142D01*
X124097142Y-127535714D01*
X124168571Y-127392857D01*
X124168571Y-126964285D01*
X124097142Y-126821428D01*
X124025714Y-126750000D01*
X123882857Y-126678571D01*
X123597142Y-126678571D01*
X123454285Y-126750000D01*
X122740000Y-126892857D02*
X121597142Y-126892857D01*
X121597142Y-127321428D02*
X122740000Y-127321428D01*
X120882857Y-126892857D02*
X119740000Y-126892857D01*
X119740000Y-127321428D02*
X120882857Y-127321428D01*
D11*
X173370000Y-31207142D02*
X172798571Y-33207142D01*
X172227142Y-31778571D01*
X171655714Y-33207142D01*
X171084285Y-31207142D01*
X170227142Y-31207142D02*
X169655714Y-33207142D01*
X169084285Y-31778571D01*
X168512857Y-33207142D01*
X167941428Y-31207142D01*
X167084285Y-31207142D02*
X166512857Y-33207142D01*
X165941428Y-31778571D01*
X165370000Y-33207142D01*
X164798571Y-31207142D01*
X163655714Y-32921428D02*
X163512857Y-33064285D01*
X163655714Y-33207142D01*
X163798571Y-33064285D01*
X163655714Y-32921428D01*
X163655714Y-33207142D01*
X162370000Y-33064285D02*
X162084285Y-33207142D01*
X161512857Y-33207142D01*
X161227142Y-33064285D01*
X161084285Y-32778571D01*
X161084285Y-32635714D01*
X161227142Y-32350000D01*
X161512857Y-32207142D01*
X161941428Y-32207142D01*
X162227142Y-32064285D01*
X162370000Y-31778571D01*
X162370000Y-31635714D01*
X162227142Y-31350000D01*
X161941428Y-31207142D01*
X161512857Y-31207142D01*
X161227142Y-31350000D01*
X158655714Y-33064285D02*
X158941428Y-33207142D01*
X159512857Y-33207142D01*
X159798571Y-33064285D01*
X159941428Y-32778571D01*
X159941428Y-31635714D01*
X159798571Y-31350000D01*
X159512857Y-31207142D01*
X158941428Y-31207142D01*
X158655714Y-31350000D01*
X158512857Y-31635714D01*
X158512857Y-31921428D01*
X159941428Y-32207142D01*
X155941428Y-33064285D02*
X156227142Y-33207142D01*
X156798571Y-33207142D01*
X157084285Y-33064285D01*
X157227142Y-32921428D01*
X157370000Y-32635714D01*
X157370000Y-31778571D01*
X157227142Y-31492857D01*
X157084285Y-31350000D01*
X156798571Y-31207142D01*
X156227142Y-31207142D01*
X155941428Y-31350000D01*
X153370000Y-31207142D02*
X153370000Y-33207142D01*
X154655714Y-31207142D02*
X154655714Y-32778571D01*
X154512857Y-33064285D01*
X154227142Y-33207142D01*
X153798571Y-33207142D01*
X153512857Y-33064285D01*
X153370000Y-32921428D01*
X151941428Y-33207142D02*
X151941428Y-31207142D01*
X151941428Y-31778571D02*
X151798571Y-31492857D01*
X151655714Y-31350000D01*
X151370000Y-31207142D01*
X151084285Y-31207142D01*
X150084285Y-33207142D02*
X150084285Y-31207142D01*
X150084285Y-30207142D02*
X150227142Y-30350000D01*
X150084285Y-30492857D01*
X149941428Y-30350000D01*
X150084285Y-30207142D01*
X150084285Y-30492857D01*
X149084285Y-31207142D02*
X147941428Y-31207142D01*
X148655714Y-30207142D02*
X148655714Y-32778571D01*
X148512857Y-33064285D01*
X148227142Y-33207142D01*
X147941428Y-33207142D01*
X147227142Y-31207142D02*
X146512857Y-33207142D01*
X145798571Y-31207142D02*
X146512857Y-33207142D01*
X146798571Y-33921428D01*
X146941428Y-34064285D01*
X147227142Y-34207142D01*
X143370000Y-33064285D02*
X143655714Y-33207142D01*
X144227142Y-33207142D01*
X144512857Y-33064285D01*
X144655714Y-32921428D01*
X144798571Y-32635714D01*
X144798571Y-31778571D01*
X144655714Y-31492857D01*
X144512857Y-31350000D01*
X144227142Y-31207142D01*
X143655714Y-31207142D01*
X143370000Y-31350000D01*
X141655714Y-33207142D02*
X141941428Y-33064285D01*
X142084285Y-32921428D01*
X142227142Y-32635714D01*
X142227142Y-31778571D01*
X142084285Y-31492857D01*
X141941428Y-31350000D01*
X141655714Y-31207142D01*
X141227142Y-31207142D01*
X140941428Y-31350000D01*
X140798571Y-31492857D01*
X140655714Y-31778571D01*
X140655714Y-32635714D01*
X140798571Y-32921428D01*
X140941428Y-33064285D01*
X141227142Y-33207142D01*
X141655714Y-33207142D01*
X139370000Y-31207142D02*
X139370000Y-33207142D01*
X139370000Y-31492857D02*
X139227142Y-31350000D01*
X138941428Y-31207142D01*
X138512857Y-31207142D01*
X138227142Y-31350000D01*
X138084285Y-31635714D01*
X138084285Y-33207142D01*
X135370000Y-33207142D02*
X135370000Y-30207142D01*
X135370000Y-33064285D02*
X135655714Y-33207142D01*
X136227142Y-33207142D01*
X136512857Y-33064285D01*
X136655714Y-32921428D01*
X136798571Y-32635714D01*
X136798571Y-31778571D01*
X136655714Y-31492857D01*
X136512857Y-31350000D01*
X136227142Y-31207142D01*
X135655714Y-31207142D01*
X135370000Y-31350000D01*
X133941428Y-33207142D02*
X133941428Y-31207142D01*
X133941428Y-30207142D02*
X134084285Y-30350000D01*
X133941428Y-30492857D01*
X133798571Y-30350000D01*
X133941428Y-30207142D01*
X133941428Y-30492857D01*
X132941428Y-31207142D02*
X131798571Y-31207142D01*
X132512857Y-30207142D02*
X132512857Y-32778571D01*
X132370000Y-33064285D01*
X132084285Y-33207142D01*
X131798571Y-33207142D01*
X130798571Y-33207142D02*
X130798571Y-31207142D01*
X130798571Y-30207142D02*
X130941428Y-30350000D01*
X130798571Y-30492857D01*
X130655714Y-30350000D01*
X130798571Y-30207142D01*
X130798571Y-30492857D01*
X128941428Y-33207142D02*
X129227142Y-33064285D01*
X129370000Y-32921428D01*
X129512857Y-32635714D01*
X129512857Y-31778571D01*
X129370000Y-31492857D01*
X129227142Y-31350000D01*
X128941428Y-31207142D01*
X128512857Y-31207142D01*
X128227142Y-31350000D01*
X128084285Y-31492857D01*
X127941428Y-31778571D01*
X127941428Y-32635714D01*
X128084285Y-32921428D01*
X128227142Y-33064285D01*
X128512857Y-33207142D01*
X128941428Y-33207142D01*
X126655714Y-31207142D02*
X126655714Y-33207142D01*
X126655714Y-31492857D02*
X126512857Y-31350000D01*
X126227142Y-31207142D01*
X125798571Y-31207142D01*
X125512857Y-31350000D01*
X125370000Y-31635714D01*
X125370000Y-33207142D01*
X123941428Y-32921428D02*
X123798571Y-33064285D01*
X123941428Y-33207142D01*
X124084285Y-33064285D01*
X123941428Y-32921428D01*
X123941428Y-33207142D01*
X121227142Y-33064285D02*
X121512857Y-33207142D01*
X122084285Y-33207142D01*
X122370000Y-33064285D01*
X122512857Y-32921428D01*
X122655714Y-32635714D01*
X122655714Y-31778571D01*
X122512857Y-31492857D01*
X122370000Y-31350000D01*
X122084285Y-31207142D01*
X121512857Y-31207142D01*
X121227142Y-31350000D01*
X119512857Y-33207142D02*
X119798571Y-33064285D01*
X119941428Y-32921428D01*
X120084285Y-32635714D01*
X120084285Y-31778571D01*
X119941428Y-31492857D01*
X119798571Y-31350000D01*
X119512857Y-31207142D01*
X119084285Y-31207142D01*
X118798571Y-31350000D01*
X118655714Y-31492857D01*
X118512857Y-31778571D01*
X118512857Y-32635714D01*
X118655714Y-32921428D01*
X118798571Y-33064285D01*
X119084285Y-33207142D01*
X119512857Y-33207142D01*
X117227142Y-33207142D02*
X117227142Y-31207142D01*
X117227142Y-31492857D02*
X117084285Y-31350000D01*
X116798571Y-31207142D01*
X116370000Y-31207142D01*
X116084285Y-31350000D01*
X115941428Y-31635714D01*
X115941428Y-33207142D01*
X115941428Y-31635714D02*
X115798571Y-31350000D01*
X115512857Y-31207142D01*
X115084285Y-31207142D01*
X114798571Y-31350000D01*
X114655714Y-31635714D01*
X114655714Y-33207142D01*
D12*
X181381904Y-97230952D02*
X181381904Y-99016666D01*
X181462857Y-99373809D01*
X181624761Y-99611904D01*
X181867619Y-99730952D01*
X182029523Y-99730952D01*
X179843809Y-98064285D02*
X179843809Y-99730952D01*
X180572380Y-98064285D02*
X180572380Y-99373809D01*
X180491428Y-99611904D01*
X180329523Y-99730952D01*
X180086666Y-99730952D01*
X179924761Y-99611904D01*
X179843809Y-99492857D01*
X178791428Y-99730952D02*
X178953333Y-99611904D01*
X179034285Y-99373809D01*
X179034285Y-97230952D01*
X178143809Y-99730952D02*
X178143809Y-98064285D01*
X178143809Y-97230952D02*
X178224761Y-97350000D01*
X178143809Y-97469047D01*
X178062857Y-97350000D01*
X178143809Y-97230952D01*
X178143809Y-97469047D01*
X176605714Y-98064285D02*
X176605714Y-99730952D01*
X177334285Y-98064285D02*
X177334285Y-99373809D01*
X177253333Y-99611904D01*
X177091428Y-99730952D01*
X176848571Y-99730952D01*
X176686666Y-99611904D01*
X176605714Y-99492857D01*
X175877142Y-99611904D02*
X175715238Y-99730952D01*
X175391428Y-99730952D01*
X175229523Y-99611904D01*
X175148571Y-99373809D01*
X175148571Y-99254761D01*
X175229523Y-99016666D01*
X175391428Y-98897619D01*
X175634285Y-98897619D01*
X175796190Y-98778571D01*
X175877142Y-98540476D01*
X175877142Y-98421428D01*
X175796190Y-98183333D01*
X175634285Y-98064285D01*
X175391428Y-98064285D01*
X175229523Y-98183333D01*
X172153333Y-99492857D02*
X172234285Y-99611904D01*
X172477142Y-99730952D01*
X172639047Y-99730952D01*
X172881904Y-99611904D01*
X173043809Y-99373809D01*
X173124761Y-99135714D01*
X173205714Y-98659523D01*
X173205714Y-98302380D01*
X173124761Y-97826190D01*
X173043809Y-97588095D01*
X172881904Y-97350000D01*
X172639047Y-97230952D01*
X172477142Y-97230952D01*
X172234285Y-97350000D01*
X172153333Y-97469047D01*
X170696190Y-99730952D02*
X170696190Y-98421428D01*
X170777142Y-98183333D01*
X170939047Y-98064285D01*
X171262857Y-98064285D01*
X171424761Y-98183333D01*
X170696190Y-99611904D02*
X170858095Y-99730952D01*
X171262857Y-99730952D01*
X171424761Y-99611904D01*
X171505714Y-99373809D01*
X171505714Y-99135714D01*
X171424761Y-98897619D01*
X171262857Y-98778571D01*
X170858095Y-98778571D01*
X170696190Y-98659523D01*
X169239047Y-99611904D02*
X169400952Y-99730952D01*
X169724761Y-99730952D01*
X169886666Y-99611904D01*
X169967619Y-99373809D01*
X169967619Y-98421428D01*
X169886666Y-98183333D01*
X169724761Y-98064285D01*
X169400952Y-98064285D01*
X169239047Y-98183333D01*
X169158095Y-98421428D01*
X169158095Y-98659523D01*
X169967619Y-98897619D01*
X168510476Y-99611904D02*
X168348571Y-99730952D01*
X168024761Y-99730952D01*
X167862857Y-99611904D01*
X167781904Y-99373809D01*
X167781904Y-99254761D01*
X167862857Y-99016666D01*
X168024761Y-98897619D01*
X168267619Y-98897619D01*
X168429523Y-98778571D01*
X168510476Y-98540476D01*
X168510476Y-98421428D01*
X168429523Y-98183333D01*
X168267619Y-98064285D01*
X168024761Y-98064285D01*
X167862857Y-98183333D01*
X166324761Y-99730952D02*
X166324761Y-98421428D01*
X166405714Y-98183333D01*
X166567619Y-98064285D01*
X166891428Y-98064285D01*
X167053333Y-98183333D01*
X166324761Y-99611904D02*
X166486666Y-99730952D01*
X166891428Y-99730952D01*
X167053333Y-99611904D01*
X167134285Y-99373809D01*
X167134285Y-99135714D01*
X167053333Y-98897619D01*
X166891428Y-98778571D01*
X166486666Y-98778571D01*
X166324761Y-98659523D01*
X165515238Y-99730952D02*
X165515238Y-98064285D01*
X165515238Y-98540476D02*
X165434285Y-98302380D01*
X165353333Y-98183333D01*
X165191428Y-98064285D01*
X165029523Y-98064285D01*
D13*
X186346666Y-68646666D02*
X186556190Y-69180000D01*
X185613333Y-68646666D02*
X185089523Y-71446666D01*
X184670476Y-69446666D01*
X184251428Y-71446666D01*
X183727619Y-68646666D01*
X182889523Y-71446666D02*
X182889523Y-69580000D01*
X182889523Y-68646666D02*
X182994285Y-68780000D01*
X182889523Y-68913333D01*
X182784761Y-68780000D01*
X182889523Y-68646666D01*
X182889523Y-68913333D01*
X182156190Y-69580000D02*
X181318095Y-69580000D01*
X181841904Y-68646666D02*
X181841904Y-71046666D01*
X181737142Y-71313333D01*
X181527619Y-71446666D01*
X181318095Y-71446666D01*
X180584761Y-71446666D02*
X180584761Y-68646666D01*
X179641904Y-71446666D02*
X179641904Y-69980000D01*
X179746666Y-69713333D01*
X179956190Y-69580000D01*
X180270476Y-69580000D01*
X180480000Y-69713333D01*
X180584761Y-69846666D01*
X178280000Y-71446666D02*
X178489523Y-71313333D01*
X178594285Y-71180000D01*
X178699047Y-70913333D01*
X178699047Y-70113333D01*
X178594285Y-69846666D01*
X178489523Y-69713333D01*
X178280000Y-69580000D01*
X177965714Y-69580000D01*
X177756190Y-69713333D01*
X177651428Y-69846666D01*
X177546666Y-70113333D01*
X177546666Y-70913333D01*
X177651428Y-71180000D01*
X177756190Y-71313333D01*
X177965714Y-71446666D01*
X178280000Y-71446666D01*
X175660952Y-69580000D02*
X175660952Y-71446666D01*
X176603809Y-69580000D02*
X176603809Y-71046666D01*
X176499047Y-71313333D01*
X176289523Y-71446666D01*
X175975238Y-71446666D01*
X175765714Y-71313333D01*
X175660952Y-71180000D01*
X174927619Y-69580000D02*
X174089523Y-69580000D01*
X174613333Y-68646666D02*
X174613333Y-71046666D01*
X174508571Y-71313333D01*
X174299047Y-71446666D01*
X174089523Y-71446666D01*
X171994285Y-68646666D02*
X170737142Y-68646666D01*
X171365714Y-71446666D02*
X171365714Y-68646666D01*
X170003809Y-71446666D02*
X170003809Y-69580000D01*
X170003809Y-70113333D02*
X169899047Y-69846666D01*
X169794285Y-69713333D01*
X169584761Y-69580000D01*
X169375238Y-69580000D01*
X167699047Y-71446666D02*
X167699047Y-69980000D01*
X167803809Y-69713333D01*
X168013333Y-69580000D01*
X168432380Y-69580000D01*
X168641904Y-69713333D01*
X167699047Y-71313333D02*
X167908571Y-71446666D01*
X168432380Y-71446666D01*
X168641904Y-71313333D01*
X168746666Y-71046666D01*
X168746666Y-70780000D01*
X168641904Y-70513333D01*
X168432380Y-70380000D01*
X167908571Y-70380000D01*
X167699047Y-70246666D01*
X166651428Y-71446666D02*
X166651428Y-69580000D01*
X166651428Y-68646666D02*
X166756190Y-68780000D01*
X166651428Y-68913333D01*
X166546666Y-68780000D01*
X166651428Y-68646666D01*
X166651428Y-68913333D01*
X165603809Y-69580000D02*
X165603809Y-71446666D01*
X165603809Y-69846666D02*
X165499047Y-69713333D01*
X165289523Y-69580000D01*
X164975238Y-69580000D01*
X164765714Y-69713333D01*
X164660952Y-69980000D01*
X164660952Y-71446666D01*
X163613333Y-71446666D02*
X163613333Y-69580000D01*
X163613333Y-68646666D02*
X163718095Y-68780000D01*
X163613333Y-68913333D01*
X163508571Y-68780000D01*
X163613333Y-68646666D01*
X163613333Y-68913333D01*
X162565714Y-69580000D02*
X162565714Y-71446666D01*
X162565714Y-69846666D02*
X162460952Y-69713333D01*
X162251428Y-69580000D01*
X161937142Y-69580000D01*
X161727619Y-69713333D01*
X161622857Y-69980000D01*
X161622857Y-71446666D01*
X159632380Y-69580000D02*
X159632380Y-71846666D01*
X159737142Y-72113333D01*
X159841904Y-72246666D01*
X160051428Y-72380000D01*
X160365714Y-72380000D01*
X160575238Y-72246666D01*
X159632380Y-71313333D02*
X159841904Y-71446666D01*
X160260952Y-71446666D01*
X160470476Y-71313333D01*
X160575238Y-71180000D01*
X160680000Y-70913333D01*
X160680000Y-70113333D01*
X160575238Y-69846666D01*
X160470476Y-69713333D01*
X160260952Y-69580000D01*
X159841904Y-69580000D01*
X159632380Y-69713333D01*
X158480000Y-71313333D02*
X158480000Y-71446666D01*
X158584761Y-71713333D01*
X158689523Y-71846666D01*
X191113333Y-74280000D02*
X190275238Y-74280000D01*
X190799047Y-73346666D02*
X190799047Y-75746666D01*
X190694285Y-76013333D01*
X190484761Y-76146666D01*
X190275238Y-76146666D01*
X189541904Y-76146666D02*
X189541904Y-73346666D01*
X188599047Y-76146666D02*
X188599047Y-74680000D01*
X188703809Y-74413333D01*
X188913333Y-74280000D01*
X189227619Y-74280000D01*
X189437142Y-74413333D01*
X189541904Y-74546666D01*
X186713333Y-76013333D02*
X186922857Y-76146666D01*
X187341904Y-76146666D01*
X187551428Y-76013333D01*
X187656190Y-75746666D01*
X187656190Y-74680000D01*
X187551428Y-74413333D01*
X187341904Y-74280000D01*
X186922857Y-74280000D01*
X186713333Y-74413333D01*
X186608571Y-74680000D01*
X186608571Y-74946666D01*
X187656190Y-75213333D01*
X185875238Y-74280000D02*
X185351428Y-76146666D01*
X184827619Y-74280000D02*
X185351428Y-76146666D01*
X185560952Y-76813333D01*
X185665714Y-76946666D01*
X185875238Y-77080000D01*
X181999047Y-76146666D02*
X182208571Y-76013333D01*
X182313333Y-75746666D01*
X182313333Y-73346666D01*
X180218095Y-76146666D02*
X180218095Y-74680000D01*
X180322857Y-74413333D01*
X180532380Y-74280000D01*
X180951428Y-74280000D01*
X181160952Y-74413333D01*
X180218095Y-76013333D02*
X180427619Y-76146666D01*
X180951428Y-76146666D01*
X181160952Y-76013333D01*
X181265714Y-75746666D01*
X181265714Y-75480000D01*
X181160952Y-75213333D01*
X180951428Y-75080000D01*
X180427619Y-75080000D01*
X180218095Y-74946666D01*
X178227619Y-76013333D02*
X178437142Y-76146666D01*
X178856190Y-76146666D01*
X179065714Y-76013333D01*
X179170476Y-75880000D01*
X179275238Y-75613333D01*
X179275238Y-74813333D01*
X179170476Y-74546666D01*
X179065714Y-74413333D01*
X178856190Y-74280000D01*
X178437142Y-74280000D01*
X178227619Y-74413333D01*
X177284761Y-76146666D02*
X177284761Y-73346666D01*
X177075238Y-75080000D02*
X176446666Y-76146666D01*
X176446666Y-74280000D02*
X177284761Y-75346666D01*
X174665714Y-76013333D02*
X174875238Y-76146666D01*
X175294285Y-76146666D01*
X175503809Y-76013333D01*
X175608571Y-75746666D01*
X175608571Y-74680000D01*
X175503809Y-74413333D01*
X175294285Y-74280000D01*
X174875238Y-74280000D01*
X174665714Y-74413333D01*
X174560952Y-74680000D01*
X174560952Y-74946666D01*
X175608571Y-75213333D01*
X172675238Y-76146666D02*
X172675238Y-73346666D01*
X172675238Y-76013333D02*
X172884761Y-76146666D01*
X173303809Y-76146666D01*
X173513333Y-76013333D01*
X173618095Y-75880000D01*
X173722857Y-75613333D01*
X173722857Y-74813333D01*
X173618095Y-74546666D01*
X173513333Y-74413333D01*
X173303809Y-74280000D01*
X172884761Y-74280000D01*
X172675238Y-74413333D01*
X169951428Y-76146666D02*
X169951428Y-73346666D01*
X168694285Y-76146666D02*
X169637142Y-74546666D01*
X168694285Y-73346666D02*
X169951428Y-74946666D01*
X167751428Y-74280000D02*
X167751428Y-76146666D01*
X167751428Y-74546666D02*
X167646666Y-74413333D01*
X167437142Y-74280000D01*
X167122857Y-74280000D01*
X166913333Y-74413333D01*
X166808571Y-74680000D01*
X166808571Y-76146666D01*
X165446666Y-76146666D02*
X165656190Y-76013333D01*
X165760952Y-75880000D01*
X165865714Y-75613333D01*
X165865714Y-74813333D01*
X165760952Y-74546666D01*
X165656190Y-74413333D01*
X165446666Y-74280000D01*
X165132380Y-74280000D01*
X164922857Y-74413333D01*
X164818095Y-74546666D01*
X164713333Y-74813333D01*
X164713333Y-75613333D01*
X164818095Y-75880000D01*
X164922857Y-76013333D01*
X165132380Y-76146666D01*
X165446666Y-76146666D01*
X163980000Y-74280000D02*
X163560952Y-76146666D01*
X163141904Y-74813333D01*
X162722857Y-76146666D01*
X162303809Y-74280000D01*
X161151428Y-76146666D02*
X161360952Y-76013333D01*
X161465714Y-75746666D01*
X161465714Y-73346666D01*
X159475238Y-76013333D02*
X159684761Y-76146666D01*
X160103809Y-76146666D01*
X160313333Y-76013333D01*
X160418095Y-75746666D01*
X160418095Y-74680000D01*
X160313333Y-74413333D01*
X160103809Y-74280000D01*
X159684761Y-74280000D01*
X159475238Y-74413333D01*
X159370476Y-74680000D01*
X159370476Y-74946666D01*
X160418095Y-75213333D01*
X157484761Y-76146666D02*
X157484761Y-73346666D01*
X157484761Y-76013333D02*
X157694285Y-76146666D01*
X158113333Y-76146666D01*
X158322857Y-76013333D01*
X158427619Y-75880000D01*
X158532380Y-75613333D01*
X158532380Y-74813333D01*
X158427619Y-74546666D01*
X158322857Y-74413333D01*
X158113333Y-74280000D01*
X157694285Y-74280000D01*
X157484761Y-74413333D01*
X155494285Y-74280000D02*
X155494285Y-76546666D01*
X155599047Y-76813333D01*
X155703809Y-76946666D01*
X155913333Y-77080000D01*
X156227619Y-77080000D01*
X156437142Y-76946666D01*
X155494285Y-76013333D02*
X155703809Y-76146666D01*
X156122857Y-76146666D01*
X156332380Y-76013333D01*
X156437142Y-75880000D01*
X156541904Y-75613333D01*
X156541904Y-74813333D01*
X156437142Y-74546666D01*
X156332380Y-74413333D01*
X156122857Y-74280000D01*
X155703809Y-74280000D01*
X155494285Y-74413333D01*
X153608571Y-76013333D02*
X153818095Y-76146666D01*
X154237142Y-76146666D01*
X154446666Y-76013333D01*
X154551428Y-75746666D01*
X154551428Y-74680000D01*
X154446666Y-74413333D01*
X154237142Y-74280000D01*
X153818095Y-74280000D01*
X153608571Y-74413333D01*
X153503809Y-74680000D01*
X153503809Y-74946666D01*
X154551428Y-75213333D01*
X152560952Y-75880000D02*
X152456190Y-76013333D01*
X152560952Y-76146666D01*
X152665714Y-76013333D01*
X152560952Y-75880000D01*
X152560952Y-76146666D01*
X188284761Y-78046666D02*
X187760952Y-80846666D01*
X187341904Y-78846666D01*
X186922857Y-80846666D01*
X186399047Y-78046666D01*
X185560952Y-80846666D02*
X185560952Y-78980000D01*
X185560952Y-78046666D02*
X185665714Y-78180000D01*
X185560952Y-78313333D01*
X185456190Y-78180000D01*
X185560952Y-78046666D01*
X185560952Y-78313333D01*
X184827619Y-78980000D02*
X183989523Y-78980000D01*
X184513333Y-78046666D02*
X184513333Y-80446666D01*
X184408571Y-80713333D01*
X184199047Y-80846666D01*
X183989523Y-80846666D01*
X183256190Y-80846666D02*
X183256190Y-78046666D01*
X182313333Y-80846666D02*
X182313333Y-79380000D01*
X182418095Y-79113333D01*
X182627619Y-78980000D01*
X182941904Y-78980000D01*
X183151428Y-79113333D01*
X183256190Y-79246666D01*
X180951428Y-80846666D02*
X181160952Y-80713333D01*
X181265714Y-80580000D01*
X181370476Y-80313333D01*
X181370476Y-79513333D01*
X181265714Y-79246666D01*
X181160952Y-79113333D01*
X180951428Y-78980000D01*
X180637142Y-78980000D01*
X180427619Y-79113333D01*
X180322857Y-79246666D01*
X180218095Y-79513333D01*
X180218095Y-80313333D01*
X180322857Y-80580000D01*
X180427619Y-80713333D01*
X180637142Y-80846666D01*
X180951428Y-80846666D01*
X178332380Y-78980000D02*
X178332380Y-80846666D01*
X179275238Y-78980000D02*
X179275238Y-80446666D01*
X179170476Y-80713333D01*
X178960952Y-80846666D01*
X178646666Y-80846666D01*
X178437142Y-80713333D01*
X178332380Y-80580000D01*
X177599047Y-78980000D02*
X176760952Y-78980000D01*
X177284761Y-78046666D02*
X177284761Y-80446666D01*
X177180000Y-80713333D01*
X176970476Y-80846666D01*
X176760952Y-80846666D01*
X174351428Y-80846666D02*
X174351428Y-78046666D01*
X173094285Y-80846666D02*
X174037142Y-79246666D01*
X173094285Y-78046666D02*
X174351428Y-79646666D01*
X172151428Y-78980000D02*
X172151428Y-80846666D01*
X172151428Y-79246666D02*
X172046666Y-79113333D01*
X171837142Y-78980000D01*
X171522857Y-78980000D01*
X171313333Y-79113333D01*
X171208571Y-79380000D01*
X171208571Y-80846666D01*
X169846666Y-80846666D02*
X170056190Y-80713333D01*
X170160952Y-80580000D01*
X170265714Y-80313333D01*
X170265714Y-79513333D01*
X170160952Y-79246666D01*
X170056190Y-79113333D01*
X169846666Y-78980000D01*
X169532380Y-78980000D01*
X169322857Y-79113333D01*
X169218095Y-79246666D01*
X169113333Y-79513333D01*
X169113333Y-80313333D01*
X169218095Y-80580000D01*
X169322857Y-80713333D01*
X169532380Y-80846666D01*
X169846666Y-80846666D01*
X168380000Y-78980000D02*
X167960952Y-80846666D01*
X167541904Y-79513333D01*
X167122857Y-80846666D01*
X166703809Y-78980000D01*
X165551428Y-80846666D02*
X165760952Y-80713333D01*
X165865714Y-80446666D01*
X165865714Y-78046666D01*
X163875238Y-80713333D02*
X164084761Y-80846666D01*
X164503809Y-80846666D01*
X164713333Y-80713333D01*
X164818095Y-80446666D01*
X164818095Y-79380000D01*
X164713333Y-79113333D01*
X164503809Y-78980000D01*
X164084761Y-78980000D01*
X163875238Y-79113333D01*
X163770476Y-79380000D01*
X163770476Y-79646666D01*
X164818095Y-79913333D01*
X161884761Y-80846666D02*
X161884761Y-78046666D01*
X161884761Y-80713333D02*
X162094285Y-80846666D01*
X162513333Y-80846666D01*
X162722857Y-80713333D01*
X162827619Y-80580000D01*
X162932380Y-80313333D01*
X162932380Y-79513333D01*
X162827619Y-79246666D01*
X162722857Y-79113333D01*
X162513333Y-78980000D01*
X162094285Y-78980000D01*
X161884761Y-79113333D01*
X159894285Y-78980000D02*
X159894285Y-81246666D01*
X159999047Y-81513333D01*
X160103809Y-81646666D01*
X160313333Y-81780000D01*
X160627619Y-81780000D01*
X160837142Y-81646666D01*
X159894285Y-80713333D02*
X160103809Y-80846666D01*
X160522857Y-80846666D01*
X160732380Y-80713333D01*
X160837142Y-80580000D01*
X160941904Y-80313333D01*
X160941904Y-79513333D01*
X160837142Y-79246666D01*
X160732380Y-79113333D01*
X160522857Y-78980000D01*
X160103809Y-78980000D01*
X159894285Y-79113333D01*
X158008571Y-80713333D02*
X158218095Y-80846666D01*
X158637142Y-80846666D01*
X158846666Y-80713333D01*
X158951428Y-80446666D01*
X158951428Y-79380000D01*
X158846666Y-79113333D01*
X158637142Y-78980000D01*
X158218095Y-78980000D01*
X158008571Y-79113333D01*
X157903809Y-79380000D01*
X157903809Y-79646666D01*
X158951428Y-79913333D01*
X156856190Y-80713333D02*
X156856190Y-80846666D01*
X156960952Y-81113333D01*
X157065714Y-81246666D01*
X191480000Y-83680000D02*
X190641904Y-83680000D01*
X191165714Y-82746666D02*
X191165714Y-85146666D01*
X191060952Y-85413333D01*
X190851428Y-85546666D01*
X190641904Y-85546666D01*
X189908571Y-85546666D02*
X189908571Y-82746666D01*
X188965714Y-85546666D02*
X188965714Y-84080000D01*
X189070476Y-83813333D01*
X189280000Y-83680000D01*
X189594285Y-83680000D01*
X189803809Y-83813333D01*
X189908571Y-83946666D01*
X187080000Y-85413333D02*
X187289523Y-85546666D01*
X187708571Y-85546666D01*
X187918095Y-85413333D01*
X188022857Y-85146666D01*
X188022857Y-84080000D01*
X187918095Y-83813333D01*
X187708571Y-83680000D01*
X187289523Y-83680000D01*
X187080000Y-83813333D01*
X186975238Y-84080000D01*
X186975238Y-84346666D01*
X188022857Y-84613333D01*
X186241904Y-83680000D02*
X185718095Y-85546666D01*
X185194285Y-83680000D02*
X185718095Y-85546666D01*
X185927619Y-86213333D01*
X186032380Y-86346666D01*
X186241904Y-86480000D01*
X182365714Y-85546666D02*
X182575238Y-85413333D01*
X182680000Y-85146666D01*
X182680000Y-82746666D01*
X180584761Y-85546666D02*
X180584761Y-84080000D01*
X180689523Y-83813333D01*
X180899047Y-83680000D01*
X181318095Y-83680000D01*
X181527619Y-83813333D01*
X180584761Y-85413333D02*
X180794285Y-85546666D01*
X181318095Y-85546666D01*
X181527619Y-85413333D01*
X181632380Y-85146666D01*
X181632380Y-84880000D01*
X181527619Y-84613333D01*
X181318095Y-84480000D01*
X180794285Y-84480000D01*
X180584761Y-84346666D01*
X178594285Y-85413333D02*
X178803809Y-85546666D01*
X179222857Y-85546666D01*
X179432380Y-85413333D01*
X179537142Y-85280000D01*
X179641904Y-85013333D01*
X179641904Y-84213333D01*
X179537142Y-83946666D01*
X179432380Y-83813333D01*
X179222857Y-83680000D01*
X178803809Y-83680000D01*
X178594285Y-83813333D01*
X177651428Y-85546666D02*
X177651428Y-82746666D01*
X177441904Y-84480000D02*
X176813333Y-85546666D01*
X176813333Y-83680000D02*
X177651428Y-84746666D01*
X175032380Y-85413333D02*
X175241904Y-85546666D01*
X175660952Y-85546666D01*
X175870476Y-85413333D01*
X175975238Y-85146666D01*
X175975238Y-84080000D01*
X175870476Y-83813333D01*
X175660952Y-83680000D01*
X175241904Y-83680000D01*
X175032380Y-83813333D01*
X174927619Y-84080000D01*
X174927619Y-84346666D01*
X175975238Y-84613333D01*
X173041904Y-85546666D02*
X173041904Y-82746666D01*
X173041904Y-85413333D02*
X173251428Y-85546666D01*
X173670476Y-85546666D01*
X173879999Y-85413333D01*
X173984761Y-85280000D01*
X174089523Y-85013333D01*
X174089523Y-84213333D01*
X173984761Y-83946666D01*
X173879999Y-83813333D01*
X173670476Y-83680000D01*
X173251428Y-83680000D01*
X173041904Y-83813333D01*
X169060952Y-85280000D02*
X169165714Y-85413333D01*
X169479999Y-85546666D01*
X169689523Y-85546666D01*
X170003809Y-85413333D01*
X170213333Y-85146666D01*
X170318095Y-84880000D01*
X170422857Y-84346666D01*
X170422857Y-83946666D01*
X170318095Y-83413333D01*
X170213333Y-83146666D01*
X170003809Y-82880000D01*
X169689523Y-82746666D01*
X169479999Y-82746666D01*
X169165714Y-82880000D01*
X169060952Y-83013333D01*
X167803809Y-85546666D02*
X168013333Y-85413333D01*
X168118095Y-85280000D01*
X168222857Y-85013333D01*
X168222857Y-84213333D01*
X168118095Y-83946666D01*
X168013333Y-83813333D01*
X167803809Y-83680000D01*
X167489523Y-83680000D01*
X167279999Y-83813333D01*
X167175238Y-83946666D01*
X167070476Y-84213333D01*
X167070476Y-85013333D01*
X167175238Y-85280000D01*
X167279999Y-85413333D01*
X167489523Y-85546666D01*
X167803809Y-85546666D01*
X166127619Y-83680000D02*
X166127619Y-85546666D01*
X166127619Y-83946666D02*
X166022857Y-83813333D01*
X165813333Y-83680000D01*
X165499047Y-83680000D01*
X165289523Y-83813333D01*
X165184761Y-84080000D01*
X165184761Y-85546666D01*
X164451428Y-83680000D02*
X163613333Y-83680000D01*
X164137142Y-85546666D02*
X164137142Y-83146666D01*
X164032380Y-82880000D01*
X163822857Y-82746666D01*
X163613333Y-82746666D01*
X162879999Y-85546666D02*
X162879999Y-83680000D01*
X162879999Y-82746666D02*
X162984761Y-82880000D01*
X162879999Y-83013333D01*
X162775238Y-82880000D01*
X162879999Y-82746666D01*
X162879999Y-83013333D01*
X160889523Y-85546666D02*
X160889523Y-82746666D01*
X160889523Y-85413333D02*
X161099047Y-85546666D01*
X161518095Y-85546666D01*
X161727619Y-85413333D01*
X161832380Y-85280000D01*
X161937142Y-85013333D01*
X161937142Y-84213333D01*
X161832380Y-83946666D01*
X161727619Y-83813333D01*
X161518095Y-83680000D01*
X161099047Y-83680000D01*
X160889523Y-83813333D01*
X159003809Y-85413333D02*
X159213333Y-85546666D01*
X159632380Y-85546666D01*
X159841904Y-85413333D01*
X159946666Y-85146666D01*
X159946666Y-84080000D01*
X159841904Y-83813333D01*
X159632380Y-83680000D01*
X159213333Y-83680000D01*
X159003809Y-83813333D01*
X158899047Y-84080000D01*
X158899047Y-84346666D01*
X159946666Y-84613333D01*
X157956190Y-83680000D02*
X157956190Y-85546666D01*
X157956190Y-83946666D02*
X157851428Y-83813333D01*
X157641904Y-83680000D01*
X157327619Y-83680000D01*
X157118095Y-83813333D01*
X157013333Y-84080000D01*
X157013333Y-85546666D01*
X155022857Y-85413333D02*
X155232380Y-85546666D01*
X155651428Y-85546666D01*
X155860952Y-85413333D01*
X155965714Y-85280000D01*
X156070476Y-85013333D01*
X156070476Y-84213333D01*
X155965714Y-83946666D01*
X155860952Y-83813333D01*
X155651428Y-83680000D01*
X155232380Y-83680000D01*
X155022857Y-83813333D01*
X153241904Y-85413333D02*
X153451428Y-85546666D01*
X153870476Y-85546666D01*
X154079999Y-85413333D01*
X154184761Y-85146666D01*
X154184761Y-84080000D01*
X154079999Y-83813333D01*
X153870476Y-83680000D01*
X153451428Y-83680000D01*
X153241904Y-83813333D01*
X153137142Y-84080000D01*
X153137142Y-84346666D01*
X154184761Y-84613333D01*
X152194285Y-85280000D02*
X152089523Y-85413333D01*
X152194285Y-85546666D01*
X152299047Y-85413333D01*
X152194285Y-85280000D01*
X152194285Y-85546666D01*
X188651428Y-87446666D02*
X188127619Y-90246666D01*
X187708571Y-88246666D01*
X187289523Y-90246666D01*
X186765714Y-87446666D01*
X185927619Y-90246666D02*
X185927619Y-88380000D01*
X185927619Y-87446666D02*
X186032380Y-87580000D01*
X185927619Y-87713333D01*
X185822857Y-87580000D01*
X185927619Y-87446666D01*
X185927619Y-87713333D01*
X185194285Y-88380000D02*
X184356190Y-88380000D01*
X184880000Y-87446666D02*
X184880000Y-89846666D01*
X184775238Y-90113333D01*
X184565714Y-90246666D01*
X184356190Y-90246666D01*
X183622857Y-90246666D02*
X183622857Y-87446666D01*
X182680000Y-90246666D02*
X182680000Y-88780000D01*
X182784761Y-88513333D01*
X182994285Y-88380000D01*
X183308571Y-88380000D01*
X183518095Y-88513333D01*
X183622857Y-88646666D01*
X181318095Y-90246666D02*
X181527619Y-90113333D01*
X181632380Y-89980000D01*
X181737142Y-89713333D01*
X181737142Y-88913333D01*
X181632380Y-88646666D01*
X181527619Y-88513333D01*
X181318095Y-88380000D01*
X181003809Y-88380000D01*
X180794285Y-88513333D01*
X180689523Y-88646666D01*
X180584761Y-88913333D01*
X180584761Y-89713333D01*
X180689523Y-89980000D01*
X180794285Y-90113333D01*
X181003809Y-90246666D01*
X181318095Y-90246666D01*
X178699047Y-88380000D02*
X178699047Y-90246666D01*
X179641904Y-88380000D02*
X179641904Y-89846666D01*
X179537142Y-90113333D01*
X179327619Y-90246666D01*
X179013333Y-90246666D01*
X178803809Y-90113333D01*
X178699047Y-89980000D01*
X177965714Y-88380000D02*
X177127619Y-88380000D01*
X177651428Y-87446666D02*
X177651428Y-89846666D01*
X177546666Y-90113333D01*
X177337142Y-90246666D01*
X177127619Y-90246666D01*
X173460952Y-89980000D02*
X173565714Y-90113333D01*
X173880000Y-90246666D01*
X174089523Y-90246666D01*
X174403809Y-90113333D01*
X174613333Y-89846666D01*
X174718095Y-89580000D01*
X174822857Y-89046666D01*
X174822857Y-88646666D01*
X174718095Y-88113333D01*
X174613333Y-87846666D01*
X174403809Y-87580000D01*
X174089523Y-87446666D01*
X173880000Y-87446666D01*
X173565714Y-87580000D01*
X173460952Y-87713333D01*
X172203809Y-90246666D02*
X172413333Y-90113333D01*
X172518095Y-89980000D01*
X172622857Y-89713333D01*
X172622857Y-88913333D01*
X172518095Y-88646666D01*
X172413333Y-88513333D01*
X172203809Y-88380000D01*
X171889523Y-88380000D01*
X171680000Y-88513333D01*
X171575238Y-88646666D01*
X171470476Y-88913333D01*
X171470476Y-89713333D01*
X171575238Y-89980000D01*
X171680000Y-90113333D01*
X171889523Y-90246666D01*
X172203809Y-90246666D01*
X170527619Y-88380000D02*
X170527619Y-90246666D01*
X170527619Y-88646666D02*
X170422857Y-88513333D01*
X170213333Y-88380000D01*
X169899047Y-88380000D01*
X169689523Y-88513333D01*
X169584761Y-88780000D01*
X169584761Y-90246666D01*
X168851428Y-88380000D02*
X168013333Y-88380000D01*
X168537142Y-90246666D02*
X168537142Y-87846666D01*
X168432380Y-87580000D01*
X168222857Y-87446666D01*
X168013333Y-87446666D01*
X167280000Y-90246666D02*
X167280000Y-88380000D01*
X167280000Y-87446666D02*
X167384761Y-87580000D01*
X167280000Y-87713333D01*
X167175238Y-87580000D01*
X167280000Y-87446666D01*
X167280000Y-87713333D01*
X165289523Y-90246666D02*
X165289523Y-87446666D01*
X165289523Y-90113333D02*
X165499047Y-90246666D01*
X165918095Y-90246666D01*
X166127619Y-90113333D01*
X166232380Y-89980000D01*
X166337142Y-89713333D01*
X166337142Y-88913333D01*
X166232380Y-88646666D01*
X166127619Y-88513333D01*
X165918095Y-88380000D01*
X165499047Y-88380000D01*
X165289523Y-88513333D01*
X163403809Y-90113333D02*
X163613333Y-90246666D01*
X164032380Y-90246666D01*
X164241904Y-90113333D01*
X164346666Y-89846666D01*
X164346666Y-88780000D01*
X164241904Y-88513333D01*
X164032380Y-88380000D01*
X163613333Y-88380000D01*
X163403809Y-88513333D01*
X163299047Y-88780000D01*
X163299047Y-89046666D01*
X164346666Y-89313333D01*
X162356190Y-88380000D02*
X162356190Y-90246666D01*
X162356190Y-88646666D02*
X162251428Y-88513333D01*
X162041904Y-88380000D01*
X161727619Y-88380000D01*
X161518095Y-88513333D01*
X161413333Y-88780000D01*
X161413333Y-90246666D01*
X159422857Y-90113333D02*
X159632380Y-90246666D01*
X160051428Y-90246666D01*
X160260952Y-90113333D01*
X160365714Y-89980000D01*
X160470476Y-89713333D01*
X160470476Y-88913333D01*
X160365714Y-88646666D01*
X160260952Y-88513333D01*
X160051428Y-88380000D01*
X159632380Y-88380000D01*
X159422857Y-88513333D01*
X157641904Y-90113333D02*
X157851428Y-90246666D01*
X158270476Y-90246666D01*
X158480000Y-90113333D01*
X158584761Y-89846666D01*
X158584761Y-88780000D01*
X158480000Y-88513333D01*
X158270476Y-88380000D01*
X157851428Y-88380000D01*
X157641904Y-88513333D01*
X157537142Y-88780000D01*
X157537142Y-89046666D01*
X158584761Y-89313333D01*
X156489523Y-90113333D02*
X156489523Y-90246666D01*
X156594285Y-90513333D01*
X156699047Y-90646666D01*
X188808571Y-93080000D02*
X187970476Y-93080000D01*
X188494285Y-92146666D02*
X188494285Y-94546666D01*
X188389523Y-94813333D01*
X188180000Y-94946666D01*
X187970476Y-94946666D01*
X187237142Y-94946666D02*
X187237142Y-92146666D01*
X186294285Y-94946666D02*
X186294285Y-93480000D01*
X186399047Y-93213333D01*
X186608571Y-93080000D01*
X186922857Y-93080000D01*
X187132380Y-93213333D01*
X187237142Y-93346666D01*
X184408571Y-94813333D02*
X184618095Y-94946666D01*
X185037142Y-94946666D01*
X185246666Y-94813333D01*
X185351428Y-94546666D01*
X185351428Y-93480000D01*
X185246666Y-93213333D01*
X185037142Y-93080000D01*
X184618095Y-93080000D01*
X184408571Y-93213333D01*
X184303809Y-93480000D01*
X184303809Y-93746666D01*
X185351428Y-94013333D01*
X183570476Y-93080000D02*
X183046666Y-94946666D01*
X182522857Y-93080000D02*
X183046666Y-94946666D01*
X183256190Y-95613333D01*
X183360952Y-95746666D01*
X183570476Y-95880000D01*
X179694285Y-94946666D02*
X179903809Y-94813333D01*
X180008571Y-94546666D01*
X180008571Y-92146666D01*
X177913333Y-94946666D02*
X177913333Y-93480000D01*
X178018095Y-93213333D01*
X178227619Y-93080000D01*
X178646666Y-93080000D01*
X178856190Y-93213333D01*
X177913333Y-94813333D02*
X178122857Y-94946666D01*
X178646666Y-94946666D01*
X178856190Y-94813333D01*
X178960952Y-94546666D01*
X178960952Y-94280000D01*
X178856190Y-94013333D01*
X178646666Y-93880000D01*
X178122857Y-93880000D01*
X177913333Y-93746666D01*
X175922857Y-94813333D02*
X176132380Y-94946666D01*
X176551428Y-94946666D01*
X176760952Y-94813333D01*
X176865714Y-94680000D01*
X176970476Y-94413333D01*
X176970476Y-93613333D01*
X176865714Y-93346666D01*
X176760952Y-93213333D01*
X176551428Y-93080000D01*
X176132380Y-93080000D01*
X175922857Y-93213333D01*
X174980000Y-94946666D02*
X174980000Y-92146666D01*
X174770476Y-93880000D02*
X174141904Y-94946666D01*
X174141904Y-93080000D02*
X174980000Y-94146666D01*
X172360952Y-94813333D02*
X172570476Y-94946666D01*
X172989523Y-94946666D01*
X173199047Y-94813333D01*
X173303809Y-94546666D01*
X173303809Y-93480000D01*
X173199047Y-93213333D01*
X172989523Y-93080000D01*
X172570476Y-93080000D01*
X172360952Y-93213333D01*
X172256190Y-93480000D01*
X172256190Y-93746666D01*
X173303809Y-94013333D01*
X170370476Y-94946666D02*
X170370476Y-92146666D01*
X170370476Y-94813333D02*
X170580000Y-94946666D01*
X170999047Y-94946666D01*
X171208571Y-94813333D01*
X171313333Y-94680000D01*
X171418095Y-94413333D01*
X171418095Y-93613333D01*
X171313333Y-93346666D01*
X171208571Y-93213333D01*
X170999047Y-93080000D01*
X170580000Y-93080000D01*
X170370476Y-93213333D01*
X167960952Y-92146666D02*
X167227619Y-94946666D01*
X166494285Y-92146666D01*
X165760952Y-94946666D02*
X165760952Y-93080000D01*
X165760952Y-92146666D02*
X165865714Y-92280000D01*
X165760952Y-92413333D01*
X165656190Y-92280000D01*
X165760952Y-92146666D01*
X165760952Y-92413333D01*
X163770476Y-94813333D02*
X163980000Y-94946666D01*
X164399047Y-94946666D01*
X164608571Y-94813333D01*
X164713333Y-94680000D01*
X164818095Y-94413333D01*
X164818095Y-93613333D01*
X164713333Y-93346666D01*
X164608571Y-93213333D01*
X164399047Y-93080000D01*
X163980000Y-93080000D01*
X163770476Y-93213333D01*
X163141904Y-93080000D02*
X162303809Y-93080000D01*
X162827619Y-92146666D02*
X162827619Y-94546666D01*
X162722857Y-94813333D01*
X162513333Y-94946666D01*
X162303809Y-94946666D01*
X161256190Y-94946666D02*
X161465714Y-94813333D01*
X161570476Y-94680000D01*
X161675238Y-94413333D01*
X161675238Y-93613333D01*
X161570476Y-93346666D01*
X161465714Y-93213333D01*
X161256190Y-93080000D01*
X160941904Y-93080000D01*
X160732380Y-93213333D01*
X160627619Y-93346666D01*
X160522857Y-93613333D01*
X160522857Y-94413333D01*
X160627619Y-94680000D01*
X160732380Y-94813333D01*
X160941904Y-94946666D01*
X161256190Y-94946666D01*
X159580000Y-94946666D02*
X159580000Y-93080000D01*
X159580000Y-93613333D02*
X159475238Y-93346666D01*
X159370476Y-93213333D01*
X159160952Y-93080000D01*
X158951428Y-93080000D01*
X158427619Y-93080000D02*
X157903809Y-94946666D01*
X157380000Y-93080000D02*
X157903809Y-94946666D01*
X158113333Y-95613333D01*
X158218095Y-95746666D01*
X158427619Y-95880000D01*
X156541904Y-94680000D02*
X156437142Y-94813333D01*
X156541904Y-94946666D01*
X156646666Y-94813333D01*
X156541904Y-94680000D01*
X156541904Y-94946666D01*
X155599047Y-92146666D02*
X155599047Y-92680000D01*
X154760952Y-92146666D02*
X154760952Y-92680000D01*
M02*
