M48
; DRILL file {KiCad (5.1.5)-3} date 27/07/2020 13:18:45
; FORMAT={-:-/ absolute / inch / decimal}
; #@! TF.CreationDate,2020-07-27T13:18:45+03:00
; #@! TF.GenerationSoftware,Kicad,Pcbnew,(5.1.5)-3
FMAT,2
INCH
T1C0.0157
T2C0.0315
T3C0.0394
T4C0.0433
T5C0.0866
%
G90
G05
T1
X4.3504Y-2.2646
X4.4232Y-2.2646
X4.4921Y-2.3472
X4.4921Y-2.3957
X4.5057Y-2.7142
X4.5057Y-2.8858
X4.5303Y-2.1626
X4.6307Y-2.4654
X4.6697Y-2.5
X4.7189Y-2.5343
X4.863Y-2.3445
X4.9316Y-2.4042
X4.952Y-2.287
X5.011Y-2.402
X5.0571Y-2.3685
X5.289Y-2.7035
X5.3173Y-2.5996
X5.378Y-2.6461
X5.6232Y-4.8185
X5.9846Y-4.6724
X6.0531Y-4.7394
X6.2236Y-1.7437
X6.3035Y-1.8098
X6.3047Y-1.6323
X3.7657Y-1.311
X3.7848Y-1.2651
X3.7848Y-1.357
X3.8307Y-1.2461
X3.8307Y-1.376
X3.8766Y-1.2651
X3.8766Y-1.357
X3.8957Y-1.311
X7.3642Y-1.311
X7.3832Y-1.2651
X7.3832Y-1.357
X7.4291Y-1.2461
X7.4291Y-1.376
X7.4751Y-1.2651
X7.4751Y-1.357
X7.4941Y-1.311
X7.3642Y-4.9094
X7.3832Y-4.8635
X7.3832Y-4.9554
X7.4291Y-4.8445
X7.4291Y-4.9744
X7.4751Y-4.8635
X7.4751Y-4.9554
X7.4941Y-4.9094
X3.7657Y-4.9094
X3.7848Y-4.8635
X3.7848Y-4.9554
X3.8307Y-4.8445
X3.8307Y-4.9744
X3.8766Y-4.8635
X3.8766Y-4.9554
X3.8957Y-4.9094
T2
X6.5024Y-4.1563
X6.5024Y-4.2563
X6.8024Y-4.1563
X6.8024Y-4.2563
X6.7669Y-4.5752
X6.7669Y-4.6752
X6.7669Y-4.7752
X6.7669Y-4.8752
X7.0669Y-4.5752
X7.0669Y-4.6752
X7.0669Y-4.7752
X7.0669Y-4.8752
X5.463Y-4.576
X5.463Y-4.676
X5.463Y-4.776
X5.463Y-4.876
X5.763Y-4.576
X5.763Y-4.676
X5.763Y-4.776
X5.763Y-4.876
X5.1992Y-4.1563
X5.1992Y-4.2563
X5.4992Y-4.1563
X5.4992Y-4.2563
X7.0819Y-1.7346
X7.0819Y-1.8346
X7.3819Y-1.7346
X7.3819Y-1.8346
X5.6941Y-3.4531
X5.9941Y-3.4531
T3
X3.9437Y-3.7598
X4.0437Y-3.7598
X4.1437Y-3.7598
X4.2437Y-3.7598
X4.3437Y-3.7598
X4.4437Y-3.7598
X4.5437Y-3.7598
X4.6437Y-3.7598
X4.7437Y-3.7598
X4.8437Y-3.7598
X6.0969Y-1.4016
X6.0969Y-1.5016
X6.0969Y-1.6016
X6.0969Y-1.7016
X6.0969Y-1.8016
X6.0969Y-1.9016
X6.0969Y-2.0016
X6.0969Y-2.1016
X6.0969Y-2.2016
X6.0969Y-2.3016
X6.0969Y-2.4016
X6.0969Y-2.5016
X6.0969Y-2.6016
X6.0969Y-2.7016
X6.0969Y-2.8016
X3.9437Y-4.0315
X4.0437Y-4.0315
X4.1437Y-4.0315
X4.2437Y-4.0315
X4.3437Y-4.0315
X4.4437Y-4.0315
X4.5437Y-4.0315
X4.6437Y-4.0315
X4.7437Y-4.0315
X4.8437Y-4.0315
X4.1303Y-2.4626
X4.1303Y-2.5626
X4.2303Y-2.4626
X4.2303Y-2.5626
X4.3303Y-2.4626
X4.3303Y-2.5626
X4.4303Y-2.4626
X4.4303Y-2.5626
X4.5303Y-2.4626
X4.5303Y-2.5626
X6.6732Y-1.711
X6.6732Y-1.811
X6.6732Y-1.911
X6.6732Y-2.011
X6.6732Y-2.111
X6.7732Y-1.711
X6.7732Y-1.811
X6.7732Y-1.911
X6.7732Y-2.011
X6.7732Y-2.111
X5.3567Y-3.3469
X5.3567Y-3.4469
X5.3567Y-3.5469
X4.139Y-1.6713
X4.139Y-1.7713
X4.239Y-1.6713
X4.239Y-1.7713
X4.339Y-1.6713
X4.339Y-1.7713
X4.439Y-1.6713
X4.439Y-1.7713
X4.539Y-1.6713
X4.539Y-1.7713
X3.9437Y-4.3622
X3.9437Y-4.4622
X4.0437Y-4.3622
X4.0437Y-4.4622
X4.1437Y-4.3622
X4.1437Y-4.4622
X4.2437Y-4.3622
X4.2437Y-4.4622
X4.3437Y-4.3622
X4.3437Y-4.4622
X4.4437Y-4.3622
X4.4437Y-4.4622
X4.5437Y-4.3622
X4.5437Y-4.4622
X4.6437Y-4.3622
X4.6437Y-4.4622
X4.7437Y-4.3622
X4.7437Y-4.4622
X4.8437Y-4.3622
X4.8437Y-4.4622
X5.1921Y-1.402
X5.1921Y-1.502
X5.1921Y-1.602
X5.1921Y-1.702
X5.1921Y-1.802
X5.1921Y-1.902
X5.1921Y-2.002
X5.1921Y-2.102
X5.1921Y-2.202
X5.1921Y-2.302
X5.1921Y-2.402
X5.1921Y-2.502
X5.1921Y-2.602
X5.1921Y-2.702
X5.1921Y-2.802
T4
X3.9437Y-4.7913
X4.0437Y-4.7913
X4.1437Y-4.7913
X4.2437Y-4.7913
X4.3437Y-4.7913
X4.4437Y-4.7913
X4.5437Y-4.7913
X4.6437Y-4.7913
X4.7437Y-4.7913
X4.8437Y-4.7913
T5
X3.8307Y-1.311
X7.4291Y-1.311
X7.4291Y-4.9094
X3.8307Y-4.9094
T0
M30
