G04 #@! TF.GenerationSoftware,KiCad,Pcbnew,(5.1.5)-3*
G04 #@! TF.CreationDate,2020-07-27T13:18:42+03:00*
G04 #@! TF.ProjectId,BurtleinaBoard,42757274-6c65-4696-9e61-426f6172642e,0.1*
G04 #@! TF.SameCoordinates,Original*
G04 #@! TF.FileFunction,Copper,L2,Bot*
G04 #@! TF.FilePolarity,Positive*
%FSLAX46Y46*%
G04 Gerber Fmt 4.6, Leading zero omitted, Abs format (unit mm)*
G04 Created by KiCad (PCBNEW (5.1.5)-3) date 2020-07-27 13:18:42*
%MOMM*%
%LPD*%
G04 APERTURE LIST*
%ADD10O,1.700000X1.700000*%
%ADD11R,1.700000X1.700000*%
%ADD12C,4.400000*%
%ADD13C,0.700000*%
%ADD14O,1.600000X1.600000*%
%ADD15R,1.600000X1.600000*%
%ADD16O,2.400000X1.600000*%
%ADD17R,2.400000X1.600000*%
%ADD18R,2.000000X2.000000*%
%ADD19C,2.000000*%
%ADD20C,0.800000*%
%ADD21C,0.250000*%
%ADD22C,0.500000*%
G04 APERTURE END LIST*
D10*
X104910000Y-65090000D03*
X104910000Y-62550000D03*
X107450000Y-65090000D03*
X107450000Y-62550000D03*
X109990000Y-65090000D03*
X109990000Y-62550000D03*
X112530000Y-65090000D03*
X112530000Y-62550000D03*
X115070000Y-65090000D03*
D11*
X115070000Y-62550000D03*
D10*
X115290000Y-42450000D03*
X115290000Y-44990000D03*
X112750000Y-42450000D03*
X112750000Y-44990000D03*
X110210000Y-42450000D03*
X110210000Y-44990000D03*
X107670000Y-42450000D03*
X107670000Y-44990000D03*
X105130000Y-42450000D03*
D11*
X105130000Y-44990000D03*
D12*
X97300000Y-124700000D03*
D13*
X97300000Y-123050000D03*
X98466726Y-123533274D03*
X98950000Y-124700000D03*
X98466726Y-125866726D03*
X97300000Y-126350000D03*
X96133274Y-125866726D03*
X95650000Y-124700000D03*
X96133274Y-123533274D03*
D12*
X188700000Y-124700000D03*
D13*
X187050000Y-124700000D03*
X187533274Y-123533274D03*
X188700000Y-123050000D03*
X189866726Y-123533274D03*
X190350000Y-124700000D03*
X189866726Y-125866726D03*
X188700000Y-126350000D03*
X187533274Y-125866726D03*
D12*
X188700000Y-33300000D03*
D13*
X188700000Y-34950000D03*
X187533274Y-34466726D03*
X187050000Y-33300000D03*
X187533274Y-32133274D03*
X188700000Y-31650000D03*
X189866726Y-32133274D03*
X190350000Y-33300000D03*
X189866726Y-34466726D03*
X98466726Y-32133274D03*
X97300000Y-31650000D03*
X96133274Y-32133274D03*
X95650000Y-33300000D03*
X96133274Y-34466726D03*
X97300000Y-34950000D03*
X98466726Y-34466726D03*
X98950000Y-33300000D03*
D12*
X97300000Y-33300000D03*
D14*
X144630000Y-87710000D03*
D15*
X152250000Y-87710000D03*
D14*
X132060000Y-108110000D03*
X139680000Y-105570000D03*
X132060000Y-105570000D03*
D15*
X139680000Y-108110000D03*
D14*
X165160000Y-108110000D03*
X172780000Y-105570000D03*
X165160000Y-105570000D03*
D15*
X172780000Y-108110000D03*
D14*
X179880000Y-46600000D03*
X187500000Y-44060000D03*
X179880000Y-44060000D03*
D15*
X187500000Y-46600000D03*
D11*
X136060000Y-90090000D03*
D10*
X136060000Y-87550000D03*
X136060000Y-85010000D03*
D11*
X172040000Y-43460000D03*
D10*
X169500000Y-43460000D03*
X172040000Y-46000000D03*
X169500000Y-46000000D03*
X172040000Y-48540000D03*
X169500000Y-48540000D03*
X172040000Y-51080000D03*
X169500000Y-51080000D03*
X172040000Y-53620000D03*
X169500000Y-53620000D03*
D16*
X179500000Y-116210000D03*
X171880000Y-123830000D03*
X179500000Y-118750000D03*
X171880000Y-121290000D03*
X179500000Y-121290000D03*
X171880000Y-118750000D03*
X179500000Y-123830000D03*
D17*
X171880000Y-116210000D03*
D10*
X100170000Y-102400000D03*
X102710000Y-102400000D03*
X105250000Y-102400000D03*
X107790000Y-102400000D03*
X110330000Y-102400000D03*
X112870000Y-102400000D03*
X115410000Y-102400000D03*
X117950000Y-102400000D03*
X120490000Y-102400000D03*
D11*
X123030000Y-102400000D03*
D10*
X123030000Y-110800000D03*
X123030000Y-113340000D03*
X120490000Y-110800000D03*
X120490000Y-113340000D03*
X117950000Y-110800000D03*
X117950000Y-113340000D03*
X115410000Y-110800000D03*
X115410000Y-113340000D03*
X112870000Y-110800000D03*
X112870000Y-113340000D03*
X110330000Y-110800000D03*
X110330000Y-113340000D03*
X107790000Y-110800000D03*
X107790000Y-113340000D03*
X105250000Y-110800000D03*
X105250000Y-113340000D03*
X102710000Y-110800000D03*
X102710000Y-113340000D03*
X100170000Y-110800000D03*
D11*
X100170000Y-113340000D03*
D10*
X123030000Y-95500000D03*
X120490000Y-95500000D03*
X117950000Y-95500000D03*
X115410000Y-95500000D03*
X112870000Y-95500000D03*
X110330000Y-95500000D03*
X107790000Y-95500000D03*
X105250000Y-95500000D03*
X102710000Y-95500000D03*
D11*
X100170000Y-95500000D03*
D16*
X146380000Y-116230000D03*
X138760000Y-123850000D03*
X146380000Y-118770000D03*
X138760000Y-121310000D03*
X146380000Y-121310000D03*
X138760000Y-118770000D03*
X146380000Y-123850000D03*
D17*
X138760000Y-116230000D03*
D10*
X154860000Y-71160000D03*
X154860000Y-68620000D03*
X154860000Y-66080000D03*
X154860000Y-63540000D03*
X154860000Y-61000000D03*
X154860000Y-58460000D03*
X154860000Y-55920000D03*
X154860000Y-53380000D03*
X154860000Y-50840000D03*
X154860000Y-48300000D03*
X154860000Y-45760000D03*
X154860000Y-43220000D03*
X154860000Y-40680000D03*
X154860000Y-38140000D03*
D11*
X154860000Y-35600000D03*
X131880000Y-35610000D03*
D10*
X131880000Y-38150000D03*
X131880000Y-40690000D03*
X131880000Y-43230000D03*
X131880000Y-45770000D03*
X131880000Y-48310000D03*
X131880000Y-50850000D03*
X131880000Y-53390000D03*
X131880000Y-55930000D03*
X131880000Y-58470000D03*
X131880000Y-61010000D03*
X131880000Y-63550000D03*
X131880000Y-66090000D03*
X131880000Y-68630000D03*
X131880000Y-71170000D03*
D18*
X100170000Y-121700000D03*
D19*
X102710000Y-121700000D03*
X105250000Y-121700000D03*
X107790000Y-121700000D03*
X110330000Y-121700000D03*
X112870000Y-121700000D03*
X115410000Y-121700000D03*
X117950000Y-121700000D03*
X120490000Y-121700000D03*
X123030000Y-121700000D03*
D20*
X142830000Y-122390000D03*
X153750000Y-120380000D03*
X152010000Y-118680000D03*
X160140000Y-41460000D03*
X160110000Y-45970000D03*
X114100000Y-59620000D03*
X119860000Y-64370000D03*
X136600000Y-67210000D03*
X134340000Y-68670000D03*
X135060000Y-66030000D03*
X114443601Y-73300000D03*
X114443601Y-68940000D03*
X114100000Y-60850000D03*
X117620000Y-62620000D03*
X123520000Y-59550000D03*
X125780000Y-58090000D03*
X128450000Y-60160000D03*
X127280000Y-61010000D03*
X125262347Y-61067653D03*
X118610000Y-63500000D03*
X112350000Y-57520000D03*
X110500000Y-57520000D03*
X158080000Y-44290000D03*
X115070000Y-54930000D03*
D21*
X113613599Y-44126401D02*
X112750000Y-44990000D01*
X114101399Y-43638601D02*
X113613599Y-44126401D01*
X114101399Y-41879471D02*
X114101399Y-43638601D01*
X117830870Y-38150000D02*
X114101399Y-41879471D01*
X131880000Y-38150000D02*
X117830870Y-38150000D01*
X164180000Y-48300000D02*
X169500000Y-53620000D01*
X154860000Y-48300000D02*
X164180000Y-48300000D01*
X170702081Y-53620000D02*
X172040000Y-53620000D01*
X169500000Y-53620000D02*
X170702081Y-53620000D01*
X141370000Y-123850000D02*
X138760000Y-123850000D01*
X142830000Y-122390000D02*
X141370000Y-123850000D01*
X153750000Y-120380000D02*
X153710000Y-120380000D01*
X153710000Y-120380000D02*
X152010000Y-118680000D01*
X136080000Y-123850000D02*
X123030000Y-110800000D01*
X138760000Y-123850000D02*
X136080000Y-123850000D01*
X154010001Y-37290001D02*
X154860000Y-38140000D01*
X111385871Y-34434999D02*
X151154999Y-34434999D01*
X151154999Y-34434999D02*
X154010001Y-37290001D01*
X103941399Y-59822269D02*
X103941399Y-41879471D01*
X106098601Y-61979471D02*
X103941399Y-59822269D01*
X103941399Y-41879471D02*
X111385871Y-34434999D01*
X106098601Y-63120529D02*
X106098601Y-61979471D01*
X105773599Y-63445531D02*
X106098601Y-63120529D01*
X105773599Y-64226401D02*
X105773599Y-63445531D01*
X104910000Y-65090000D02*
X105773599Y-64226401D01*
X154860000Y-38140000D02*
X156820000Y-38140000D01*
X156820000Y-38140000D02*
X160140000Y-41460000D01*
X157780000Y-48300000D02*
X154860000Y-48300000D01*
X160110000Y-45970000D02*
X157780000Y-48300000D01*
X154010001Y-49149999D02*
X154860000Y-48300000D01*
X153684999Y-69124003D02*
X153684999Y-49475001D01*
X153684999Y-49475001D02*
X154010001Y-49149999D01*
X136624001Y-86185001D02*
X153684999Y-69124003D01*
X132344999Y-86185001D02*
X136624001Y-86185001D01*
X123030000Y-95500000D02*
X132344999Y-86185001D01*
X132729999Y-38999999D02*
X131880000Y-38150000D01*
X133055001Y-39325001D02*
X132729999Y-38999999D01*
X133055001Y-54754999D02*
X133055001Y-39325001D01*
X131880000Y-55930000D02*
X133055001Y-54754999D01*
X119860000Y-63676998D02*
X119860000Y-64370000D01*
X114100000Y-59620000D02*
X115803002Y-59620000D01*
X115803002Y-59620000D02*
X119860000Y-63676998D01*
X180950000Y-121290000D02*
X185160000Y-117080000D01*
X179500000Y-121290000D02*
X180950000Y-121290000D01*
X185160000Y-64200000D02*
X172040000Y-51080000D01*
X185160000Y-117080000D02*
X185160000Y-64200000D01*
X129580000Y-68630000D02*
X131880000Y-68630000D01*
X102710000Y-95500000D02*
X129580000Y-68630000D01*
X136600000Y-67210000D02*
X135140000Y-68670000D01*
X135140000Y-68670000D02*
X134340000Y-68670000D01*
X132729999Y-66939999D02*
X131880000Y-66090000D01*
X133055001Y-67265001D02*
X132729999Y-66939999D01*
X110464003Y-94324999D02*
X133055001Y-71734001D01*
X106425001Y-94324999D02*
X110464003Y-94324999D01*
X133055001Y-71734001D02*
X133055001Y-67265001D01*
X105250000Y-95500000D02*
X106425001Y-94324999D01*
X131940000Y-66030000D02*
X131880000Y-66090000D01*
X135060000Y-66030000D02*
X131940000Y-66030000D01*
X131880000Y-66090000D02*
X121653601Y-66090000D01*
X121653601Y-66090000D02*
X114443601Y-73300000D01*
X106586401Y-63413599D02*
X107450000Y-62550000D01*
X106261399Y-63738601D02*
X106586401Y-63413599D01*
X109540870Y-68940000D02*
X106261399Y-65660529D01*
X106261399Y-65660529D02*
X106261399Y-63738601D01*
X114443601Y-68940000D02*
X109540870Y-68940000D01*
X114100000Y-60850000D02*
X115850000Y-60850000D01*
X115850000Y-60850000D02*
X117620000Y-62620000D01*
X123520000Y-59550000D02*
X124320000Y-59550000D01*
X124320000Y-59550000D02*
X125780000Y-58090000D01*
X131840000Y-63550000D02*
X131880000Y-63550000D01*
X128450000Y-60160000D02*
X131840000Y-63550000D01*
X127280000Y-61010000D02*
X125320000Y-61010000D01*
X125320000Y-61010000D02*
X125262347Y-61067653D01*
X109126401Y-63413599D02*
X109990000Y-62550000D01*
X108801399Y-65660529D02*
X108801399Y-63738601D01*
X108801399Y-63738601D02*
X109126401Y-63413599D01*
X109869481Y-66728611D02*
X108801399Y-65660529D01*
X115381389Y-66728611D02*
X109869481Y-66728611D01*
X118610000Y-63500000D02*
X115381389Y-66728611D01*
D22*
X170499999Y-108909999D02*
X177800000Y-116210000D01*
X165959999Y-108909999D02*
X170499999Y-108909999D01*
X177800000Y-116210000D02*
X179500000Y-116210000D01*
X165160000Y-108110000D02*
X165959999Y-108909999D01*
X146380000Y-114930000D02*
X146380000Y-116230000D01*
X140810001Y-109360001D02*
X146380000Y-114930000D01*
X133310001Y-109360001D02*
X140810001Y-109360001D01*
X132060000Y-108110000D02*
X133310001Y-109360001D01*
X132060000Y-105570000D02*
X132060000Y-108110000D01*
X105130000Y-42450000D02*
X107670000Y-42450000D01*
X107670000Y-41228686D02*
X107670000Y-42450000D01*
X107670000Y-39910000D02*
X107670000Y-41228686D01*
X111970000Y-35610000D02*
X107670000Y-39910000D01*
X131880000Y-35610000D02*
X111970000Y-35610000D01*
X154860000Y-45760000D02*
X157970000Y-42650000D01*
X157970000Y-42650000D02*
X161460000Y-42650000D01*
X162270000Y-43460000D02*
X169500000Y-43460000D01*
X161460000Y-42650000D02*
X162270000Y-43460000D01*
X172040000Y-43460000D02*
X169500000Y-43460000D01*
X172640000Y-44060000D02*
X172040000Y-43460000D01*
X179880000Y-44060000D02*
X172640000Y-44060000D01*
X179880000Y-44060000D02*
X179880000Y-46600000D01*
X142030000Y-45760000D02*
X131880000Y-35610000D01*
X154860000Y-45760000D02*
X142030000Y-45760000D01*
X142030000Y-48320000D02*
X142030000Y-45760000D01*
X131880000Y-58470000D02*
X142030000Y-48320000D01*
X157040000Y-116230000D02*
X146380000Y-116230000D01*
X165160000Y-108110000D02*
X157040000Y-116230000D01*
X136220000Y-87710000D02*
X136060000Y-87550000D01*
X144630000Y-87710000D02*
X136220000Y-87710000D01*
X131880000Y-58470000D02*
X137130000Y-58470000D01*
X137130000Y-58470000D02*
X143690000Y-65030000D01*
X143690000Y-77380000D02*
X136060000Y-85010000D01*
X143690000Y-65030000D02*
X143690000Y-77380000D01*
D21*
X131030001Y-54239999D02*
X131880000Y-53390000D01*
X101534999Y-83735001D02*
X131030001Y-54239999D01*
X101534999Y-96064001D02*
X101534999Y-83735001D01*
X102145999Y-96675001D02*
X101534999Y-96064001D01*
X111694999Y-96675001D02*
X102145999Y-96675001D01*
X112870000Y-95500000D02*
X111694999Y-96675001D01*
X113393599Y-64226401D02*
X112530000Y-65090000D01*
X113718601Y-63901399D02*
X113393599Y-64226401D01*
X113718601Y-61979471D02*
X113718601Y-63901399D01*
X111561399Y-59822269D02*
X113718601Y-61979471D01*
X111561399Y-43801399D02*
X111561399Y-59822269D01*
X110210000Y-42450000D02*
X111561399Y-43801399D01*
X136568600Y-124975010D02*
X148874990Y-124975010D01*
X123758589Y-112164999D02*
X136568600Y-124975010D01*
X115035997Y-112164999D02*
X123758589Y-112164999D01*
X112870000Y-110800000D02*
X113670998Y-110800000D01*
X113670998Y-110800000D02*
X115035997Y-112164999D01*
X147830000Y-121310000D02*
X146380000Y-121310000D01*
X148874990Y-122354990D02*
X147830000Y-121310000D01*
X148874990Y-124975010D02*
X148874990Y-122354990D01*
X137310000Y-118770000D02*
X138760000Y-118770000D01*
X130934999Y-106134999D02*
X130934999Y-112394999D01*
X130934999Y-112394999D02*
X137310000Y-118770000D01*
X121475001Y-96675001D02*
X130934999Y-106134999D01*
X116585001Y-96675001D02*
X121475001Y-96675001D01*
X115410000Y-95500000D02*
X116585001Y-96675001D01*
X107670000Y-57690000D02*
X112530000Y-62550000D01*
X131880000Y-50850000D02*
X125210000Y-57520000D01*
X125210000Y-57520000D02*
X112350000Y-57520000D01*
X107710000Y-54730000D02*
X107710000Y-54560000D01*
X110500000Y-57520000D02*
X107710000Y-54730000D01*
X107670000Y-44990000D02*
X107710000Y-54560000D01*
X107710000Y-54560000D02*
X107670000Y-57690000D01*
X109639471Y-41261399D02*
X111561399Y-41261399D01*
X109021399Y-41879471D02*
X109639471Y-41261399D01*
X109021399Y-43020529D02*
X109021399Y-41879471D01*
X108403327Y-43638601D02*
X109021399Y-43020529D01*
X107262269Y-43638601D02*
X108403327Y-43638601D01*
X111886401Y-41586401D02*
X112750000Y-42450000D01*
X106481399Y-44419471D02*
X107262269Y-43638601D01*
X106481399Y-57137809D02*
X106481399Y-44419471D01*
X111341399Y-61997809D02*
X106481399Y-57137809D01*
X111561399Y-41261399D02*
X111886401Y-41586401D01*
X111341399Y-65660529D02*
X111341399Y-61997809D01*
X111959471Y-66278601D02*
X111341399Y-65660529D01*
X113881399Y-66278601D02*
X111959471Y-66278601D01*
X115070000Y-65090000D02*
X113881399Y-66278601D01*
X145980000Y-123850000D02*
X146380000Y-123850000D01*
X143794999Y-121664999D02*
X145980000Y-123850000D01*
X142481999Y-121664999D02*
X143794999Y-121664999D01*
X141711988Y-122435010D02*
X142481999Y-121664999D01*
X137894006Y-122435010D02*
X141711988Y-122435010D01*
X125083995Y-109624999D02*
X137894006Y-122435010D01*
X119125001Y-109624999D02*
X125083995Y-109624999D01*
X117950000Y-110800000D02*
X119125001Y-109624999D01*
X169500000Y-51080000D02*
X162710000Y-44290000D01*
X162710000Y-44290000D02*
X158080000Y-44290000D01*
X131880000Y-45770000D02*
X124230000Y-45770000D01*
X124230000Y-45770000D02*
X115070000Y-54930000D01*
M02*
